<?xml version="1.0" standalone="no"?>
<!DOCTYPE svg PUBLIC "-//W3C//DTD SVG 20010904//EN"
 "http://www.w3.org/TR/2001/REC-SVG-20010904/DTD/svg10.dtd">
<svg version="1.0" xmlns="http://www.w3.org/2000/svg"
 width="1920.000000pt" height="1844.000000pt" viewBox="0 0 1920.000000 1844.000000"
 preserveAspectRatio="xMidYMid meet">

<g transform="translate(0.000000,1844.000000) scale(0.100000,-0.100000)"
fill="#000000" stroke="none">
<path d="M10376 18418 c-3 -13 -12 -115 -21 -228 -9 -113 -20 -248 -25 -300
-5 -52 -17 -178 -25 -280 -8 -102 -20 -230 -25 -285 -5 -55 -16 -181 -25 -280
-8 -99 -20 -229 -25 -290 -9 -103 -16 -185 -55 -630 -8 -99 -19 -229 -25 -290
-25 -273 -31 -341 -45 -510 -9 -99 -22 -254 -30 -345 -15 -168 -24 -263 -50
-565 -30 -353 -46 -533 -55 -635 -5 -58 -16 -186 -25 -285 -8 -99 -20 -227
-25 -285 -5 -58 -16 -181 -25 -275 -28 -333 -37 -432 -54 -623 l-16 -194 -245
-3 c-270 -2 -390 -15 -630 -64 -352 -73 -760 -256 -1064 -478 -529 -386 -909
-933 -1086 -1563 -28 -100 -58 -248 -75 -366 -8 -59 -16 -109 -18 -110 -1 -1
-49 2 -107 7 -58 5 -157 13 -220 19 -63 5 -191 16 -285 25 -93 8 -249 21 -345
30 -96 8 -224 20 -285 25 -60 6 -186 17 -280 25 -93 8 -222 19 -285 25 -63 6
-194 17 -290 25 -96 8 -227 19 -290 25 -63 6 -191 17 -285 25 -93 8 -219 19
-280 25 -60 5 -189 16 -285 25 -96 8 -251 22 -345 30 -93 9 -222 20 -285 25
-63 6 -191 17 -285 25 -93 8 -222 19 -285 25 -63 5 -191 16 -285 24 -93 9
-224 20 -290 26 -66 6 -194 17 -285 25 -91 8 -221 20 -290 25 -69 5 -145 12
-170 15 -25 3 -99 10 -165 15 -66 6 -196 17 -290 26 -93 8 -224 19 -290 24
-66 6 -139 13 -162 16 -39 6 -43 4 -43 -15 0 -18 6 -21 38 -21 21 0 110 -7
198 -15 87 -8 317 -28 509 -45 193 -16 397 -34 455 -40 58 -5 186 -16 285 -25
99 -8 227 -20 285 -25 58 -5 186 -16 285 -25 295 -25 635 -55 860 -75 61 -6
191 -17 290 -25 99 -9 227 -20 285 -25 103 -10 257 -23 630 -55 102 -8 230
-20 285 -25 55 -5 181 -16 280 -25 99 -8 230 -19 290 -25 61 -6 189 -17 285
-25 96 -8 222 -20 280 -25 58 -5 188 -16 290 -25 102 -8 230 -20 285 -25 55
-5 188 -17 295 -25 234 -19 296 -28 293 -41 -11 -62 -13 -277 -3 -394 36 -448
135 -808 318 -1160 441 -846 1263 -1417 2205 -1531 l97 -11 0 -29 c0 -25 -12
-170 -40 -474 -6 -60 -17 -189 -25 -285 -8 -96 -19 -220 -25 -275 -5 -55 -17
-183 -25 -285 -26 -308 -44 -519 -55 -635 -5 -60 -17 -191 -25 -290 -8 -99
-20 -227 -25 -285 -5 -58 -16 -186 -25 -285 -8 -99 -20 -225 -25 -280 -5 -55
-17 -183 -25 -285 -9 -102 -22 -261 -30 -355 -9 -93 -20 -224 -25 -290 -6 -66
-15 -167 -20 -225 -5 -58 -17 -186 -25 -285 -15 -169 -32 -362 -55 -620 -5
-60 -17 -193 -25 -295 -9 -102 -20 -228 -25 -280 -5 -52 -16 -183 -25 -290 -9
-107 -20 -228 -24 -268 -7 -66 -6 -72 11 -72 10 0 18 6 18 13 0 6 5 62 10 122
5 61 17 191 25 290 21 242 32 368 50 570 9 94 20 220 25 280 13 159 38 442 50
575 6 63 17 193 25 288 8 95 20 225 25 290 52 586 70 791 80 907 6 61 17 187
25 280 8 94 19 224 25 290 6 66 17 198 25 293 15 169 21 239 50 572 25 279 34
389 50 565 8 94 22 249 30 345 9 96 20 231 26 300 6 69 16 187 23 262 l11 138
245 4 c391 6 675 61 1025 195 125 49 373 176 484 249 639 420 1067 1020 1247
1747 28 114 64 328 64 379 0 19 3 37 8 39 4 3 48 1 97 -3 130 -13 312 -29 450
-40 66 -5 165 -14 220 -20 55 -5 181 -16 280 -25 99 -8 230 -19 290 -25 106
-9 336 -29 575 -50 178 -15 443 -38 570 -50 213 -19 444 -39 630 -55 102 -9
230 -20 285 -25 55 -5 179 -16 275 -25 340 -29 756 -65 865 -75 61 -5 189 -17
285 -25 96 -8 225 -20 285 -25 119 -11 342 -30 635 -55 102 -8 230 -20 285
-25 55 -5 183 -17 285 -25 102 -9 226 -20 277 -25 129 -14 183 -13 183 3 0 10
-34 17 -132 26 -73 6 -180 16 -238 21 -107 10 -329 29 -635 55 -93 8 -219 19
-280 25 -60 5 -189 17 -285 25 -96 8 -224 20 -285 25 -60 6 -189 17 -285 25
-96 8 -224 19 -285 25 -60 6 -191 17 -290 25 -288 25 -512 45 -625 55 -58 5
-186 16 -285 25 -99 8 -229 19 -290 25 -125 11 -395 35 -565 50 -362 31 -476
41 -575 50 -60 6 -191 17 -290 25 -322 28 -518 45 -625 55 -58 5 -186 17 -285
25 -99 9 -225 20 -280 25 -55 5 -130 12 -166 15 l-66 6 -6 277 c-6 292 -14
361 -72 612 -125 541 -442 1076 -859 1450 -438 392 -951 635 -1513 716 l-123
18 0 33 c0 18 4 76 10 130 5 54 21 231 35 393 14 162 32 367 40 455 8 88 21
241 30 340 8 99 19 230 25 290 6 61 17 187 25 280 33 384 46 535 55 635 5 58
16 186 25 285 8 99 20 230 25 290 6 61 15 160 20 220 6 61 17 187 25 280 48
566 60 709 80 925 8 91 21 246 30 345 14 169 20 237 45 510 9 102 17 193 55
640 8 94 17 196 20 228 5 47 3 57 -9 57 -9 0 -18 -10 -20 -22z m-496 -6413
c251 -30 532 -100 715 -179 17 -7 46 -19 65 -26 63 -24 278 -138 376 -200 179
-112 325 -230 490 -394 323 -324 529 -656 678 -1096 148 -438 177 -950 81
-1423 -52 -252 -124 -457 -251 -705 -246 -481 -617 -869 -1092 -1143 -101 -58
-243 -128 -322 -159 -30 -11 -64 -25 -75 -30 -11 -5 -54 -20 -95 -34 -513
-170 -1076 -188 -1595 -51 -975 257 -1750 1050 -1985 2030 -161 672 -67 1391
261 1980 138 248 279 435 479 635 445 446 1005 718 1630 794 158 19 485 19
640 1z"/>
</g>
</svg>
