<?xml version="1.0" encoding="utf-8"?>
<!-- Generator: Adobe Illustrator 23.0.3, SVG Export Plug-In . SVG Version: 6.00 Build 0)  -->
<svg version="1.1" id="Calque_1" xmlns="http://www.w3.org/2000/svg" xmlns:xlink="http://www.w3.org/1999/xlink" x="0px" y="0px"
	 viewBox="0 0 1010 1010" style="enable-background:new 0 0 1010 1010;" xml:space="preserve">
<style type="text/css">
	.st0{fill:#51048B;}
</style>
<path class="st0" d="M543,1006h-78c-1.3-0.4-2.6-1.1-4-1.3c-8.9-1-17.8-1.7-26.6-3c-28.7-4.3-57-10.3-84.3-20.1
	c-21-7.6-41.9-15.8-62.3-24.9c-12.8-5.7-24.6-13.4-36.8-20.4c-8.6-5-17.4-9.7-25.4-15.6c-15.8-11.5-31.1-23.5-46.4-35.5
	c-4.7-3.7-8.9-7.9-13.5-12.1l69.7-17l-3.8-14c-1.2,0-2-0.2-2.8,0c-11.3,3.4-22.9,4.4-34.6,4c-10.7-0.3-21-2.6-29.5-9.9
	c-11.8-10.2-16.2-24.3-18.1-38.6c-2.2-17-3.1-34.5-2.1-51.7c1.6-28.3,5.3-56.5,7.8-84.8c0.3-3.6,1.5-5.2,4.9-6.1l53.5-14.2
	l95.9-25.8c4.8-1.3,10.3-4.4,14.3-3.1c3.8,1.2,6.2,7.1,9.2,11c0.5,0.6,1.2,1.2,1.7,1.9l48.8,70.1c13.6,19.9,29.4,38.4,39.6,60.6
	c4.6,10,3.3,23.3-6.8,30.5c-10.3,7.4-21.8,12.1-33.7,15.8c-1.4,0.4-3.6,2.4-3.5,3.3c0.7,4,2,7.9,3.3,12.4
	c77.3-23.9,155-44.6,233.7-62.5l-3.7-12.8c-7.9-1.3-14.6-1.9-21-3.6c-16.4-4.6-27.8-16.4-37.7-29.2c-17.6-22.9-34.3-46.5-51.3-69.7
	l-34-46.4l-29.3-40.9l-41.4-56.2l-40.4-55.3l-40.1-54.5l-41.5-57.1l-43-58.2c-7.6,2.5-15.5,5.4-23.6,7.6c-7.8,2.2-15.7,3.9-23.7,5.3
	c-5,0.9-6.1,3.6-6.5,8.1l-7.4,69l-8.5,75.7l-7.4,68.8l-6.7,58.9l-8.9,79.2l-7.5,70.8l-9.8,87.1c-0.7,5.8-2.1,11.5-3.4,18.5
	c-1.9-2-3-3-3.7-4.1c-12.5-18.3-25.7-36.2-37.4-55.1c-8.8-14.3-16-29.7-23.4-44.9c-4.3-8.8-7.8-18-11.4-27.1
	c-3.8-9.7-8.2-19.4-10.9-29.4c-6.4-23.5-14-46.7-17.2-70.9l-4.3-31.3L5.9,543v-78c0.4-1.5,1-3,1.3-4.5c2.3-16.5,3.8-33.1,7.1-49.4
	c3.9-18.9,8.6-37.8,14.5-56.1c6.3-19.2,14-38,22-56.6c6.4-14.7,13.8-28.9,21.4-43c4.5-8.4,10-16.3,15.6-24.2
	c10.6-15.1,20.8-30.7,32.6-44.8c19-22.8,39.4-44.5,62.9-63c14-11,27.9-22.3,42.6-32.3c15.3-10.3,31.2-19.8,47.4-28.5
	c13.3-7.1,27.3-12.9,41.2-18.8c11.8-5,23.6-10.1,35.9-13.6c20.1-5.8,40.4-10.8,60.8-15.2c14.1-3.1,28.6-4.6,42.9-6.8L469,6h77
	c0.8,0.4,1.7,1,2.5,1.1c23,3.7,46.1,6.7,68.9,11.1c14.5,2.8,29,6.7,43,11.7c20.6,7.4,40.9,15.8,60.9,24.5
	c12.2,5.3,24,11.7,35.7,18.2c8.3,4.6,16.4,10,24.1,15.5c15.8,11.2,31.9,22,46.7,34.4c21.9,18.3,42.6,37.9,60.4,60.5
	c10.4,13.2,21.1,26.2,30.8,39.9c14.8,21.1,27.5,43.5,38.5,66.9c4.9,10.5,9.2,21.4,13.6,32.2c3.7,9.3,8.1,18.4,10.6,28
	c6.6,24.5,14.5,48.6,17.9,73.9l4.1,30.3l2.2,14.8v78c-0.4,1.2-1.1,2.3-1.2,3.5c-3.6,22.1-6.1,44.4-10.9,66.2
	c-4.4,20-10.4,39.6-17,59c-5.2,15.2-12,30-18.8,44.6c-5.6,12.3-11.6,24.6-18.4,36.3s-14.3,23-22.1,34.1c-8.4,12-17,24.1-26.4,35.3
	c-19.4,23-40,44.9-63.7,63.7c-13.6,10.8-27,22-41.6,31.3c-19.4,12.4-39.6,23.5-59.9,34.3c-11.7,6.2-24.2,10.9-36.4,16
	c-9.2,3.8-18.4,8.1-28,10.6c-24.2,6.4-48.5,12.1-72.9,17.5c-9.9,2.2-20.2,2.9-30.3,4.4C553.2,1004.4,548.1,1005.2,543,1006L543,1006
	z M631.5,445.4c-5-1-9-2.6-12.9-2.4c-5.4,0.3-10.8,1.7-16.1,3.1c-13.8,3.5-24.7,18.9-26.3,32.5c-1.8,14.8,1.4,28.9,7.6,42.2
	c3.9,8.6,9.1,16.4,17.5,21.7c8.7,5.4,17.8,6.5,27.6,4.4c7.8-1.7,14.8-4.4,18.6-12.1l5.1-10.4l4.5,14.7l40.6-10.9
	c-2.3-1.5-3.3-2.8-4.4-2.9c-9.4-0.6-11.7-2.1-14.1-11l-28.1-105l-7.8-28.7l-40,13.1c2.1,0.6,3.4,1.4,4.6,1.3c5.3-0.4,9,1.9,10.9,6.7
	c1.9,4.7,3.6,9.5,5,14.4L631.5,445.4L631.5,445.4z M443.7,489.2v1.9c11.6-1.7,15.2,5.8,17.5,14.5l14.3,52.9c1.4,4.9,3.3,10.1,6.5,14
	c6,7.6,14.2,9.3,24,7.2c13.1-2.9,23.1-8.8,27.9-21.9c0.3-0.8,1.5-1.3,2.8-2.4l4.1,14.9l37.3-10.2c0.7-0.2,1.2-1.2,1.8-1.8
	c-0.9-0.6-1.7-1.7-2.6-1.8c-9.5-0.7-11.9-2.7-14.3-11.6l-18.9-70.3l-3.8-13.7c-5,1.9-9.4,3.9-13.9,5.3c-7.1,2.2-14.4,4-21.6,6
	c-1.2,0.3-2.1,1.4-4.3,2.9c11.9,0,15.5,2.9,18.4,13.5l13.6,50.5c2.3,8.1,1.3,15.2-3.3,22.1c-3.8,5.7-9.8,7.6-15.9,7.2
	c-6-0.4-7.7-6-9.1-11l-21.5-80.5L443.7,489.2L443.7,489.2z M851.9,453.9c-0.6-14.2-2.8-24.9-11.1-39.9
	c-6.8-12.3-17.3-19.2-31.3-20.5c-9.3-0.8-18.3,1.2-27.3,4.1c-14.2,4.6-27.5,18.2-29.3,32.9c-2.3,18.2,2.5,34.7,11.5,50.1
	c5.7,9.8,14.5,15.8,26,17.7c10.5,1.7,20.4,0.2,30.5-3.1C840.1,489,852.8,473.4,851.9,453.9L851.9,453.9z M704.3,525
	c0.4,0.3,0.7,0.6,1.1,1l49.5-13.2c0.8-0.2,1.2-1.5,1.8-2.3c-1.1-0.5-2.2-1.4-3.3-1.4c-8.1,0.3-11.1-1.7-13.1-9.4L717.4,414
	l-40.5,12.6c2.4,1.2,3.7,2.4,4.8,2.2c8.1-1.5,11,2.8,13.2,10.2c6.8,22.9,12.7,46.1,18.8,69.2c1.8,6.7-0.3,9.8-6.8,13.3
	C705.7,522.1,705.2,523.8,704.3,525L704.3,525z M692,399.4c2.6-0.7,6.6-1.5,10.4-3c4.7-1.8,9.2-8.9,8.8-13.3
	c-0.6-7.5-4.5-12.4-11-14.1c-5.1-1.3-9.8-0.3-14.6,1.8c-6.2,2.8-10.9,9.1-9.9,14.8C677.3,395.4,682.6,398.5,692,399.4L692,399.4z"/>
<path class="st0" d="M179.8,409.5l132.9,188.6l-29.3,7.9l-120.9,32.5c-1.1,0.3-2.3,0.4-3.4,0.8c-3.3,1.2-4.2-0.2-3.9-3.4l4.1-39.9
	l5.7-54.1l8.9-83.3l4.5-42.8C178.5,414.2,179.1,412.6,179.8,409.5L179.8,409.5z M602,471.6c0.8-4.7,1.1-9,2.3-13.1
	c3-10.6,16.6-14.6,23.7-11c2.5,1.3,5,4,5.7,6.6l16,59.6c3.1,12.7-4.3,22.7-17.7,23.1c-3,0.1-7-2-8.9-4.4c-4.3-5.3-8.2-11.2-11-17.4
	c-2.9-6.4-4.9-13.3-6.4-20.2C604,487.1,603.2,479.1,602,471.6L602,471.6z M777.6,419.4c1.3-5,1.7-10.7,4.2-15.3
	c4.6-8.6,17.1-8,23.1,1.4c4.7,7.4,8.6,15.6,11.6,23.8c3.1,8.4,5.2,17.3,7.1,26.1c2.2,10.1,3.4,20.3-0.2,30.5
	c-2.8,7.9-12.9,11.5-20,5.7c-5.2-4.3-8.6-9.8-11.4-15.8c-5.7-12.5-10.1-25.4-11.7-39.1C779.8,431.1,778.6,425.5,777.6,419.4
	L777.6,419.4z"/>
</svg>
