<svg xmlns="http://www.w3.org/2000/svg" baseProfile="tiny" viewBox="0 0 1010 1010"><path fill="#93ca63" d="M1006 469v78c-.4 1-1.2 2-1.3 3-2.3 26.6-6.8 52.8-13.4 78.8-8.5 33.5-20.2 65.7-35.4 96.6-6.1 12.4-12.6 24.6-20 36.2-11.9 18.6-24 37.2-37.4 54.8-20.3 26.7-43.8 50.5-69.6 72.1-21.1 17.8-43.3 34-67.2 47.7-14.9 8.5-30.3 16.2-45.8 23.8-8.8 4.3-18 7.7-27.1 11.4s-18.1 7.9-27.6 10.4c-24.1 6.5-48 14.3-72.8 17.7l-30.3 4.2-15.2 2.3h-78l-27.5-4.3c-17.1-3-34.2-5.8-51.1-9.7-21.6-4.9-42.8-11.6-63.3-20.1-11.8-4.9-23.7-9.4-35.2-14.8-10.6-5-20.7-10.9-30.9-16.6-5.4-3-10.5-6.6-16.3-10.4 58.6-18.4 117.8-31.7 177.1-46.4l-3.8-14c-8.4 1.4-16.3 3-24.3 3.9-11.3 1.1-22.3.5-30.9-8.4-7.7-7.9-11.6-18.1-14.4-28.2l-37.8-140.5-24.2-90.5-35.2-131a1903.18 1903.18 0 0 1-16.5-66.6c-1.6-7.1-1.9-14.7-1.3-22 .7-7.9 4.9-14.9 12.1-18.7 10.8-5.8 22-10.8 33.5-16.4l-3.5-13C192.9 361.9 114 383.1 34.1 402l3.5 13.5c11-1.2 21.4-3.1 31.9-3.4 17-.6 25.4 6.1 31.2 18.7 5.2 11.5 9.4 23.5 12.7 35.7l99.2 370.2c4.6 17.3 10.4 34.4 11 52.5.3 7.9-.5 15.7-6.1 22.1-.8 1-3.6 1.6-4.4 1-8.8-6.4-17.6-12.8-26-19.8-8-6.7-15.5-14.2-23.3-21.2-19-17.1-36.3-35.9-51.8-56.1-13-16.8-24.8-34.7-35.9-52.8-9.1-14.9-16.5-30.8-24.2-46.6-4.2-8.6-7.7-17.7-11.2-26.6-3.8-9.6-8.1-19-10.8-28.9-6.5-23.8-14.1-47.2-17.4-71.8l-4.3-30.7L6 543v-78c.3-.3.8-.6.9-1 3.8-23.4 6.3-47 11.5-70 5-21.9 12.2-43.4 19.5-64.7 4.6-13.3 10.7-26.2 16.7-39 5.7-12.1 11.8-24 18.2-35.7 4.6-8.2 9.8-16 15.2-23.7 10.7-15.1 20.9-30.6 32.6-44.7 19-22.8 39.3-44.4 62.8-62.8 14-11 27.8-22.3 42.5-32.3 15.4-10.4 31.4-19.9 47.7-28.7 13.2-7.1 27.2-12.8 41.1-18.6 11.8-4.9 23.6-10.1 35.8-13.6 24-6.7 47.9-14.3 72.8-17.7l30.2-4.2 15.3-2.2h77c2.1.7 4.1 1.7 6.3 1.9 8.8.9 17.7 1.1 26.4 2.5 13.2 2.1 26.4 4.6 39.4 7.7 14.4 3.5 28.7 7.3 42.7 11.9s27.7 10.2 41.3 15.9c12 5 23.9 10.4 35.6 16.2 8.2 4.1 15.9 9 23.6 13.9 15.1 9.5 30.7 18.3 44.8 29 30.3 22.9 58.5 48.3 82.3 78.1 10.4 12.9 20.9 25.8 30.4 39.4 14.8 21.2 27.7 43.6 38.6 67 4.9 10.5 9.3 21.3 13.6 32.1 3.9 9.7 8.1 19.3 10.9 29.3 6.7 24.2 14.3 48.3 17.8 73.3l4 29.8c1 5 1.8 9.9 2.5 14.9zm-564.8 89.3c-.7-.1-1.3-.3-1.7-.2-8.6 3.2-15.6-2.2-17.8-11l-21.9-82.3c-3.6-13.3-.6-25 10.2-33.5 9.1-7.2 21.4-9.1 27.5 4.6 2.6 5.8 4.2 12.2 5.8 18.4l21.7 80.9c2.7 10.2.4 14.9-8.5 18.7-.3.1-.4.5-.7 1.1l1.4 3.5 68.8-18.4-1.1-4.6c-13.9 4-19.2-3.7-22.1-14.1l-25.5-90.5c-4.3-14.3-13.2-21.6-27.9-22.2-8.6-.3-17.1 1.7-25.4 5.2-14.4 6.1-24 15.7-27.9 30.9-.3 1.1-1.3 2-1.9 3-1-.9-2.3-1.7-3-2.9-3.6-5.4-7.8-10-14.1-12.3-19.4-7-53.7 4.9-60.4 30.5-.4 1.5-1.5 2.7-2.9 5l-6.2-22.3c-17.1 6.9-33.6 14.4-51.9 16.4-1 .1-1.9 2-2.8 3 1.2.6 2.4 1.7 3.7 1.8 7.7.3 13.1.1 17.2 10.9 3.5 9.2 6 18.9 8.6 28.5l19.1 71.7c3.1 12.5-.3 16.5-9.9 19.3-4.2 1.3-2.6 3.7-1.6 5.6l69.1-18.5c-.4-1.3-.8-3-1.3-4.8-5 1.9-9.5 1.5-12.3-2.3-2.5-3.3-4.4-7.4-5.5-11.4l-20.9-77.5c-4.2-14.7.4-36.8 20.4-40.8 4.7-1 10.1 0 12.4 4.4 3.2 6.2 6.3 12.7 8.1 19.4l22.9 88.5c2.1 8.5-.4 12.4-9.1 15.7l1.1 4.5 67.6-18.1c-.4-1.1-.8-2.5-1.3-3.8zm276.4-66.9c.2.5.5.9.7 1.4-1.5 1.4-3 2.8-4.6 4L692.4 512c-7.7 5.7-9.2 12.5-4.4 20.4 3.3 5.3 9.2 6.5 14.8 7.6 14.4 2.9 28.6-.1 42.6-3.1 15.7-3.4 30.7-9 43.8-18.8 13.9-10.3 24.4-22.9 27-40.5.8-5.6.7-11.4.6-17.1-.1-7.7-9.8-20.3-16.9-22.6-8.6-2.7-17.4-2.6-26-.4l-67.5 17.9c-5.8 1.6-9.9-.9-11.8-6.5-2.2-6.4 1.9-10.5 4.8-14.9 2.8-4.3 6.5-7.3 12.6-7.3 5.7 0 11.4-1.9 17-3.4s11.1-3.2 16.5-5.3c11.4-4.5 21.3-11.2 27.8-22 7.7-12.7 6.3-25.9 1.1-38.9-3.1-7.8-8.7-14.3-16.2-17.5-8.3-3.6-17.5-5.1-27.4-7.8-1.4-5.5-3.9-12.7-1-20.9l3.4 2.1c2.5 2 4.8 4.7 7.6 5.9 6.9 2.9 13.8 1.4 19.9-2.3 5.1-3.1 8.5-8.2 8.4-14.4-.2-5.7-3-10.2-8.5-13-9.1-4.7-17.4-2.4-25.2 2.7-7.1 4.6-10.2 11.7-10 19.9.2 7.3 1.1 14.6 1.7 22-4.3.6-9.1.8-13.7 1.8-15.4 3.6-29.9 9.1-42 20-11.4 10.2-16.3 27-11.3 41.4 4.9 14.2 14 24.2 28.8 28.3 3.4.9 6.9 1.3 10.4 1.9.5.7 1 1.5 1.5 2.2-1.4.6-3.1.8-4 1.8-4.9 4.9-9.8 9.8-14.2 15.1-9 10.7-9.1 22.7-3.9 34.9 2.1 5 6.1 9.3 11.6 10.6 7.7 1.9 15.6 2.3 23.5-.1 1.1-.3 2.5-.2 3.8-.3zM608.4 499c1.4 2.5 2.4 4.7 3.8 6.6 4.6 6.7 11.7 9.1 19 7.9 12.7-2.1 25.3-5.4 34.2-16 2-2.4 2.5-4.1-.7-5.9-1.9 1.6-3.7 3.3-5.6 4.8-3.3 2.6-7.6 2.2-9.5-1.1-1.5-2.7-2.8-5.5-3.6-8.5-2.5-8.5-4.6-17-7-25.5l-19.6-68.8c-2.7-8.9-9.6-14.3-18.1-17.6-11.8-4.6-23.7-2.2-35.4.2-5.8 1.2-11.5 3.3-16.9 5.7-12 5.2-23.3 11.5-30.3 23.3-5.4 9.1-5 19.2 1.3 27.3 6 7.7 13.5 8.8 22.6 5.9 8.1-2.6 14.2-9.5 14.8-17.8.6-8.8-5.1-20.4-17.2-22.6-1.3-.2-2.5-1.3-3.8-2 .8-1.3 1.2-3.3 2.4-3.9 5.1-2.8 10.2-6 15.8-7.7 12.7-3.8 22.9 3.6 26.3 15.8l6.4 23.6c1.6 5.6.7 10.8-3.5 14.5-8.1 7.2-16.9 13.6-25 20.8-8.1 7.1-16.8 14-23.4 22.4-9.5 12-6.2 28.1.6 39.1 2 3.2 5 6.7 8.3 8.1 5.9 2.5 12 5.1 19 3.9 12.8-2.1 24.9-5.6 33.6-15.9 4.3-4.9 7.5-10.6 11.5-16.6zm318.9-156.7c-3.4-8.1-5.8-15.8-9.6-22.7-9.1-16.7-22.9-26.4-42.8-25.4-8.8.4-17.1 2.2-25.3 5.7-13.6 5.8-24.9 14.3-32.1 27.3-9.4 17.2-10.2 35.7-6.1 54.5 1.8 8.5 4.6 16.9 7.8 25.1 5.9 14.9 15.3 27.3 29.3 35.3 15 8.6 31.6 7.8 47.5 3.8 11.7-2.9 21.9-9.7 29.3-19.8 8-10.9 12.2-23.1 12.1-37.2-1.9.7-3.8 1.6-4.4 3-3 7.9-7.3 14.7-13.7 20.3-16.1 14-38.7 11.5-51.9-5.1-10.3-12.9-13.5-28.2-17.5-43.9l77.4-20.9z"/><path d="M720 504.2l.7-5.6c1-6.7 4-10.5 11.4-12 14-2.9 27.6-7.2 41.5-10.8 14.6-3.8 18 3.5 18.7 15.7 1 17.1-12.4 29-25.8 34.9-8.6 3.8-17.3 5.2-26.4 4.2-16.4-2-19.6-14.7-20.1-26.4zm21.6-104c-.1 8.3-2.6 15.3-10.7 18.7-9.3 3.9-17.6-1.4-21.6-9.2-4.4-8.4-7.8-17.5-10.1-26.6-2.1-8.5-3.1-17.6-3-26.4.1-11.7 11.1-18.9 22-14.9 6.8 2.5 10.4 8.7 12.7 14.9 3.4 9 6 18.2 8.4 27.5 1.3 5.2 1.6 10.7 2.3 16z" fill="#94ca65"/><path d="M590.6 435.9l3.9 13.7 10.5 40.5c.5 2-.9 4.5-1.9 6.6-4.8 10.3-15.7 14.1-25.8 10-3.9-1.6-7-7-8.7-11.3-7.1-17.9-1.7-32.9 11.5-46.1 3.8-4 6.8-8.7 10.5-13.4zm302.1-88.4l-44 11.8c-4-15.6-6.3-30.8-1.4-46 2-6 6.6-10.7 13-11.8 6.9-1.2 12.3 2.6 15.5 8.3 4.1 7.2 7.6 14.8 11 22.3 2.2 4.7 3.8 9.7 5.9 15.4z" fill="#94cb65"/></svg>