<svg xmlns="http://www.w3.org/2000/svg" baseProfile="tiny" viewBox="0 0 4063 4063"><path d="M2054.7 58c24 0 48-.8 72 .2 29.9 1.2 59.8 4 89.7 5.9 28.6 1.8 57 5.2 85.5 8.6 57.6 6.8 114.7 16.6 171.4 28.8 105.8 22.8 208.9 54.6 309 95.6 110.7 45.3 216.3 100.5 317 165.2 82.7 53 161 111.7 235.7 175.3 55.8 47.6 109.4 97.7 159.6 151.2 98.5 104.8 185.1 218.7 258 342.8 60.9 103.8 111.4 212.4 152 325.6 40.9 113.8 71.3 230.4 92.5 349.4 7.8 43.9 13.7 88.2 18.1 132.6 4.5 45.1 7.6 90.2 8.6 135.6.5 19.3 2.8 38.6 2 57.9l-6.1 139.7c-3.9 53.9-10 107.5-17.8 160.8-9.9 67.9-23.6 135.2-40.4 201.8-39.2 155.9-96.8 304.8-173.3 446.2-56.3 104-122.1 201.8-196.6 293.8-61.3 75.8-127.6 146.9-198.6 213.7-111.7 105-233.5 196.5-366.6 272.7a1908.43 1908.43 0 0 1-300.9 139.2c-107.4 38.9-217.5 68-329.7 88.8-51.1 9.5-102.5 16.9-154.3 21.9-35.8 3.5-71.7 5.8-107.6 8.2-40 2.7-79.9 2.7-119.9 2.3a1316.77 1316.77 0 0 1-115.7-6.3l-95.4-9.4c-36.3-4.6-72.6-10.1-108.7-16.3-99.3-17.2-196.8-41.9-292.4-74-99.4-33.4-195.5-74.6-288-124.2-111.9-60-217.3-130-315.7-210.4-70.3-57.4-137-118.7-199.6-184.4-58.5-61.4-111.8-127.1-161.8-195.6-28.7-39.3-55.5-79.9-82.7-120.3-20.2-30-25.8-62.4-19.2-97.3l50-263.2c.7-3.9 1.8-7.8 3.1-11.5 2.2-6 6.7-10 12.7-11.8 3.8-1.1 7.8-2 11.7-2.4 55.1-5.9 109-18.3 163.5-27.6l246.2-42.6 183-32.9c3.9-.7 7.9-1.6 11.8-2 10.7-1.1 19.9 2.5 26.5 10.9 4.5 5.7 8.2 12.1 11.9 18.4l268.5 463.8c11.9 20.9 21.5 42.9 30.4 65.2 4.5 11.1 7.7 22.7 9.4 34.6 4.8 34-6.3 61.6-32.9 83-9.4 7.5-19.8 13.5-30.8 18.4-33.6 14.9-68.3 26.6-104.2 34.5-3.2.7-6.6 1.2-9.7 2.2-8.5 3-11.5 7.8-10.5 16.8l3.3 25.7c2 15 8.6 19.8 23.4 15.4 46.1-13.5 93.3-22.2 140.4-31.6 118.3-23.5 236.8-45.9 355.9-65.2l238.7-38.8c34.9-5.5 70-9.4 105-14.3a372.61 372.61 0 0 0 29.5-5.4c6.1-1.4 9.4-5.5 8.8-11.7-1.2-11.9-3-23.7-5.3-35.5-.9-4.8-5.2-7.7-10-8.8-3.2-.7-6.6-.9-9.9-1.3-48.9-6-89.8-28-125.2-61.5-29.2-27.7-53.2-59.7-74.1-94L1349 2174.2l-221.3-366.3-299.2-494.5c-5.2-8.6-10.8-16.8-16-25.3-5.3-8.6-12.8-10.9-22.3-8.6l-37 8.7c-43.5 10.1-87.6 16.9-132 22.2-2.6.3-5.3.4-7.9.9-7.9 1.5-13.2 5.7-15 14l-6.8 31.2-49.7 246.9-79.6 400-69.3 342.9-109 545-6.6 31.2c-.8 3.6-5.9 4.6-7.9 1.7-2.6-3.9-5.1-7.8-7.1-12-31.4-64.1-59.6-129.6-84-196.7-37.9-104.2-66.5-211-87.2-319.8-10-52.4-17.8-105.1-23-158.2-3.8-39.1-6.3-78.3-8.4-117.6-1.4-28-2.5-55.9-1.8-83.9.9-39.9 2.4-79.9 5.8-119.7s7.5-79.6 12.6-119.2c8.8-68.8 21.1-137 36.2-204.6 16.1-72.3 36-143.5 59.9-213.6 35-102.4 77.8-201.4 129.6-296.4 25.6-46.9 52.8-92.7 82.3-137.1C420.4 890.9 459.1 838.3 501 788c47.8-57.4 98.1-112.6 152.3-164 46.4-44.1 94.5-86.3 144.6-126.2s101.9-77.5 155-113.1C1104.6 283.8 1265.5 201.4 1440 147c95.6-29.8 192.9-52.3 292.1-66.4 48.8-6.9 97.8-12.1 146.9-16.4 29.2-2.6 58.5-3 87.8-5.3 29.2-2.3 58.6-1.4 87.9-1.9v1zm504 2076.3c.3 14.4-2.2 27.5-7.7 39.8-11.4 25.8-30.1 43.8-58.1 50.3-21.7 5.1-41.8-5.3-50.5-25.8-2.3-5.5-4-11.3-5.3-17.1-4-17.5-8.3-35-11.5-52.7l-49.3-277.3c-1.2-6.5-2.7-13-4.7-19.4-.8-2.5-3.5-4.3-6.4-3.8-4.5.9-9.1 2.1-13.4 3.7-20.1 7.2-40.7 12.5-61.5 17.5-25.3 6.1-51 9.8-76.7 13.4-3.4.5-6.7 1-7.7 4.9-.8 3.1 2.9 7.6 7 8.5 1.9.4 3.9.8 5.9.8 22.2.6 35.1 13.7 43.6 32.7 5.4 12.3 8.9 25.1 11.3 38.2l21.2 120 24 125.6c2.7 13.9 7.7 26.9 15.2 38.9 14.1 22.3 34.3 35.2 60.8 36.4 15.3.7 30.7.8 45.9-.6 50.3-4.7 90-26.9 114.9-72.3 1-1.8 1.8-3.6 3-5.2 1.8-2.6 3.2-6.3 7.4-5.1 3.8 1.1 4.1 4.9 4.7 8.1l4.3 23.6c1.2 5.9 2.5 11.7 4.2 17.4 1.1 3.7 4.1 5 7.8 4.5 1.9-.3 3.8-1.1 5.7-1.8 44.8-15.6 90.3-28.1 137.8-32.1 3.2-.3 6.5-1.3 9.5-2.7 2.6-1.1 3.8-3.8 3.8-6.5 0-2.8-1.4-5-3.7-6.7-4.1-2.8-8.9-2.5-13.5-2.5-15.1.1-24.9-8.1-32.2-20.2-6.2-10.4-10.2-21.6-13.2-33.3-4.6-18.1-6.7-36.7-9.9-55l-48.1-273.4c-3.8-21.4-1.2-25.5-27.7-16.1-36.5 12.8-74 22.2-112.5 26.9l-21.8 2.9c-3.5.5-6.4 2-7.1 5.8-.9 4.4 2.6 9.8 7 10.7 2.6.5 5.3.1 7.9.5 5.2.8 10.6 1.2 15.6 2.9 10 3.5 16.1 11.3 20.9 20.4 8.5 16.2 12.5 33.7 15.7 51.4l33.4 188.8c2.1 12 4.7 23.8 4 35zm944.8-720.7c-3.7 1.2-9.4 2.8-15 4.8-35.3 12.2-71.3 21.7-108.6 25.8-8.6.9-17.2 2.3-25.6 4.1-4.2.9-6.5 4.3-6.6 8.9-.1 3.9 2.8 6.8 7.8 7.5 2 .3 4 .3 6 .4 21.4.6 34.7 12.2 41.3 31.7 4.5 13.2 8.4 26.7 11.1 40.4 6 30 11 60.2 16.4 90.4l59.4 336.2c3.6 20.4 6.1 40.8 5.5 61.5-.4 14.9-6.5 25.5-19.9 31.8-3.6 1.7-7.5 2.8-11 4.8-2.8 1.6-5.4 3.8-7.5 6.2-1.8 2.1-1.8 4.9-.7 7.6 1.2 2.9 3.7 3.6 6.5 3.3 2-.3 3.9-.8 5.9-1.2 64.6-13.2 129-27.2 194.8-33.1 1.3-.1 2.6-.3 3.9-.7 5.3-1.3 8.9-5.5 8.2-9.7-.8-4.7-4.2-6.7-8.3-7.2-4.6-.6-9.3-.7-13.9-1-18.9-1.1-30.8-11-36.2-29-1.1-3.8-2.3-7.7-3-11.6l-16.9-92.3-23.4-135.8-20-106-37.1-218.5c-.9-5.2-2.6-10.3-4.4-15.3-1.1-2.5-3.5-3.9-8.7-4zm-553.8 312.6c-22.8-.6-45.1 2.2-67 9.1-52.3 16.5-91.5 48-113.8 98.9-9.4 21.5-15.3 44.2-17.2 67.5-5.4 67.3 6 131.5 39.8 190.6 24 42 59.4 69.2 106.8 80.7 23 5.6 46.3 6.3 69.5 3.8 84.5-9.2 134.8-62.2 151.7-134.6 1.2-5.1 1.2-10.5 1.3-15.8 0-2.7-1.7-5.2-4.5-5.9-2.7-.7-5.5.3-7.1 2.5-2.3 3.2-4.4 6.7-6.2 10.2-5.2 10.1-12 19.2-19.1 28-16.9 21.1-38.7 34.5-65.2 39.6-32 6.1-60.6-.4-84.9-23.6-18.7-17.9-32.1-38.8-41.2-62.9-8.7-23.2-13.4-47.4-17.9-71.6-3.2-17.4-.4-21.4 16.5-25.1 1.3-.3 2.6-.4 3.9-.7l180.9-32.2c5.9-1.1 11.7-2.4 17.4-4.3 4.9-1.6 7.3-5.7 6.9-10.9-.3-3.3-.9-6.6-1.9-9.7-5.8-17.7-10.5-35.9-18-52.9-16.1-36.9-41.5-64.7-81.4-77-16.1-5.2-32.7-3.9-49.3-3.7zm-1102.6 369.9c-1.3 14.6 1.2 31.1 4 47.5 6.1 34.9 15.3 69 32.3 100.3 28.5 52.5 71.7 84.3 131.1 94.6 24.3 4.2 47.9 1.7 71.4-3.1 27-5.6 52.3-15.9 73.9-33.6 36-29.6 52.4-69.5 59.2-114.3.6-3.7-.7-6.8-4.5-7.7-3.5-.9-6.8.5-8.6 3.6-2.7 4.5-4.8 9.5-7.5 14.1-17.9 31.7-44.2 53.2-79.5 62.3-32.4 8.3-62 2.2-87.3-20.9-19.2-17.4-32.6-38.5-42-62.4-11-28.2-16.7-57.5-19.8-87.4-2-19.2-5-38.3-4.2-57.7 1.3-29.7 7.7-58.1 20.3-84.9 12.3-26.1 33.7-40.6 62.2-44.3 12.9-1.7 25.2.9 36.6 7.4 4 2.3 5 7 1.8 10.1-4.2 4.2-8.7 8.3-13.3 12-26.7 21.1-23.1 72.4-4.2 90.8 6.8 6.6 14.2 11.8 23.3 14.8 21.1 6.9 40.9 3.7 59.5-7.3 19.3-11.4 29.9-28.7 29.5-51.1-.7-37.2-17.9-64.8-51.4-81.5-14.5-7.2-30.2-9.6-46.2-11.7-45-5.7-87.8 1.5-128.2 21.2-45.5 22.1-79.4 55.7-95.6 104.8-9 26.5-13.7 54-12.8 84.4zm-286.3 21c-1-24.2 2.3-47.9 8.8-71.1 5.3-18.8 13.4-36.1 27.4-50.4 18.8-19.2 41.6-25.6 67.6-21.7 7 1.1 16 1.6 18.2 9.8 1.7 6.4-5.9 9.7-9.7 14-.4.5-.9 1-1.4 1.4-20.3 17.6-24.8 40.4-20 65.4 4.2 22.1 17.3 37.7 39.2 43.5 14.9 4 30.4 3 45.3-2.4 24.2-8.8 40-30.5 40.9-56.2 1.2-33.7-21.3-68.1-53.9-81.7-19.2-8-39.3-12.4-60.2-12.9-33-.8-65 5.1-96 16.3-55.6 20-92.7 58.4-111.8 114.3-7.8 22.9-12.1 46.3-12.4 70.5-.7 47.3 8.8 92.7 25.6 136.6 14.9 39.1 39.7 70.6 75.8 92.6 20.2 12.3 41.8 21 65.2 23.7 32.8 3.8 65.2 1.2 96.7-9.4 36.2-12.2 64.7-33.7 83.9-67 13.2-22.8 20-47.8 25-73.4.3-1.3.4-2.7.2-4-.4-2.9-2.3-4.8-4.9-5.7-2.8-1-5.6-.3-7.2 2-3 4.4-5.6 9-8.2 13.7-9.7 17.8-22.6 33.1-38.5 45.4-46.6 36-101.3 28.3-136.1-7-15.8-16-26.6-34.9-34.4-55.7-16.1-42-24.4-85.6-25.1-130.6zm1858.8-36.8c-.5-4.5-3.1-7.8-7.3-8.4-5.9-.9-11.9-.7-17.9-1-13.1-.8-23-7-28.3-19-3.5-7.8-6.1-16.2-7.9-24.6-4.8-22.1-9.4-44.3-13.3-66.6l-47.8-275.3c-3.1-18.1-5-19.6-21.9-13.6-32.2 11.3-65.1 19.2-98.8 24.1-13.8 2-27.5 4.8-41.3 7.4-3.4.6-6.4 2-6.7 6.1-.2 3.8 2.1 6.5 5.2 7.8 4.2 1.8 8.8 3.1 13.3 3.8 21.6 3.2 34.7 15.6 40.1 36.4 2.8 10.9 5.6 21.9 7.6 33l31.4 172.8 15 90.6c3.7 21.8-2.2 40.9-26.1 49.7-4.3 1.6-8.5 3.8-12.3 6.4-3.1 2-3.7 5.6-2.7 8.9 1 3.6 4 5.3 7.7 4.7l31.4-5.6c48.9-10.2 97.7-20.5 147.4-25.7 8.6-.9 17.1-2.3 25.7-3.9 4.4-.6 7.2-3.3 7.5-8zm-222.9-482.6h14c18.7-.6 34.9-8 49.1-19.8 8.3-6.9 14-15.7 17.5-26.2 6.9-20.4.5-38.1-10.2-54.8-10.3-16.1-25.6-24.8-44.8-26.3-16.9-1.4-33.1 1.9-48.9 7.6-31.8 11.4-46.2 34.3-42.7 68 3 29 25 49.9 54.1 51.6 3.9.1 7.9-.1 11.9-.1zM405.3 2623.6c.4-2.7 1-7.3 1.9-11.9l84-429.3 61.8-323.8 9-49.1c.7-3.9 1.6-7.8 2.6-11.7.8-3.1 1-7.1 5.4-7.2 3.8-.1 5.6 3.2 7.3 6l13.2 22.4 399.7 687.6c3 5.2 5.9 10.5 8.4 15.9 2.9 6.2.9 10.5-5.8 11.9-14.3 3-28.7 5.8-43.1 8.3l-427 74.9c-31.5 5.3-63.1 9.9-94.3 17.3-3.9.9-7.9 1.6-11.8 1.7-6.8.2-11.1-4.2-11.3-13zm2459.3-776c-.3-15.3.5-33.9 4.8-52.2 3.8-16.1 11.1-29.8 24.1-40.3 20.3-16.3 45.5-13.5 61.3 7.2 11 14.4 19.5 30.2 24.9 47.5 4.9 15.9 9.2 31.9 13.5 48 1 3.8 1.5 7.9 1.6 11.8.1 8.5-3.5 14-11.4 16.8-4.4 1.5-9 2.4-13.6 3.3l-66.7 11.9c-6.5 1.1-13.2 2.1-19.8 2.2-10.3.2-16.5-4.9-17.7-15.1-1.1-9.2-.8-18.6-1-27.9-.1-3.2 0-6.5 0-13.2z"/></svg>