<?xml version="1.0" encoding="utf-8"?>
<!-- Generator: Adobe Illustrator 23.0.3, SVG Export Plug-In . SVG Version: 6.00 Build 0)  -->
<svg version="1.1" id="Calque_1" xmlns="http://www.w3.org/2000/svg" xmlns:xlink="http://www.w3.org/1999/xlink" x="0px" y="0px"
	 viewBox="0 0 4063 4063" style="enable-background:new 0 0 4063 4063;" xml:space="preserve">
<style type="text/css">
	.st0{fill:#FFFFFF;}
</style>
<path class="st0" d="M2054.7,58c24,0,48-0.8,72,0.2c29.9,1.2,59.8,4,89.7,5.9c28.6,1.8,57,5.2,85.5,8.6
	c57.6,6.8,114.7,16.6,171.4,28.8c105.8,22.8,208.9,54.6,309,95.6c110.7,45.3,216.3,100.5,317,165.2c82.7,53,161,111.7,235.7,175.3
	c55.8,47.6,109.4,97.7,159.6,151.2c98.5,104.8,185.1,218.7,258,342.8c60.9,103.8,111.4,212.4,152,325.6
	c40.9,113.8,71.3,230.4,92.5,349.4c7.8,43.9,13.7,88.2,18.1,132.6c4.5,45.1,7.6,90.2,8.6,135.6c0.5,19.3,2.8,38.6,2,57.9l-6.1,139.7
	c-3.9,53.9-10,107.5-17.8,160.8c-9.9,67.9-23.6,135.2-40.4,201.8c-39.2,155.9-96.8,304.8-173.3,446.2
	c-56.3,104-122.1,201.8-196.6,293.8c-61.3,75.8-127.6,146.9-198.6,213.7c-111.7,105-233.5,196.5-366.6,272.7
	c-96.1,55-196.8,101.6-300.9,139.2c-107.4,38.9-217.5,68-329.7,88.8c-51.1,9.5-102.5,16.9-154.3,21.9c-35.8,3.5-71.7,5.8-107.6,8.2
	c-40,2.7-79.9,2.7-119.9,2.3c-38.6-0.4-77.2-2.5-115.7-6.3l-95.4-9.4c-36.3-4.6-72.6-10.1-108.7-16.3
	c-99.3-17.2-196.8-41.9-292.4-74c-99.4-33.4-195.5-74.6-288-124.2c-111.9-60-217.3-130-315.7-210.4
	c-70.3-57.4-137-118.7-199.6-184.4c-58.5-61.4-111.8-127.1-161.8-195.6c-28.7-39.3-55.5-79.9-82.7-120.3
	c-20.2-30-25.8-62.4-19.2-97.3l50-263.2c0.7-3.9,1.8-7.8,3.1-11.5c2.2-6,6.7-10,12.7-11.8c3.8-1.1,7.8-2,11.7-2.4
	c55.1-5.9,109-18.3,163.5-27.6l246.2-42.6l183-32.9c3.9-0.7,7.9-1.6,11.8-2c10.7-1.1,19.9,2.5,26.5,10.9c4.5,5.7,8.2,12.1,11.9,18.4
	l268.5,463.8c11.9,20.9,21.5,42.9,30.4,65.2c4.5,11.1,7.7,22.7,9.4,34.6c4.8,34-6.3,61.6-32.9,83c-9.4,7.5-19.8,13.5-30.8,18.4
	c-33.6,14.9-68.3,26.6-104.2,34.5c-3.2,0.7-6.6,1.2-9.7,2.2c-8.5,3-11.5,7.8-10.5,16.8l3.3,25.7c2,15,8.6,19.8,23.4,15.4
	c46.1-13.5,93.3-22.2,140.4-31.6c118.3-23.5,236.8-45.9,355.9-65.2l238.7-38.8c34.9-5.5,70-9.4,105-14.3c9.9-1.4,19.7-3.2,29.5-5.4
	c6.1-1.4,9.4-5.5,8.8-11.7c-1.2-11.9-3-23.7-5.3-35.5c-0.9-4.8-5.2-7.7-10-8.8c-3.2-0.7-6.6-0.9-9.9-1.3c-48.9-6-89.8-28-125.2-61.5
	c-29.2-27.7-53.2-59.7-74.1-94L1349,2174.2l-221.3-366.3l-299.2-494.5c-5.2-8.6-10.8-16.8-16-25.3c-5.3-8.6-12.8-10.9-22.3-8.6
	l-37,8.7c-43.5,10.1-87.6,16.9-132,22.2c-2.6,0.3-5.3,0.4-7.9,0.9c-7.9,1.5-13.2,5.7-15,14l-6.8,31.2l-49.7,246.9l-79.6,400
	l-69.3,342.9l-109,545l-6.6,31.2c-0.8,3.6-5.9,4.6-7.9,1.7c-2.6-3.9-5.1-7.8-7.1-12c-31.4-64.1-59.6-129.6-84-196.7
	c-37.9-104.2-66.5-211-87.2-319.8c-10-52.4-17.8-105.1-23-158.2c-3.8-39.1-6.3-78.3-8.4-117.6c-1.4-28-2.5-55.9-1.8-83.9
	c0.9-39.9,2.4-79.9,5.8-119.7c3.4-39.8,7.5-79.6,12.6-119.2c8.8-68.8,21.1-137,36.2-204.6c16.1-72.3,36-143.5,59.9-213.6
	c35-102.4,77.8-201.4,129.6-296.4c25.6-46.9,52.8-92.7,82.3-137.1C420.4,890.9,459.1,838.3,501,788c47.8-57.4,98.1-112.6,152.3-164
	c46.4-44.1,94.5-86.3,144.6-126.2s101.9-77.5,155-113.1C1104.6,283.8,1265.5,201.4,1440,147c95.6-29.8,192.9-52.3,292.1-66.4
	c48.8-6.9,97.8-12.1,146.9-16.4c29.2-2.6,58.5-3,87.8-5.3c29.2-2.3,58.6-1.4,87.9-1.9C2054.7,57,2054.7,58,2054.7,58z
	 M2558.7,2134.3c0.3,14.4-2.2,27.5-7.7,39.8c-11.4,25.8-30.1,43.8-58.1,50.3c-21.7,5.1-41.8-5.3-50.5-25.8c-2.3-5.5-4-11.3-5.3-17.1
	c-4-17.5-8.3-35-11.5-52.7l-49.3-277.3c-1.2-6.5-2.7-13-4.7-19.4c-0.8-2.5-3.5-4.3-6.4-3.8c-4.5,0.9-9.1,2.1-13.4,3.7
	c-20.1,7.2-40.7,12.5-61.5,17.5c-25.3,6.1-51,9.8-76.7,13.4c-3.4,0.5-6.7,1-7.7,4.9c-0.8,3.1,2.9,7.6,7,8.5c1.9,0.4,3.9,0.8,5.9,0.8
	c22.2,0.6,35.1,13.7,43.6,32.7c5.4,12.3,8.9,25.1,11.3,38.2l21.2,120l24,125.6c2.7,13.9,7.7,26.9,15.2,38.9
	c14.1,22.3,34.3,35.2,60.8,36.4c15.3,0.7,30.7,0.8,45.9-0.6c50.3-4.7,90-26.9,114.9-72.3c1-1.8,1.8-3.6,3-5.2
	c1.8-2.6,3.2-6.3,7.4-5.1c3.8,1.1,4.1,4.9,4.7,8.1l4.3,23.6c1.2,5.9,2.5,11.7,4.2,17.4c1.1,3.7,4.1,5,7.8,4.5
	c1.9-0.3,3.8-1.1,5.7-1.8c44.8-15.6,90.3-28.1,137.8-32.1c3.2-0.3,6.5-1.3,9.5-2.7c2.6-1.1,3.8-3.8,3.8-6.5c0-2.8-1.4-5-3.7-6.7
	c-4.1-2.8-8.9-2.5-13.5-2.5c-15.1,0.1-24.9-8.1-32.2-20.2c-6.2-10.4-10.2-21.6-13.2-33.3c-4.6-18.1-6.7-36.7-9.9-55l-48.1-273.4
	c-3.8-21.4-1.2-25.5-27.7-16.1c-36.5,12.8-74,22.2-112.5,26.9l-21.8,2.9c-3.5,0.5-6.4,2-7.1,5.8c-0.9,4.4,2.6,9.8,7,10.7
	c2.6,0.5,5.3,0.1,7.9,0.5c5.2,0.8,10.6,1.2,15.6,2.9c10,3.5,16.1,11.3,20.9,20.4c8.5,16.2,12.5,33.7,15.7,51.4l33.4,188.8
	C2556.8,2111.3,2559.4,2123.1,2558.7,2134.3L2558.7,2134.3z M3503.5,1413.6c-3.7,1.2-9.4,2.8-15,4.8
	c-35.3,12.2-71.3,21.7-108.6,25.8c-8.6,0.9-17.2,2.3-25.6,4.1c-4.2,0.9-6.5,4.3-6.6,8.9c-0.1,3.9,2.8,6.8,7.8,7.5c2,0.3,4,0.3,6,0.4
	c21.4,0.6,34.7,12.2,41.3,31.7c4.5,13.2,8.4,26.7,11.1,40.4c6,30,11,60.2,16.4,90.4l59.4,336.2c3.6,20.4,6.1,40.8,5.5,61.5
	c-0.4,14.9-6.5,25.5-19.9,31.8c-3.6,1.7-7.5,2.8-11,4.8c-2.8,1.6-5.4,3.8-7.5,6.2c-1.8,2.1-1.8,4.9-0.7,7.6c1.2,2.9,3.7,3.6,6.5,3.3
	c2-0.3,3.9-0.8,5.9-1.2c64.6-13.2,129-27.2,194.8-33.1c1.3-0.1,2.6-0.3,3.9-0.7c5.3-1.3,8.9-5.5,8.2-9.7c-0.8-4.7-4.2-6.7-8.3-7.2
	c-4.6-0.6-9.3-0.7-13.9-1c-18.9-1.1-30.8-11-36.2-29c-1.1-3.8-2.3-7.7-3-11.6l-16.9-92.3l-23.4-135.8l-20-106l-37.1-218.5
	c-0.9-5.2-2.6-10.3-4.4-15.3C3511.1,1415.1,3508.7,1413.7,3503.5,1413.6L3503.5,1413.6z M2949.7,1726.2c-22.8-0.6-45.1,2.2-67,9.1
	c-52.3,16.5-91.5,48-113.8,98.9c-9.4,21.5-15.3,44.2-17.2,67.5c-5.4,67.3,6,131.5,39.8,190.6c24,42,59.4,69.2,106.8,80.7
	c23,5.6,46.3,6.3,69.5,3.8c84.5-9.2,134.8-62.2,151.7-134.6c1.2-5.1,1.2-10.5,1.3-15.8c0-2.7-1.7-5.2-4.5-5.9
	c-2.7-0.7-5.5,0.3-7.1,2.5c-2.3,3.2-4.4,6.7-6.2,10.2c-5.2,10.1-12,19.2-19.1,28c-16.9,21.1-38.7,34.5-65.2,39.6
	c-32,6.1-60.6-0.4-84.9-23.6c-18.7-17.9-32.1-38.8-41.2-62.9c-8.7-23.2-13.4-47.4-17.9-71.6c-3.2-17.4-0.4-21.4,16.5-25.1
	c1.3-0.3,2.6-0.4,3.9-0.7l180.9-32.2c5.9-1.1,11.7-2.4,17.4-4.3c4.9-1.6,7.3-5.7,6.9-10.9c-0.3-3.3-0.9-6.6-1.9-9.7
	c-5.8-17.7-10.5-35.9-18-52.9c-16.1-36.9-41.5-64.7-81.4-77C2982.9,1724.7,2966.3,1726,2949.7,1726.2z M1847.1,2096.1
	c-1.3,14.6,1.2,31.1,4,47.5c6.1,34.9,15.3,69,32.3,100.3c28.5,52.5,71.7,84.3,131.1,94.6c24.3,4.2,47.9,1.7,71.4-3.1
	c27-5.6,52.3-15.9,73.9-33.6c36-29.6,52.4-69.5,59.2-114.3c0.6-3.7-0.7-6.8-4.5-7.7c-3.5-0.9-6.8,0.5-8.6,3.6
	c-2.7,4.5-4.8,9.5-7.5,14.1c-17.9,31.7-44.2,53.2-79.5,62.3c-32.4,8.3-62,2.2-87.3-20.9c-19.2-17.4-32.6-38.5-42-62.4
	c-11-28.2-16.7-57.5-19.8-87.4c-2-19.2-5-38.3-4.2-57.7c1.3-29.7,7.7-58.1,20.3-84.9c12.3-26.1,33.7-40.6,62.2-44.3
	c12.9-1.7,25.2,0.9,36.6,7.4c4,2.3,5,7,1.8,10.1c-4.2,4.2-8.7,8.3-13.3,12c-26.7,21.1-23.1,72.4-4.2,90.8
	c6.8,6.6,14.2,11.8,23.3,14.8c21.1,6.9,40.9,3.7,59.5-7.3c19.3-11.4,29.9-28.7,29.5-51.1c-0.7-37.2-17.9-64.8-51.4-81.5
	c-14.5-7.2-30.2-9.6-46.2-11.7c-45-5.7-87.8,1.5-128.2,21.2c-45.5,22.1-79.4,55.7-95.6,104.8
	C1850.9,2038.2,1846.2,2065.7,1847.1,2096.1L1847.1,2096.1z M1560.8,2117.1c-1-24.2,2.3-47.9,8.8-71.1c5.3-18.8,13.4-36.1,27.4-50.4
	c18.8-19.2,41.6-25.6,67.6-21.7c7,1.1,16,1.6,18.2,9.8c1.7,6.4-5.9,9.7-9.7,14c-0.4,0.5-0.9,1-1.4,1.4c-20.3,17.6-24.8,40.4-20,65.4
	c4.2,22.1,17.3,37.7,39.2,43.5c14.9,4,30.4,3,45.3-2.4c24.2-8.8,40-30.5,40.9-56.2c1.2-33.7-21.3-68.1-53.9-81.7
	c-19.2-8-39.3-12.4-60.2-12.9c-33-0.8-65,5.1-96,16.3c-55.6,20-92.7,58.4-111.8,114.3c-7.8,22.9-12.1,46.3-12.4,70.5
	c-0.7,47.3,8.8,92.7,25.6,136.6c14.9,39.1,39.7,70.6,75.8,92.6c20.2,12.3,41.8,21,65.2,23.7c32.8,3.8,65.2,1.2,96.7-9.4
	c36.2-12.2,64.7-33.7,83.9-67c13.2-22.8,20-47.8,25-73.4c0.3-1.3,0.4-2.7,0.2-4c-0.4-2.9-2.3-4.8-4.9-5.7c-2.8-1-5.6-0.3-7.2,2
	c-3,4.4-5.6,9-8.2,13.7c-9.7,17.8-22.6,33.1-38.5,45.4c-46.6,36-101.3,28.3-136.1-7c-15.8-16-26.6-34.9-34.4-55.7
	C1569.8,2205.7,1561.5,2162.1,1560.8,2117.1L1560.8,2117.1z M3419.6,2080.3c-0.5-4.5-3.1-7.8-7.3-8.4c-5.9-0.9-11.9-0.7-17.9-1
	c-13.1-0.8-23-7-28.3-19c-3.5-7.8-6.1-16.2-7.9-24.6c-4.8-22.1-9.4-44.3-13.3-66.6l-47.8-275.3c-3.1-18.1-5-19.6-21.9-13.6
	c-32.2,11.3-65.1,19.2-98.8,24.1c-13.8,2-27.5,4.8-41.3,7.4c-3.4,0.6-6.4,2-6.7,6.1c-0.2,3.8,2.1,6.5,5.2,7.8
	c4.2,1.8,8.8,3.1,13.3,3.8c21.6,3.2,34.7,15.6,40.1,36.4c2.8,10.9,5.6,21.9,7.6,33l31.4,172.8l15,90.6c3.7,21.8-2.2,40.9-26.1,49.7
	c-4.3,1.6-8.5,3.8-12.3,6.4c-3.1,2-3.7,5.6-2.7,8.9c1,3.6,4,5.3,7.7,4.7l31.4-5.6c48.9-10.2,97.7-20.5,147.4-25.7
	c8.6-0.9,17.1-2.3,25.7-3.9C3416.5,2087.7,3419.3,2085,3419.6,2080.3L3419.6,2080.3z M3196.7,1597.7h14c18.7-0.6,34.9-8,49.1-19.8
	c8.3-6.9,14-15.7,17.5-26.2c6.9-20.4,0.5-38.1-10.2-54.8c-10.3-16.1-25.6-24.8-44.8-26.3c-16.9-1.4-33.1,1.9-48.9,7.6
	c-31.8,11.4-46.2,34.3-42.7,68c3,29,25,49.9,54.1,51.6C3188.7,1597.9,3192.7,1597.7,3196.7,1597.7L3196.7,1597.7z M405.3,2623.6
	c0.4-2.7,1-7.3,1.9-11.9l84-429.3l61.8-323.8l9-49.1c0.7-3.9,1.6-7.8,2.6-11.7c0.8-3.1,1-7.1,5.4-7.2c3.8-0.1,5.6,3.2,7.3,6
	l13.2,22.4l399.7,687.6c3,5.2,5.9,10.5,8.4,15.9c2.9,6.2,0.9,10.5-5.8,11.9c-14.3,3-28.7,5.8-43.1,8.3l-427,74.9
	c-31.5,5.3-63.1,9.9-94.3,17.3c-3.9,0.9-7.9,1.6-11.8,1.7C409.8,2636.8,405.5,2632.4,405.3,2623.6L405.3,2623.6z M2864.6,1847.6
	c-0.3-15.3,0.5-33.9,4.8-52.2c3.8-16.1,11.1-29.8,24.1-40.3c20.3-16.3,45.5-13.5,61.3,7.2c11,14.4,19.5,30.2,24.9,47.5
	c4.9,15.9,9.2,31.9,13.5,48c1,3.8,1.5,7.9,1.6,11.8c0.1,8.5-3.5,14-11.4,16.8c-4.4,1.5-9,2.4-13.6,3.3l-66.7,11.9
	c-6.5,1.1-13.2,2.1-19.8,2.2c-10.3,0.2-16.5-4.9-17.7-15.1c-1.1-9.2-0.8-18.6-1-27.9C2864.5,1857.6,2864.6,1854.3,2864.6,1847.6
	L2864.6,1847.6z"/>
</svg>
