<svg xmlns="http://www.w3.org/2000/svg" baseProfile="tiny" viewBox="0 0 4063 4063"><path d="M2036.3 57.6c30 0 60-.8 90 .2 28.6 1 57.1 4.1 85.7 6.1 26.6 1.9 53 5.2 79.5 8.3 45 5.3 89.7 12.9 134.1 21.5 82.5 16.1 163.6 37.6 243.4 64.2 100.1 33.3 196.8 74.7 290.4 123.5 125.8 65.5 243.1 143.7 352.2 234.4 67.3 55.9 130.6 116 189.9 180.2 95.7 103.6 179.5 216.3 251.3 337.9 63.3 107.1 115.5 219.2 157.6 336.2 36.4 101.2 64.1 204.7 83.3 310.5 7.5 41.3 13.5 82.8 18.2 124.5 3.8 33.1 6 66.3 9.7 99.4.2 2 .4 4 .5 6 1.2 55.3 6.4 110.6 3.1 165.8-2.1 34.6-1.7 69.2-5.3 103.8l-8.3 87.5c-4.5 39.7-10.3 79.3-17.3 118.6-18.4 103.2-44.7 204.3-79 303.3-40.6 116.8-91.9 228.7-153.3 336-39.8 69.5-83.7 136.4-131.6 200.4-42.4 56.6-87 111.3-135.8 162.6l-46.8 49.3c-100.4 100.1-209.6 189.4-328.7 266.4-127.6 82.5-262.9 149.3-405.9 200.8-94.2 33.9-190.6 60.1-288.8 79.4-49 9.7-98.3 17.5-148 23-53 5.8-106 10.1-159.3 12.3-33.3 1.4-66.6 2.8-99.8 1.9-41.2-1.1-82.5-2.4-123.7-5.8l-87.5-8.4c-55.7-6.1-110.8-15.3-165.6-26.6-141.5-29.3-278.3-73.3-409.9-132.9-117.5-53.2-229.2-116.6-334.3-191.5-52.1-37.2-102.5-76.6-151.2-118.2-48.6-41.7-94.3-86.5-138.6-132.7-123-128.2-226.2-270.9-311-427.1-83.2-153.2-144.1-314.8-184.3-484.4-17.4-73.3-30.2-147.4-38.5-222.4-6.2-57-11.8-114-11.9-171.4 0-17.9-3.1-35.8-2.2-53.9 2.4-45.9 2.1-91.9 5.8-137.7l8.3-91.5c6-54.3 14.5-108.3 25.1-161.9 16.1-81.8 37.2-162.4 63.6-241.5 39-116.6 88.2-228.7 147.8-336.3C373.4 961.6 448.5 853.3 534 752.3c49.6-58.6 102.4-114.1 158.6-166.4 107.8-100.2 225-187.9 352.3-262 78.5-45.7 159.5-86 243.5-120.5 97-39.9 196.4-72 298.5-95.8 65.6-15.3 131.7-27.6 198.6-35.6 41-4.9 82.1-8.7 123.2-12 42.4-3.2 85-2.4 127.6-2.4zM2426 1958c6.6-.7 13.3-1.6 19.9-1.9 25.7-1.2 42.1 9.6 50.1 34 6.2 19 8.8 38.9 11.2 58.8 1.8 14.3-4 26.2-15.2 35.1-8.4 6.6-17.2 12.7-26.1 18.4-14 9-28.3 17.6-42.4 26.4-13.7 8.5-26 18.7-36.1 31.3-21.9 27.4-21.3 59.4-3.3 87.4 6.8 10.6 16.7 18.1 28.7 20.3 29.7 5.4 58.4 3.4 84.1-15 11.6-8.3 20.3-19 28.4-30.5 5.2-7.4 10.3-7.1 15.9 0 2.5 3.1 4.5 6.7 7.1 9.7 6.4 7.3 14.4 12 24.1 12.8 29.1 2.4 55.5-4.3 78.4-23.1 1-.8 2.1-1.8 2.7-2.9s1.2-2.7.8-3.7c-.3-.7-2.4-1.5-3.3-1.1-3.7 1.5-7 3.9-10.8 5.2-8.9 2.9-15.9 0-19.9-8.4-1.9-4.2-3.1-8.8-4-13.3l-11.6-60.8-19.8-110.1c-2.5-13.8-5.9-27.4-11-40.4-7.2-18.4-19.5-31.9-39-37.1-35.2-9.3-69.9-6.6-104 5.9-1.7.4-3.2 1.9-4.9 3-21.6 4.4-38.5 17.2-54.7 31-7.7 6.6-12.1 15.8-14.8 25.5-5.2 18.8 3.1 40 19.5 50.4 13.8 8.7 38.4 5.4 51.7-7.5 11.3-11 15.6-24.2 10.5-39.9-3.7-11.2-10.1-20-20.1-26.3-2.2-1.4-4.7-2.5-6.9-3.9-10.4-6.6-10.4-11.9-.1-19.4 4.9-3.5 9.9-6.6 14.9-9.9zm-600.9-815.5c-17.6 0-44.9.8-72.1 3.6s-54.3 5.9-81.2 10.3c-69.9 11.3-138.2 28.6-205.2 51.6-60.7 20.8-119 47.1-174.7 78.9-107.2 61.2-198.7 140.8-276.5 236.4C910.5 1652 843.1 1798.1 811 1960.8c-7.9 39.9-13.7 80.1-17.2 120.6-3.5 41.8-6.2 83.7-6.8 125.7-.5 32.1 3.3 63.9 3.8 95.9.5 33.4 5.1 66.4 9.9 99.4 5.8 39.6 14.2 78.7 23 117.7 27.1 120.2 66.2 235.9 125.7 344.4 63 114.8 144.1 214.4 246.5 296.2 82.6 66 174.5 115.2 275 147.9 102.1 33.2 207 50.3 314.2 52.8 28.6.7 57.4 1 85.9-1.1 44.5-3.3 88.9-7.8 133-14.6 55.4-8.6 110-20.3 163.6-37 76.9-24 149-57.7 214.8-104.6 43-30.6 82.6-65.2 120.9-101.5l65.2-62c8.8-8.3 18.3-15.4 29.3-20.5 18.5-8.7 36.1-7.1 53.2 3.8 5.7 3.6 10.5 8.1 14.9 13.2 10.5 12.4 18.2 26.4 23.9 41.4 7.5 19.9 14.2 40.2 21.5 60.2 2.7 7.5 5.6 15 8.8 22.3 3.9 8.9 10.9 12.9 20.8 12.4 11.4-.6 22.4-3.5 33.1-7 8.7-2.8 10.3-5.8 8.3-15.1l-13.4-60.5-68.5-345-48.1-263.4c-2.6-14.4-5.4-28.8-8.6-43.1-2.1-9.6-5.3-11.8-15.4-12-9.4-.2-18.6 1.2-27.7 3.3-18.1 4.2-23.5 12-20.8 29.9 1 6.6 2.9 13.2 2.8 19.7-.9 44.1 4.1 87.8 7.3 131.6 2 27.3 3.9 54.5-2.1 81.6-.6 2.6-.5 5.3-.6 8-1.3 38-5.7 75.7-12.6 113.1-8.4 45.5-23.4 88.8-46 129.4-23.1 41.5-50.4 80.1-79.6 117.4-53.2 67.8-118.8 120.3-198 154.9-54.6 23.9-111.4 40.1-170.7 47.6-45.3 5.7-90.4 5-135.4-2.5-75.2-12.6-142.3-44-203.2-88.9-53.4-39.4-99.7-86.2-140.6-138.4-53-67.6-94-142.2-129.2-220.2-52.3-115.8-91.2-236.1-119.2-360-14.6-64.4-25.9-129.3-34.8-194.7-5.5-40.2-10-80.6-13.5-121.1-1.8-21.3-2.1-42.6-4.4-63.8-3.6-33.2-3.5-66.5-5.2-99.7-1.2-23.9.7-47.9 1.7-71.9 1.4-35.3 4.1-70.4 8.1-105.5 8.9-77.1 25.5-152.4 52.1-225.4 21.1-57.8 47.7-113 82.3-164 44-64.9 101.5-114.2 172.1-148.3 44.2-21.4 91.1-34 139.3-41.5 29.6-4.6 59.4-7.8 89.2-11.4 8.6-1 17.2-.3 25.9 1.2 14.4 2.4 29 4.4 43.5 6 49.2 5.5 97.4 15.3 143.3 34.5 53.7 22.5 104.1 51 151.5 84.7 28.3 20.1 55.1 42.1 78.4 68 43.3 48 76 102.7 101.5 161.9 29 67.4 52.4 136.9 74.8 206.7 1.6 5.1 3.1 10.2 5 15.2 2.1 5.6 6.2 9 12.2 8.4 14.6-1.5 29-3.9 43.1-8.1 4.2-1.3 6.7-4.7 6.6-9-.1-6.6-.4-13.3-1.5-19.9l-26.1-155.7-45.9-276c-12.3-72.9-23.5-146-31.3-219.5-.7-6.6-2-13.2-3.5-19.7-2.5-10.7-6-13.6-16.3-13.8-11.5-.2-22.5 2.5-33.4 5.5-7.8 2.1-11.9 8.1-12.2 16.4-.3 10-.8 20 1.7 29.8 2 7.9 3.1 16 1.5 23.8-2.7 13.8-2.9 27.8-4.6 41.7-1.4 11.2-3.9 22.3-6.6 33.3-2.8 11.1-7.8 21.3-15 30.2-12.3 15.3-28.3 21.9-47.8 17.9-7.1-1.4-14.2-3.7-20.9-6.6-16.5-7.1-32.9-14.7-49.2-22.1-29.1-13.2-57.8-27.5-87.4-39.5-93.8-38.4-190.6-60.8-301.8-59.3zM1996 2342.4c15.4-.7 111.5-16.2 138.4-22.1.9-.2 1.4-1.9 2.4-3.3-1.7-.8-3.3-2.1-5.1-2.4-20.1-2.9-29.8-15.8-33.5-34.6l-1.4-7.9-24.2-139.7c-3.2-18.4-6.5-36.8-13.2-54.3-14.6-37.9-36.3-50.6-73.5-47.3-.7.1-1.3.1-2 .1-38.7 3.8-70.2 19.6-90.4 54.2-1.3 2.3-2.6 4.7-4.4 6.6-1.2 1.3-3.5 2.7-5 2.4s-3.3-2.4-3.8-4.1c-2.4-8.3-4.3-16.7-6.6-25.1-2.4-8.6-4.7-10.3-12.7-7.8-29.9 9.4-60.5 15.8-91.3 21.2-2.4.4-5.6.1-6 3.9 1 .8 1.8 2.1 2.9 2.2 20.9 3.1 30.7 16.8 34.7 36.2l2 9.8 27 147.3c3 16.4 5.4 32.8 7.9 49.3 2.8 18-.8 33.2-19.2 41.6-1.2.5-2.4 1.3-3.2 2.4-.6.9-1.2 2.7-.7 3.4.6.9 2.3 1.5 3.4 1.4 2.6-.2 5.2-.9 7.8-1.4 34.6-6.6 69.1-14.1 104.2-18.6 7.4-.9 15.4-1.6 22.5-5-1.8-4.2-4.6-4.2-7.1-4.6-14.1-2.7-21.8-11.8-25.3-25.2-1-3.9-2.2-7.7-2.8-11.6l-30.2-173.1c-4.1-22.9 3.1-42 17.6-59 9.5-11.2 22-17.4 36.7-17.8 20-.5 30.7 5.4 37.2 23.5 3.6 10 6.2 20.4 8.1 30.8l19.9 112 11.2 64.9c4 26.9 1.2 33.4-22.3 51.7zm-542.1-94.9c-.3 31.7 5.5 62.3 16.4 92 5.5 15.1 13 29.3 22.9 42 15.7 20.1 35.3 34.4 60.5 39.8 43.1 9.2 85 4.9 124.6-14.4 29.5-14.4 49.5-37.9 59-69.7 6.5-21.9 9.4-44.3 6.6-67.1l-2.9-23.8c-4.3-28.5-11.8-56-26-81.4-16.9-30.3-42-50-76-56.6-35.9-7-71.6-4.8-106 8.6-38 14.8-62.1 42.3-73.7 81.2-4.9 16.1-5.4 32.7-5.4 49.4zm1212.4-215c-.5 38.9 7.3 71.8 21.9 102.9 17.7 37.7 45.9 63.2 87.7 71.8 15.2 3.1 30.5 3.2 45.8 1.8 53.3-5 97.1-43.1 106.1-102.8.1-.6-.1-1.3-.4-1.9-.3-.5-.8-1.1-1.3-1.3-.6-.2-1.6-.4-1.9-.1-2.1 2.5-4.3 5-5.9 7.8-6.1 10.4-13.4 19.8-22.2 28.1-28 26.3-90.4 34.7-119.5-15.3-8.1-13.9-15.5-28-19.7-43.5-7.8-28.4-11.5-57.5-11.4-86.9 0-18.8 3.4-37.1 10.3-54.7 4.5-11.3 10.8-21.5 20.1-29.4 16.7-14.2 35.4-17.5 55.9-9.4 6.3 2.5 7.4 7.4 3.1 12.7-2.9 3.6-6.3 6.8-9.3 10.5-7.8 9.7-11.5 20.8-11 33.4.9 21.4 14.9 35.9 36.5 37.5 29.2 2.1 51-17.1 49.4-44.3-1.1-18.1-8.4-33.4-23.2-44.6-8.1-6.1-17-10.5-26.7-13.2-31.9-8.9-63.6-7.3-93.9 5.6-45 19-75.4 51.4-87 99.9-3.2 13.1-3.2 26.3-3.4 35.4zM2111 2022c2.2 2.5 4.8 1.1 7.3.8 6.6-.9 13.2-2.2 19.8-2.7 10.9-.8 16 2.9 19.3 13.2.6 1.9 1 3.9 1.3 5.8l20.4 118.1c5.4 31.5 10.3 63.1 18.8 94 2.3 8.4 5.1 16.5 9.2 24.2 9.1 17.2 23.7 26.8 42.7 29.2 8.5 1.1 17.3 1 25.9.5 41.6-2.4 63.3-25.2 74.6-61.2.4-1.2.1-2.6-.1-3.9-.1-.6-.8-1.4-1.3-1.4-1.2 0-3.2 0-3.6.7-2.2 4.1-3.8 8.5-6 12.5-5.7 10.3-13.8 17.9-25.2 21.4-14.6 4.5-28.6-2.1-34.2-16.2-1.5-3.7-2.4-7.6-3.1-11.5l-39-216.3c-.8-4.6-1.1-9.3-1-13.9.2-8.3 3.1-12 11.2-14.3 6.4-1.7 13-2.7 19.6-4l25.5-5c.9-.2 2.1-1.8 2.1-2.7 0-.7-1.6-2.1-2.5-2.1-4.6.1-9.3.2-13.9 1-9.8 1.7-19.5 4.2-29.4 5.7-10.7 1.7-16.6-2.2-19.2-12.7-2.3-9.7-3.5-19.7-5.4-29.5l-8.1-41.1c-1.1-5-4.6-6.7-9-4.1-15.6 9.1-32.6 15.2-49.1 22.3-14 6-16.7 11.7-14.9 26.8 1.2 9.9 2.9 19.8 3.7 29.7 1.5 19.6-2 24.1-21.5 29.5-3.8 1.1-7.7 2-11.6 3.1-1.5.7-3.6 1.4-3.3 4.1zm994.2-177.2c-13.5.9-26.4 3.7-39.3 6.1-22.1 4-25.3 1.6-29.1-20.4l-10.2-55c-2.4-11.3-5.3-12.7-15-7.7-14.9 7.6-29.7 14.7-46.4 17.7-11.2 2-14.2 7.2-14.6 18.4-.3 8.1 1.1 15.9 3.2 23.7 2.1 7.7 4.1 15.5 4.9 23.4 1.2 12.9-4.4 20-17.3 22.7-5.2 1.1-10.6.7-15.9 1.4-2.5.3-4.9 1.5-7.1 2.8-.7.4-.6 2.4-.6 3.6 0 .5.8 1.1 1.3 1.4 2.5 1.4 5.1.7 7.7 0 5.8-1.6 11.5-3.5 17.4-4.3 11-1.5 18 3.2 21.4 13.5 1 3.1 1.4 6.5 2 9.8l11.4 64.9 24.6 131.6c1.9 9.8 4.6 19.5 8.2 28.8 5.4 14.2 15.3 25 29.2 31.4 27.3 12.6 75.1 7.1 98-19.4 9.4-10.9 14.8-23.6 19.6-36.8.7-1.9.2-4.1-2.2-4.5-1-.2-2.8.6-3.3 1.4-2.6 4.6-4.6 9.6-7.4 14.1-5 8.2-11.9 14.3-21 17.6-15.6 5.6-29.8-.2-36.1-15.5-2-4.9-3.1-10.2-4.1-15.4l-38.3-212.4c-.9-5.2-1-10.6-.9-15.9.1-5 2.9-9 7.5-10.9 4.3-1.7 8.8-3 13.4-3.8 9.8-1.9 19.8-3.1 29.5-5.1 3.7-.7 8.4-.8 9.5-7.2zm-1572.5 358.8c.4-16.6-.5-33.3 4.1-49.6 2.2-7.7 4.7-15.3 9.1-22 14.1-21 39.2-24.8 59-9 9.1 7.2 14.9 16.9 20.2 27 14.5 28.1 22.9 58.1 29.4 88.8 5.9 28.1 8.5 56.6 11.3 85.1 2 20.1-1.5 39.9-7.2 59.1-2.9 9.7-7.9 18.4-15.7 25.1-11.7 10.1-24.5 12.7-38.8 5.8-7.3-3.5-13.6-8.3-18.8-14.5-8.6-10.3-16.2-21.2-20.8-33.9-18.7-52.5-31.7-106-31.8-161.9zm998.9-16.6c2.2 15.7-3.4 28.7-23.1 37.6-5.4 2.4-11.3 4.3-17.1 5.1-14.5 1.9-26.6-3-34-15.9-14.2-24.7-17.3-50.5-3.4-76.2 12.2-22.6 31.5-39.3 50.3-56.3 2.7-2.4 7-1.2 8.4 1.9.8 1.8 1.7 3.7 2 5.6l15.9 86.4c.7 3.8.7 7.8 1 11.8z"/></svg>