<?xml version="1.0" encoding="utf-8"?>
<!-- Generator: Adobe Illustrator 23.0.3, SVG Export Plug-In . SVG Version: 6.00 Build 0)  -->
<svg version="1.1" id="Calque_1" xmlns="http://www.w3.org/2000/svg" xmlns:xlink="http://www.w3.org/1999/xlink" x="0px" y="0px"
	 viewBox="0 0 4063 4063" style="enable-background:new 0 0 4063 4063;" xml:space="preserve">
<style type="text/css">
	.st0{fill:#FFFFFF;}
</style>
<path class="st0" d="M385.5,3117c-5.8-1.1-7.7-6.5-10.4-10.8c-17.9-28.1-36.3-56-53.1-84.7c-67.1-114.2-120.6-234.6-162.3-360.3
	c-32.4-97.6-56.6-197.3-73.3-298.7c-7.9-48-13.3-96.3-18.1-144.7c-9.2-91.8-9-183.7-6.1-275.6c1.3-40.5,5.3-81,9.8-121.5
	c6.8-62.3,16.5-124.2,29-185.5c20.2-98.6,47.9-195.6,83.1-289.9c28.9-77.6,62.5-153,101-226.3c61-116,132.8-224.9,215.7-326.5
	c31.2-38.2,64-75,97.7-111.1C692.1,581.1,795.6,492.2,907.4,413c130.1-92.1,269.8-166.6,418.4-224.4
	c129.1-50.2,261.9-86.2,398.6-108.3c46.7-7.5,93.7-13.1,140.7-17.9c27.8-2.8,55.8-4.1,83.8-5.1c36.6-1.3,73.2-5.2,109.9-2.8
	c39.9,2.6,79.9,1.8,119.8,5.6l89.5,8.5c59.6,6.7,118.8,16.6,177.5,28.8c82.3,17.1,163.2,39.6,242.6,67.1
	c108,37.4,211.8,84.1,311.9,139.2c89.5,49.3,174.6,105.4,255.3,168c45.3,35.2,89,72.2,131.1,111.2c23,21.3,45.6,42.9,67.6,65.3
	c53.8,54.7,104.4,112.2,151.7,172.6c52.7,67.2,101,137.7,144.5,211.1c59.6,100.6,109.7,205.8,150.8,315.3
	c43.4,115.8,75.1,234.8,96.3,356.6c7.9,45.3,14,90.8,18.2,136.7c3.8,41.1,6.2,82.3,8.5,123.6c2.2,39.3,3.4,78.7,1.4,117.9
	c-1.9,35.9-2.3,71.9-5.4,107.8c-4.3,49.1-9.6,98.1-16.7,146.9c-13.5,91.8-34.1,182.1-60.6,271c-35.2,118.3-81.6,232.9-138.5,342.4
	c-64.7,124.7-141.9,241.1-231.5,349.4c-56.2,68-116.9,131.6-181.4,191.5c-92.5,86-192.2,162.8-299.4,229.8
	c-62.2,38.9-126.1,74.9-192.2,106.7c-143.6,69-293.3,120.2-449.4,152.7c-61.4,12.8-123.2,22.7-185.4,29.8c-43,4.9-86.2,7.8-129.5,10
	c-45.3,2.3-90.6,3.9-135.9,1.9c-34.6-1.5-69.2-2.3-103.7-5.6l-85.5-8.4c-47.8-5-95.1-12.9-142.2-21.9c-99-18.8-196-45.4-291.1-79
	c-59.1-20.9-116.9-45-173.8-71.2c-103.9-47.8-202-105.4-295.7-170.7c-55.3-38.5-108.5-79.8-158.7-124.8l-70.8-64.8
	c-1.9-1.8-3.5-4-4.9-6.2c-0.6-1-0.6-2.8-0.1-3.8s2.1-2,3.1-1.9c4.6,0.7,9.2,1.3,13.6,2.7c56.6,18.6,114.6,31,173.6,37.4
	c54.9,5.9,110,9,165.5,3.5c56.4-5.6,112.7-11.4,168.4-22.1c119.4-22.8,233.1-61.7,338.1-123.9c51.9-30.8,99.5-67,140.6-111.4
	c63.1-68.2,109.8-145.6,130.9-237c5.6-24,9.4-48.3,11.2-73c1.4-19.9,3.4-39.8,3.2-59.8c-1-72-14-141.7-39.4-209.1
	c-14.6-38.8-32.2-76.1-55.1-110.8c-27.7-42.1-62.1-78.3-99.4-111.7c-16.4-14.7-33.3-28.7-50.5-42.4
	c-47.8-37.9-100.7-67.7-154.9-94.9c-86.9-43.7-175.4-84.4-264.4-123.7c-94.5-41.7-189.7-82-281.7-129.2
	c-63-32.3-123.2-69.1-178.7-113.4c-35.1-28-62.2-62.2-81.5-102.4c-28.1-58.5-44.1-120.1-42.3-185.4c1.9-70.9,28.1-132.2,75.6-184.6
	c32.1-35.3,71.8-59.2,115.5-77c43.5-17.8,88.6-29.4,135.4-33c59.3-4.6,117,3.6,172.7,25.2c65,25.2,120.9,64.3,171.1,112.2
	c59,56.3,105.4,121.7,143,193.8c31.2,59.9,56.8,122,73.9,187.5c1.7,6.4,3.8,12.8,6,19.1c2.2,6.4,7.1,9.6,13.8,9.4
	c5.3-0.1,10.7-0.4,15.9-1.3c9.2-1.5,18.4-3.1,27.4-5.4c7.1-1.8,9.9-5.8,9.9-13.2c-0.1-6.6-0.8-13.3-1.9-19.8l-23.9-135.8l-34.5-207
	l-17.6-114.6l-14.3-109l-8.9-67.4c-1.3-9.1-4.2-11-13.5-10.1c-12,1.2-23.8,3-35.3,6.7c-10.7,3.5-16.8,10.3-16.7,22l-0.1,32
	c0.2,14.1-2.2,27.9-5.6,41.5c-1.6,6.4-3.9,12.8-6.7,18.8c-12,25.4-33.3,35.8-60.8,28.9c-16.8-4.2-33.4-9.3-49.8-14.8l-94.6-32.4
	c-46.3-15.6-93.7-25.7-142.3-30.5c-27.3-2.7-54.5-3-81.8-3.1c-38.7-0.1-77.2,4.3-115.5,9.1c-51.6,6.5-102.6,16.6-152.6,31.1
	c-104.1,30.2-201.2,74.7-285.9,143.3c-77.8,63.1-135.4,141.1-166.6,237.1c-9.5,29.2-14.9,59.3-18.2,89.9c-2.6,24.6-3.3,49.2-3,73.8
	c0.9,83.8,19.7,163.6,53.8,240.1c27.6,61.9,68.1,114.3,115.9,161.4c62.8,61.9,134.7,110.7,213.2,150.4
	c86.9,44,175.7,83.7,265.3,121.8c81,34.5,161.5,70,239.6,110.6c58.2,30.2,113.4,64.9,162.6,108.5c44.3,39.2,82.1,83.8,109.7,136.4
	c19.9,38.1,33,78.6,39.5,121.1c3.2,21.1,6.4,42.3,7,63.5c2.1,69.6-17,133-58.3,189.4c-36,49.2-83.5,83.6-138.9,107.8
	c-47.4,20.6-97.1,33.2-148,40.5c-21.1,3-42.3,5.6-63.5,7c-33.5,2.2-66.6-1.6-99.3-8.5c-103.1-21.5-187.7-74.1-254.4-155
	c-60.3-73-106.9-154.4-144.2-241.2c-32.4-75.5-57.7-153.4-77.7-233.1c-5-20-8.5-22.5-27.3-18.2c-10.4,2.4-21.1,3.2-31.6,5.1
	c-9.9,1.8-12,4.7-11.4,15.1c0.2,4,0.9,7.9,1.6,11.9l26.3,155.7L381,3066c2.7,15.1,4.6,30.3,6.9,45.4
	C387.5,3113.3,387.7,3115.3,385.5,3117z M1490.1,2170.1c-1,44.6,8.1,85.9,24.5,125.9c6.9,16.8,16.2,32.2,27.4,46.3
	c30.4,38.2,69.7,58.9,119,59.5c11.3,0.1,22.7,0.5,34-0.1c42.1-2.3,76.9-20.5,105.3-50.8c22.4-23.9,34.4-53.6,42.1-85.1
	c0.3-1.3,0.7-2.6,0.8-3.9c0.7-4.8-1.2-8.9-4.7-9.8c-4.3-1.1-8,0.2-10.5,3.9c-2.2,3.3-4,6.9-5.8,10.4c-12.5,23.7-31.3,41.4-54.3,54.3
	c-28.7,16.1-72.2,15.9-102.5-11.8c-16.5-15-29.8-32.1-38.8-52.7c-11.1-25.3-16.1-52.1-20.2-79.1c-1.8-11.9,2.4-17.3,13.8-20.6
	c4.5-1.3,9.1-2.1,13.7-2.9l167.3-29c3.3-0.6,6.5-1.3,9.7-2.3c8.5-2.7,11-6.4,9.1-14.9c-6.1-27.4-13.8-54.3-29-78.3
	c-15.5-24.4-36.3-42.4-64.3-51.1c-18.6-5.8-37.7-8.8-57.2-6.6c-31.3,3.5-61.4,11.3-89.8,25.6c-41.8,21.1-67.9,54.6-80.7,99.2
	C1491.8,2120.9,1489.3,2146,1490.1,2170.1L1490.1,2170.1z M3270.6,1853.3l0.1,32c0.2,6.6,0.2,13.5,1.8,19.9
	c6.9,27.1,13.6,54.4,24.6,80.2c22.1,51.9,60.5,85.2,116,97.6c21,4.7,42.6,4.4,63.7,1.7c39.3-5,74.7-19.3,102.1-49.5
	c15.9-17.6,26.8-38.1,34.8-60.2c3.6-10,7.2-20.1,8.6-30.8c0.4-3.4-0.3-6.8-4-8.2c-3.3-1.3-6.9-1.2-9.3,1.4c-2.7,2.9-4.9,6.3-6.6,9.8
	c-8.2,17.2-20.6,31-34.6,43.5c-36.4,32.6-90.5,32.1-125.1-1.9c-29.8-29.3-47.9-65.3-56.4-106.1c-1.1-5.2-1.2-10.6-1.3-15.9
	c-0.4-21.2,2.8-25.5,23.9-29.4l139.6-25.2c12.4-2.2,25.1-3.7,37.3-6.6c12.6-3,15.5-7.9,12.6-20.2c-5.5-22.7-12.7-44.9-24.1-65.5
	c-23.8-42.8-60.3-64.3-109.2-65.1c-35.4-0.6-68.9,7.5-100.3,23.2c-46.8,23.4-76.4,60.9-89.3,111.8
	C3269.9,1810.8,3270.7,1832,3270.6,1853.3L3270.6,1853.3z M2882.9,1917.9c0.2,18.6-0.7,33.3,1.4,47.9c4.1,29.2,12.6,57.2,23.1,84.7
	c6.7,17.6,16.4,33.5,29,47.5c46.7,51.5,104.9,68.8,172.1,55.2c77.1-15.6,110.1-68.5,127-138c0.7-2.8-0.6-5.3-3.1-6.8
	c-3.3-2-6.6-1.2-9.3,0.9c-5,3.8-6.8,9.8-9.7,15c-18.7,32.9-47.1,51.7-83.8,58.8c-19.8,3.9-38.5,0.5-56.1-8.8
	c-23.2-12.4-39.5-31.3-50.5-54.9c-6.8-14.6-11.3-29.9-15.3-45.4c-9.6-36.9-16.3-74.2-14.2-112.6c1.2-22.1,5.3-43.8,13.2-64.4
	c10.1-26.2,28.1-45,55.6-53.5c13.9-4.3,27.7-3.4,41.1,1.9c6.7,2.7,7.7,9.1,2.2,14.2c-0.5,0.5-1,0.9-1.5,1.3
	c-23.4,16.8-29.1,40.4-24.8,67.2c2.5,15.7,9.9,29.4,24.6,36.9c21.5,11,43.4,11.8,65.1-0.2c12.8-7.2,21.6-17.8,25.5-32
	c9.3-33.9-1.5-66-28.5-85.1c-15-10.6-31.7-17.8-49.7-19.9c-48.6-5.8-96.1-1.2-140.1,21.6c-47.1,24.4-75.9,63.7-89,114.8
	C2882.3,1883.2,2882.1,1902.5,2882.9,1917.9L2882.9,1917.9z M3824,2022.2h13.8c42.5-0.7,79.4-16.5,110.9-44.1
	c23.6-20.7,36.3-47.5,36.2-79.4c0-37.9-16.3-68.2-45.3-91.7c-10.3-8.3-21.8-15.4-33.1-22.4c-22.7-14-47.1-25-70.8-37.2
	c-14.2-7.4-28.1-15.3-42.1-23.1c-10.6-5.9-19.4-14-27.6-22.9c-7.9-8.6-12.7-18.7-14.8-30.1c-4.3-23.2,6.8-44.2,28.5-53.8
	c33.3-14.7,61.6-9.6,88.5,14.9c18.1,16.5,31.2,36.2,40.6,58.7c2.3,5.5,4.6,11.1,7.3,16.4c1.9,3.8,6.7,5.5,10.2,3.9
	c3.2-1.5,5.4-4,5.4-7.7c0-2.6-0.5-5.3-1-7.9l-6.2-35.4l-10.7-71.1c-0.5-3.3-1.1-6.6-2.3-9.6c-1.1-2.7-4-3.5-6.7-2.9
	c-4.1,0.9-7.3,3.6-8.5,7.6c-1.1,3.8-1.2,7.9-2.3,11.7c-2.6,9.1-8.5,13.1-17.9,12c-4.6-0.6-9.1-2-13.6-3.3
	c-29.2-8.5-58.6-11.9-88.8-6c-22.4,4.4-44.2,10.4-63.9,22.1c-67.9,40.2-71.1,119.8-24.4,166.8c15.2,15.3,32.1,28,50.6,38.8
	l60.9,34.5c13.3,7.6,26.7,15.1,39.3,23.8c22.4,15.5,36.2,36.9,40.3,64.1c2.4,16.2-1.8,30.8-13.8,42c-14.7,13.9-32.8,20.7-53.1,18.6
	c-30-3.2-54.5-16.4-71.4-42.3c-13.1-20.2-24.2-41.4-31.9-64.3c-1.7-5-3.4-10.1-5.8-14.8c-1.7-3.3-5.1-4-8.6-2.7
	c-3.3,1.1-6.5,2.8-6.7,6.5c-0.2,3.9,0.3,8,1,11.9l18.6,108.3c1.2,7.2,1.9,14.5,3.3,21.7c0.7,3.6,3.8,5.8,7.3,5.6
	c2.3-0.2,5.6-1.7,6.6-3.6c2.6-4.6,3.8-9.9,6.1-14.7c4.5-9.4,10.5-12.8,20.9-11.3c6.6,0.9,13.2,2.4,19.4,4.6
	C3787.3,2020.9,3806.3,2023.5,3824,2022.2z M2017.4,2020.6c0-5.3-0.5-10.7,0.1-16c2.7-26.1,12.7-48.8,32.9-66.3
	c7.1-6.2,15-11,24.2-13.4c2.6-0.7,5.3-1.2,7.5,0.9c2.3,2.1,1.7,4.8,0.5,7.3c-1.6,3.6-3.4,7.2-5.3,10.7c-7.7,14.2-8.4,29.4-6,44.7
	c3.3,21,17.7,34.7,38.7,37c7.9,0.9,16,0.5,23.9,0.5c21,0,44.8-16.6,50.2-43.9c3.1-15.9,2-31.6-3.2-47.3c-7.7-23.2-23.9-36.1-46.7-42
	c-7.9-2-15.9-2.4-23.8-1.4c-31.9,3.8-58.5,17.3-77.6,43.8c-4.7,6.5-8.6,13.5-12.9,20.2c-2.4,3.8-4.1,8.7-9.7,9
	c-4.3,0.2-8.4-5.7-9.3-13.7c-0.5-4-0.2-8-0.5-12s-0.4-8-1.3-11.9c-2.2-8.8-7.6-11.8-16.4-9.4c-5.1,1.4-10.1,3.4-15.1,5.2
	c-20.1,7.3-40.6,12.7-61.7,16.4l-53,9.7c-4.9,1-11.1,1.2-12.5,8c-0.9,4.2,3.9,7.7,13.6,8c19.2,0.7,30.5,11.2,37.5,28
	c5.7,13.6,8.9,27.9,11.3,42.3l14.7,86.6l27.4,151.3c1.4,7.8,1.5,15.9,1.7,23.8c0.2,9.2-3.8,16.9-11,22.5
	c-5.8,4.4-12.2,8.1-18.3,12.1c-8.1,5.3-11.1,9.8-8.4,13.7c3.9,5.7,9.5,3.4,14.5,2.3c57.2-12.8,115.3-20.9,173-30.7
	c12.4-2.1,24.8-4.7,37.2-7.2c2.8-0.6,4.7-2.7,4.6-5.7c-0.1-2.9-2.3-4.7-4.6-6.1c-4.2-2.5-9-2.3-13.6-2.4c-7.3-0.2-14.7,0.1-22-0.5
	c-18.5-1.5-30.9-11.3-37.1-28.7c-1.8-5-3.1-10.2-4.3-15.4l-7.3-35.2l-29.7-165.1C2017.9,2040.5,2017.1,2030.6,2017.4,2020.6
	L2017.4,2020.6z M2511.8,1945.8c-0.8,14.3-1.2,28.3-3.7,42.1l-15.1,90.7c-1.9,11.2-4.3,22.2-6.8,33.3c-1,4.5-3,8.8-4.9,13.1
	c-1.4,3.1-6.3,3.8-8.4,1.1c-3.6-4.7-7.2-9.6-10.3-14.7l-33.9-56.6l-74.3-127.9c-4.3-7.5-8.3-15.3-11.2-23.4
	c-4.4-12.1,0.1-20.6,12.4-25.1c6.2-2.3,12.8-3.8,19-6.2c3-1.2,5.8-3.2,8-5.6c1.9-2.1,2-5.2,0.3-7.4c-1.1-1.4-3.3-2.8-4.9-2.7
	c-4.6,0.4-9.2,1.5-13.7,2.6c-43.4,10.6-87.3,18.6-131.5,25.1c-9.2,1.4-18.5,2.2-27.8,2.9c-8,0.6-15.9,1.7-23.4,4.7
	c-3.3,1.4-5.5,3.9-5.4,7.6c0.1,2.8,2.2,4.7,4.8,5.7c0.6,0.2,1.2,0.5,1.9,0.7c20.4,4.6,33.4,18.3,44,35.2l53.2,84.6l134.3,215.5
	c2.8,4.5,6,8.8,9.6,12.8c4.8,5.3,10.8,7.4,18.1,5.8c6.5-1.4,13.2-2,19.7-3.4c11.6-2.4,17-8,19-20.1l6-41.5l38.6-232.6
	c4.3-25.6,9.8-51,15.1-76.4c3.4-16.1,11.6-29.7,24-40.6c3.5-3.1,6.9-6.3,9.9-9.8c3-3.6,0.3-10-4.3-11.2c-4.7-1.2-9.2-0.2-13.8,0.9
	c-32.4,7.9-65.2,13.7-98.3,17.6c-2.6,0.3-5.3,0.7-7.8,1.5c-3.5,1-5.9,3.4-5.7,7.2c0.2,2.8,2.3,4.6,5.2,5.2c3.9,0.7,7.9,1.2,11.8,2.2
	c29.2,7.3,46,26,49.3,55.8C2512,1924.8,2514.1,1935.5,2511.8,1945.8L2511.8,1945.8z M2675.6,2216l8.2-1.9
	c39-8.5,78.1-16.4,117.6-22.4l59.2-9.1c3.9-0.6,7.9-1.5,11.4-3.1c2.8-1.3,2.8-4.6,0.9-6.8c-1.6-1.9-3.9-4-6.2-4.5
	c-4.5-1.1-9.2-1.1-13.8-1.6c-15.4-1.6-25.8-9.6-31.3-24.1c-4.1-10.6-6.4-21.7-8.5-32.8l-23.9-131.6l-31.4-180.9
	c-0.5-2.6-0.6-5.3-1.2-7.9c-1.5-6.8-4.5-8.3-11.7-6.1c-1.9,0.6-3.7,1.4-5.6,2.1c-22.5,8.4-45.5,14.9-69.2,19.2l-56.9,10.5
	c-4.6,0.8-9.3,1.5-13.1,4.3c-1,0.7-2,2.3-1.9,3.2c0.3,1.8,1,4.1,2.3,5c5.1,3.6,11.4,3.3,17.2,4.3c13.5,2.3,23.4,9.4,29,21.9
	c3.5,7.9,6.9,15.9,9.2,24.2c3,10.9,5.4,22,7.3,33.1l41.2,235.9c3.1,19.6-4.3,35.2-20.8,46.3c-4.4,3-9.2,5.3-13.7,8.1
	c-2.9,1.8-5.4,4-4.6,8C2666,2213.2,2669.9,2216.2,2675.6,2216L2675.6,2216z M2662,1717.7c9.9,0,20.4-2,30.7-4.3
	c53.2-12.2,58.7-64.6,33.1-100.2c-5.3-7.3-13.2-11-21.7-13.3c-30.2-8.4-57.9-1.9-83.9,14.1c-7.6,4.7-12.9,11.5-16.1,19.8
	c-6.1,16.1-6.6,32.4-0.7,48.8c2.5,7,6.3,13.3,12.2,17.9C2628.9,1710.9,2643.5,1718.3,2662,1717.7z M1597.9,2098.7
	c-1.1-17.3-1.2-34.5,2.9-51.5c3.2-13,7.3-25.6,14.8-36.7c17-25.3,45.7-27.1,65.1-3.5c12.8,15.5,21.4,33.5,27.6,52.6
	c5.2,15.8,9.1,31.9,11.6,48.4c2.1,13.6,0.4,16.2-13.4,18.8l-70.6,12.6c-9.1,1.6-18.3,3.2-27.5,4.1c-6.9,0.7-10.2-2.1-10.5-8.9
	C1597.6,2122.6,1597.9,2110.7,1597.9,2098.7L1597.9,2098.7z M3377.3,1779.6c-0.7-19.3-0.9-38.6,4.1-57.6c4-15.3,11.6-28.3,23.7-38.5
	c15.5-13.3,33.4-13.3,48.8,0.3c4.9,4.4,9.4,9.5,12.9,15.1c17.4,27.4,27.2,57.7,32.2,89.6c0.4,2.6,0.5,5.3,0.5,8c0,7-2,9.9-8.2,12
	c-2.5,0.9-5.1,1.5-7.7,2l-84.5,15.5c-3.3,0.6-6.6,1.1-9.9,1.3c-8.3,0.6-11.5-1.7-11.7-9.7C3377,1804.9,3377.3,1792.2,3377.3,1779.6
	L3377.3,1779.6z"/>
</svg>
