<svg xmlns="http://www.w3.org/2000/svg" baseProfile="tiny" viewBox="0 0 4063 4063"><path d="M4022.4 2057.7c0 24.7.8 49.4-.2 74-1.4 33.3-4.4 66.4-6.5 99.7-2.3 37.3-7.1 74.3-12.4 111.2-6.4 44.2-13.8 88.2-23.3 131.9-23.1 107.1-55.6 211.3-97.3 312.7-38.9 94.5-85.5 185.1-139.4 271.9-41.9 67.5-87.3 132.5-136.7 194.6-44.4 55.8-91.1 109.7-141 160.8-12.6 12.9-24.4 26.5-37.2 39.1-100 98.5-206.7 188.7-325.3 264.2-72.6 46.3-147.7 87.9-226 124-111.8 51.5-227.7 90.8-347.2 119.8-58.3 14.1-117.1 25.9-176.6 33.9l-113 14.5c-22.5 2.6-45.2 3.1-67.7 5.4-38.5 4-77.2 3.8-115.8 4.1-6 0-11.9 1.1-17.9 1.4-7.3.4-14.8 1.6-21.9.6-23.9-3.1-47.9-1.9-71.9-2.5-35.3-.9-70.5-4.2-105.6-7.3-42.5-3.8-84.7-9.4-126.9-16-78.5-12.3-155.6-30.5-231.8-52.8-92.3-27-181.6-61.7-268.7-102.7-142.4-67-274.6-150.3-398.4-247.3-45.1-35.4-89.7-71.5-131-111.3-28.8-27.7-56.3-56.8-84.9-84.8-12.1-11.8-15.9-24.9-13.5-41.5 5.9-41.6 13.8-82.8 21.7-124l31.6-164.9c.3-1.3.5-2.6.8-3.9 4.4-20.2 9.6-25.3 30.3-28.8l346.1-62.7 256-44.6c15.1-2.7 24 3.1 31.1 15.4l59.2 102 187.3 323.6c18.7 32.3 36.6 65.1 52.1 99.1 6.3 14 12.2 28.1 15.8 43.1 2.7 11.2 3.3 22.4 2.5 33.8-1.1 16.5-7.2 31-18.4 43.3-11.3 12.5-24.6 22.3-39.5 30.2-33.9 18-70.2 28.8-107.3 37.3-26.1 6-27.2 7.5-22 33.6 1.3 6.5 2.7 13.1 4.5 19.5 1.8 6.5 5.4 8.8 11.9 7.7 11.8-2.1 23.6-4.4 35.3-6.9 137.5-29.3 275.6-56 414.2-79.7l199.1-33.6 229.3-34.2c7.8-1.3 10.7-5 9.8-12.3-1.4-10.6-2.7-21.2-4.9-31.6-2.5-11.6-7.5-15.6-19.1-17.1-2-.3-4-.4-6-.3-32.1.8-59.9-11.9-85.7-29.1-26.3-17.4-49.1-38.8-68.9-63.4-20.5-25.5-37.9-53.2-54.9-81.1l-1020.4-1687c-2.1-3.4-4-6.9-6.2-10.2-8.8-13.3-11.1-14.4-26.3-11.4-7.2 1.4-14.3 3.1-21.5 4.8-30.5 7.1-61 14.3-92.1 18.5-17.8 2.4-35.7 4.3-53.6 6.1-18 1.8-23.4 5.5-27.3 23.3-5 22.8-9 45.8-13.3 68.7l-107.1 543.2-77.2 386.2-45.8 227.3-58.8 296.1-19.8 95.9c-.5 2.6-1.1 5.2-1.9 7.8-2.5 8.4-6.9 9.7-12.6 3.8-3.2-3.3-6.2-7-9.1-10.6-68-83.3-128.6-171.7-182.8-264.6-97.5-167.1-168-344.8-209.5-533.8-13.2-59.9-22.7-120.4-30.4-181.3-6.1-48.3-11-96.7-14.2-145.2-4.6-69.8-6.8-139.8-4-209.8 4.9-122 18.6-243.1 45.4-362.4 27.6-122.6 66.8-241.4 118.7-355.9 52.9-117 117.1-227.5 192-331.7 53-73.7 110.7-143.5 172.3-210.2 38-41.2 77.2-81.1 118.1-119.4C818 471.3 937.1 381.6 1067.5 307.5c163.5-92.9 337.2-159.1 521-199 63.9-13.8 128.2-24.6 193.1-32.3 38.4-4.6 76.8-8.4 115.3-11.7 70.5-5.9 141.1-7.8 211.7-6.4 36.6.7 73.1 4.1 109.7 6.1 38.6 2.1 76.9 6.9 115.3 12 78.1 10.4 155.1 25.7 231.2 46 93.5 25 184.5 57.3 273 96.7 108.7 48.5 211.7 106.9 309.7 174.4 63.7 43.9 124.4 91.8 183.1 142.2 62.3 53.5 120.7 110.9 177.4 170.2 37.3 39 72.4 80.1 106 122.4 52 65.3 99.3 133.8 142.2 205.4 74 123.5 131.9 254.2 174.7 391.7 26.4 84.7 46.5 171 60.8 258.6 7.1 43.4 13.3 87 17.9 130.7 4.2 40.4 7.8 80.9 10 121.5 2.2 40.4 3.4 81 2.8 121.7zM486.2 1006.2c-25.5-.6-51 6.7-75.6 17.6-30.3 13.4-53.5 34.9-69.8 63.4-21.4 37.4-28.5 77.4-17.7 119.5 10.6 41.1 34.6 72.9 70 96.3 30 19.8 63.9 29.7 98.4 37.7 65.2 15.1 131.7 19 198.1 24.5l65.7 5.5 107.4 10c40.6 2.8 80.9 7.9 121 14.5l96.6 16.1c12.5 2.1 16.9-.3 22.3-11.4 1.5-3 2.6-6.1 3.6-9.3 3.4-11.3 1.1-17.8-8.7-23.8-5.7-3.5-11.8-6.2-17.6-9.5-87.3-50.3-171.3-105.6-251.9-166.1l-139.7-103.6c-28-20.4-57.1-39.4-88.6-54.1-35.4-16.6-72.4-27.2-113.5-27.3zM1801.5 1804c-.6-43.6-7.8-86.2-21.4-127.6-8.4-25.5-20.9-49-38.3-69.7-5.6-6.7-11.9-12.5-18.6-18-52.7-42.8-147.5-31.5-188.5 28.9-3.4 5-6.4 10.1-9.6 15.2-1.8 2.8-3.4 5.7-5.4 8.4-2.3 3.1-6.8 2.8-8.1-.6-1.2-3.1-2.2-6.3-2.9-9.5-2-9.8-3.5-19.7-5.8-29.4-2.1-9-5.9-11.1-14.5-7.9-33.8 12.8-69.1 19.7-104.6 26l-31.4 6.1c-3.2.7-6.6 1.6-7.6 5.5-.8 3 2.8 7.4 7 8.4 2.6.6 5.3 1 7.9 1 15.8.2 25.8 9.3 33.6 21.8 6.8 10.9 10.4 23.1 12.7 35.6l29 161.3 32 183.1 10.3 55c3.6 17.8-2.2 31.4-17.2 41.3l-11.6 7.8c-2.2 1.5-4.4 3.1-6.2 5-1.9 2-2.7 4.7-1.7 7.4 1 2.6 2.9 4.4 5.7 5.1 5.4 1.3 10.5-.5 15.7-1.5 63.4-12.7 126.9-24.3 190.9-33.6 3.2-.5 6.6-1.3 9.5-2.6 1.5-.7 2.8-2.8 3.3-4.5.8-3.1-1.4-5.1-3.9-6.1-7.1-2.9-14.5-1-21.8-1-25.4.2-40.1-9.3-48.7-33.2-8.9-24.5-12.7-50.3-17.4-75.9-1.9-10.3 3.8-15.2 13.9-13.8 1.3.2 2.6.4 3.9.8 25.7 7.7 51.5 5.8 77-.2 59.6-14 101-48.7 120.7-107.8 8.9-26.4 12.7-53.3 12.1-80.8zm1263.4-220.9c-2.6-43.6-8.3-87.7-23.4-130.1-6.7-18.9-15.4-36.9-26.9-53.4-21.6-31-50.9-51-88.4-56.2-60.5-8.5-117.2 25.2-138.4 68-1.8 3.5-4.1 6.8-6.4 10.1-1.4 1.9-6.2 1.1-6.8-1.1-1.9-7.1-3.6-14.2-5.2-21.3s-2.9-14.4-4.7-21.4c-1.2-4.5-4.7-6.2-9.2-5.4-2 .3-3.9.9-5.8 1.6-41 14.5-83.7 21.8-126.3 29.2-3.9.7-7.9 1.4-11.7 2.5-2.6.8-4.9 2.5-4.7 5.6.2 2.8 2 5.1 4.6 6 5 1.7 10.1 3.4 15.3 4.3 20.8 3.9 32.8 16.3 36.9 36.9 1 5.2 2.5 10.4 3.5 15.6l19.8 108 51 283c1.2 6.5 2 13.2 2.6 19.8 1.1 12.2-3.2 22.3-12.6 30-4.6 3.8-9.8 6.8-14.7 10.3-2.7 1.9-5.5 3.8-7.7 6.2-2.3 2.6-2.7 6-1 9.3 1.3 2.7 3.7 4 6.5 3.8 3.9-.3 7.9-1 11.8-1.8l97.9-19.8c29.5-5.3 59.2-9.2 88.8-13.6 5.3-.8 10.6-1.4 15.2-4.4 2.3-1.5 3.8-3.8 3-6.8-.7-2.7-2.6-4.5-5.4-5.4-4.7-1.5-9.2.2-13.8 1-23.5 3.8-48.6-8.2-56.3-36.5-6.1-22.5-11.1-45.3-15-68.2-2.9-17.2 1-20.7 18.2-16.5 15 3.7 30.1 6 45.5 4.3 23.3-2.6 46.1-7.4 67.4-17.3 28.4-13.2 51.4-32.7 67.5-60.2 20.7-35.6 27-74.6 28.9-116.1zm440.6-68.9v-11.5c-1.4-48.5-11.2-95-32.2-139-14.7-30.9-35.7-56.1-66.5-72.1-24.6-12.8-50.9-19.2-78.5-20.7-35.8-1.9-70 5.3-103.8 16.5-70.4 23.3-119.8 94.8-110.8 174.4.5 4.6.8 9.3.9 13.9 1.8 47.2 12.9 92.1 33.1 134.8 22.7 48 60.2 76.7 112.2 86.8 35.9 6.9 71.5 4.6 106.9-3.7 28.2-6.6 54.4-17.7 77.6-35.2 31.6-23.9 51.8-55 59.3-94 2.9-15.8 2.2-31.8 1.8-50.2zm-1299.5 110c-1.4 56.1 12.7 106.2 36.3 154.1 20.4 41.6 53.3 67 97.7 78.8 23 6.1 46.2 5 69.5 5.2 29.8.2 58.4-6.1 85.4-18.1 58.7-25.9 95.3-69.8 101.6-134.8 6-62.2-4.8-122.3-29.7-179.4-21-48.2-58-78.9-109.1-91.6-22.7-5.6-45.6-7.4-69.2-4.7-34.8 4-67.8 13.1-99.1 28.8-42.9 21.4-68 56.1-78.5 102.5-4.6 20.2-5 40.8-4.9 59.2zm1522.1 6c3.3 0 7.3.2 11.3 0 39.5-1.9 74.1-16.4 103.6-42 26-22.6 39.3-51.9 37.8-86.7-1.6-37-19.4-66-48.1-88.3-11.5-8.9-24.2-16.6-37-23.7-21.6-11.9-43.6-22.9-65.5-34.4l-31.8-16.8c-13.5-7.5-25.7-16.7-36.1-28.1-8.9-9.7-14.1-21.1-15.6-34-2.2-18.7 3.9-34.9 20.1-44.8 29.4-18 58.4-19.3 87.9 1.7 6.5 4.6 12.2 10.3 17.8 16 15.2 15.5 25.5 34 33.6 53.9 2 4.9 3.9 10 6.5 14.5 1.8 3.1 5.5 3.6 8.9 2.5 3.5-1 5.7-3.5 6.1-7.1.2-1.9.1-4-.3-5.9-7.1-33.9-11.7-68.3-15.7-102.7-.6-5.3-2.1-10.4-3.5-15.6-.8-3-5.1-4.2-8.4-2.9-4 1.6-6.8 4.2-7.9 8.3-.8 3.2-.9 6.6-1.8 9.8-2.8 9.4-8.4 13.3-17.8 12.1-4.6-.6-9.1-2-13.6-3.2-27.8-7.8-55.8-11.7-84.8-6.8-21.3 3.6-41.5 9.6-60.7 19.1-12 5.9-22.4 14.3-32.2 23.5-37.6 35.5-41.5 94.2-9 136.4 14.9 19.3 33.8 34.1 54.5 46.4 22.3 13.3 45.2 25.6 67.9 38.3 14.5 8.2 29 16.4 42.3 26.5 20.2 15.3 31.6 35.7 35.5 60.4 3.1 20.4-3.9 36.8-20.7 48.6-13.5 9.4-28.8 14.3-45.3 12.5-28.3-3.1-52.4-14.2-69.1-38.7-14-20.5-25.5-42.2-33.7-65.6-2-5.6-4.1-11.3-6.8-16.6-1.6-3.2-4.9-4.2-8.6-3.2-4.4 1.1-7.3 3.7-6.9 8.4.6 6.6 1.6 13.2 2.7 19.8l17.8 100.3c1.2 6.5 1.6 13.2 2.9 19.7.7 3.6 3.7 5.5 7.3 5.7 2.8.1 5.5-1.2 6.7-3.6 2-4.1 3.3-8.7 5.1-12.9 4.9-11.3 11.5-15.2 23.8-12.8 9.8 1.9 19.3 5.1 29 7.7 16.7 4.5 33.5 8.9 51.8 4.3zM1992.8 1617c-1.7-24.6 4.1-47.4 18.4-67.9 7.9-11.3 18.1-19.4 30.3-25.3 8.2-3.9 15.5-4.2 16.6-.8 1.8 5.2-2.5 8.6-4.3 12.7-1.1 2.4-2.5 4.7-3.6 7.1-9 18.9-7.2 37.7 1.8 55.8 6.6 13.3 17.4 21.7 32.8 23.1 10 1 20.1 1.4 29.9-1 21.6-5.2 37.1-17.2 43.3-39.6 6.3-22.6 2.6-43.7-8.8-63.5-10.3-17.9-26.6-27.7-47-30.2-9.9-1.2-19.9-.7-29.8 1.5-31.2 6.8-53.7 25.3-70.7 51.6-2.9 4.5-5.1 9.3-7.9 13.9-2.1 3.4-4.4 7.3-9.2 5.9-4.2-1.3-5.9-5.2-6.6-9.2-.7-3.9-.5-8-1.2-11.9-1.2-5.9-2.4-11.8-4.4-17.4-2.6-7.2-6.7-9.3-14-7.7-3.9.9-7.7 2.2-11.4 3.5-21.4 7.7-43.5 12.6-65.7 17l-47.1 8.9c-5.8 1.2-11.6 2.9-17.2 5-1.3.5-2.4 3.2-2.4 4.9.1 1.7 1.3 4.2 2.7 4.9 2.9 1.4 6.3 2.5 9.4 2.4 21.3-.5 32.9 11.8 40.4 29.8 5.9 14.3 9.2 29.2 11.9 44.3l37.7 212.4c1.9 10.5 4.1 21 5.1 31.5 1.7 18-4.4 32.7-20 42.8-5.6 3.6-11.5 6.8-17 10.5-2.3 1.5-3.2 4.2-2.3 7 .9 2.7 2.9 4.5 5.7 5.1 4.7 1 9.2-.3 13.8-1.3 65.9-13.7 131.9-26.6 198.7-34.5 3.3-.4 6.5-1.4 9.5-2.7 1.6-.7 3.1-2.6 3.7-4.2 1-2.8-.8-5-3-6.8-3.3-2.7-7.2-3.2-11.3-3.3-7.3-.1-14.7 0-22-.3-23.8-1-33.5-8.1-41.4-30.4-5.4-15.1-8.2-30.9-11.1-46.6l-27.6-151.3c-2.7-15-5.7-30.1-4.7-45.7zm-1324 1356c-7.9.6-11.2-2.9-9.5-12.4 3.3-19 7.1-38 10.8-57l146.7-755.5c1-5.2 2.3-10.4 3.9-15.4 1.6-4.8 6.3-5.6 9.1-1.7 3.1 4.3 5.8 8.9 8.5 13.5l407 700.1c.3.6.7 1.2 1 1.7 11.7 20.6 10.3 23.4-13.8 27.6l-545.3 96.3c-5.8 1.1-11.8 1.9-18.4 2.8zm1022.5-1113.4c.1 17.4-.6 34.6-4.4 51.6-5.4 24.4-17.1 44.5-38.2 58.7-15.6 10.6-32.7 14.4-51.2 12.5-16.2-1.7-27-10.5-31.8-26.1-1.6-5.1-2.8-10.3-3.7-15.5l-39.2-222c-3.2-15.8-3.2-31.9-1.4-47.7 3.3-29 25.1-55.4 57.7-64.7 15-4.3 29-.4 41.3 9.1 6.9 5.3 12.3 12 17.3 19.2 8.7 12.7 15.6 26.4 20.4 41 19.8 59.7 31 121 33.2 183.9zm1263.2-221c.7 16.1-1.7 32-4.4 47.7-3.8 23-14 42.9-32.4 58-13.9 11.4-29.7 17.6-47.7 17.7-27 .2-40-11.1-44.7-38.3l-11.3-64.9-31.1-175c-6.9-36.2 5.6-64 32.5-86.7 25.7-21.7 55.7-18.8 77.5 7 12.2 14.4 20.7 30.9 27 48.6 12.4 34.6 20.2 70.4 26.5 106.5 4.8 26.3 7.6 52.7 8.1 79.4zm440.8-56.8c1.2 14.6-1.3 36.9-9.2 58.5-3.7 10-8.4 19.5-15.6 27.7-17.8 20.3-51.7 20.2-67.7 2-5.2-6-10.7-11.9-15.1-18.5-11.6-17.1-20.6-35.7-27.7-55.2-10.5-28.9-17-58.8-22.6-88.9l-6.6-37.3c-6.6-38.3-6.9-76.8-1.8-115.3 2-15.4 7.3-29.8 15.6-42.8 9.6-15.1 23.6-22.9 41.8-22.8 12 .1 21.8 5.2 30.3 13.4 15.1 14.6 26.1 31.8 34.4 51 10.8 25.2 18 51.5 24.4 78.1 11.1 46.4 18.9 93.6 19.8 150.1zM2318 1566.9c-.5-16.6-.7-33.9 2.6-51.1 2-10.5 4.6-20.9 9.4-30.4 2.9-5.9 6.5-11.7 10.8-16.7 19-22 45.2-23.5 66.8-4.1 18.8 16.9 31.1 38.1 39.5 61.6 11.3 31.4 20 63.5 26.4 96.3 8.5 43.2 14.1 86.7 13.5 130.9-.3 23.1-6.4 44.7-16.6 65.2-3.9 7.9-9.1 14.7-16.6 19.6-20.5 13.3-44.3 10.5-61.6-7.9-9.6-10.2-17.2-22-23.9-34.3-14.5-26.5-24-55-30.4-84.3-6.1-28-11.1-56.2-16.4-84.3-3.8-19.8-5-39.7-3.5-60.5z"/></svg>