<?xml version="1.0" encoding="utf-8"?>
<!-- Generator: Adobe Illustrator 23.0.3, SVG Export Plug-In . SVG Version: 6.00 Build 0)  -->
<svg version="1.1" id="Calque_1" xmlns="http://www.w3.org/2000/svg" xmlns:xlink="http://www.w3.org/1999/xlink" x="0px" y="0px"
	 viewBox="0 0 4063 4063" style="enable-background:new 0 0 4063 4063;" xml:space="preserve">
<style type="text/css">
	.st0{fill:#FFFFFF;}
</style>
<path class="st0" d="M60.6,2038v-100c0.1-16.6-1.4-33.4,3.7-49.6c0.4-1.2,0.5-2.7,0.4-4c-1.7-23.4,4.2-46.3,5.1-69.6
	c0.5-14.6,2.9-29.1,5-43.6c2.6-17.8,6.1-35.4,8.8-53.2c6-38.8,13-77.5,22.2-115.6c11.8-48.5,21.7-97.5,38.7-144.7
	c2.3-6.3,4.2-12.7,5.9-19.1c8.6-31.5,20.3-62,31.6-92.6c28.9-78.2,62.8-154.3,101.6-228.1c29.2-55.4,60.7-109.5,95.4-161.8
	c22.5-33.9,45.3-67.5,69.6-100.1s49.7-64.3,75.9-95.4c26.2-31.1,53.3-61.4,80.9-91.2c20.8-22.5,42.4-44.3,65.3-64.7
	c5-4.4,9.7-9.2,14.6-13.7l48.8-44.3c32.7-28.4,65.6-56.5,100.1-82.8c41.9-31.9,84.8-62.4,128.9-91.2
	c51.9-33.9,105.2-65.6,160.4-93.9c49.8-25.5,99.8-50.5,151.8-71.6c53.7-21.8,107.3-43.7,163.2-59.6c3.2-0.9,6.4-2,9.4-3.3
	c30.8-13,63.8-18.2,95.6-27.7c46-13.7,93.2-22.2,140.3-30.7c27.4-4.9,54.5-11.6,82.6-13.5c29.1-1.9,58-7.3,87-10.8
	c6.6-0.8,13.3-0.8,20-0.8c12.6-0.1,25.2,0.4,37.7-3.2c5.6-1.6,11.9-1,17.9-1h228c8,0,16,0,23.8,2.3c3.2,0.9,6.6,1.6,9.8,1.5
	c22.7-0.7,45.2,2.2,67.7,4.6l39.7,4.3c22.4,2.8,45.2,4.5,67.2,9.3c46.1,10.1,93.1,15.9,138.8,28c46.3,12.4,92.9,23.8,138.5,38.8
	c38,12.5,75.8,25.4,113.1,39.8c59.8,23,118.3,48.8,175.3,77.8c44,22.4,87.2,46.1,129.6,71.3c20.1,11.9,40,24.1,59.4,36.9
	c41.2,27.2,81.8,55.2,120.9,85.2c49.7,38.1,98,78,144.2,120.4c36.8,33.9,72.1,69.3,106.9,105.2c16.7,17.2,32.1,35.7,48,53.6
	l10.4,12.2c32.7,36.1,61.2,75.5,90.6,114.2c33,43.5,63.2,89.1,91.9,135.6c47.7,77.2,90.1,157.2,126.6,240.3
	c25.8,58.6,48.6,118.2,68.7,179c22.4,67.7,41.6,136.2,55.2,206.2c3.2,16.3,7.9,32.3,10.9,48.6c4.6,25.5,8.3,51.2,12.2,76.9l7.6,55.3
	c2.2,18.5,4.1,37,5.2,55.6c0.8,13.9-0.1,27.9,5,41.4c2,5.4,1.5,11.8,1.5,17.8v234c0,6,0.4,12.3-1.3,17.9c-5,15.6-4.4,31.5-5.5,47.5
	c-1.4,19.9-4.2,39.6-6.6,59.4l-5.9,45.5c-4,34.4-9.4,68.6-17.5,102.3c-5,20.7-8.3,41.8-13.1,62.5c-27.2,116.4-64.4,229.5-112,339.3
	c-30.2,69.8-64.6,137.6-102.7,203.3c-48.6,83.7-102.4,163.9-163.5,239.1c-20.2,24.8-39.5,50.4-60.6,74.4
	c-29.5,33.5-60.3,65.8-91.9,97.5c-46.1,46.4-94.7,90.1-145.2,131.4c-33.5,27.4-67.5,54.3-103.2,78.9c-32.4,22.3-64.3,45.2-97.6,66.2
	c-37.8,23.9-76.5,46.1-115.6,67.6c-66.7,36.5-135.6,68.5-206.3,96.6c-39,15.5-78.5,29.6-118.3,42.9c-45.6,15.2-91.9,27.3-138.2,39.8
	c-34,9.2-68.9,15-103.5,22.2l-39.1,7.8c-30.1,5.7-60.4,9.5-90.9,12.3c-17.2,1.6-34.3,4.2-51.5,6.4c-1.3,0.2-2.6,0.7-3.9,0.6
	c-28.7-0.8-57,5.3-85.7,5.3h-208c-12,0-24,0.1-35.8-2.8c-3.2-0.8-6.6-1.4-9.9-1.2c-23.4,1.3-46.5-3.1-69.7-5
	c-19.2-1.6-38.2-5.7-57.4-7.2c-20-1.6-39.6-5-59.2-8.7c-62.1-11.7-124-24.4-185.1-41c-95.4-25.9-188-59.3-278.5-98.8
	c-63-27.5-124.2-58.5-183.8-92.7c-63.1-36.1-123.8-76-182.6-118.8c-50.7-36.9-99.2-76.4-146.3-117.9
	c-40.5-35.7-80.1-72.4-117.4-111.5c-24.9-26-48.6-53.1-72.5-80c-30.6-34.4-58.9-70.7-86.4-107.5c-29.5-39.5-57.8-79.9-84.4-121.5
	c-41.7-65.2-79.5-132.6-113.1-202.3c-28.4-58.8-54.3-118.8-76.6-180.2c-15.7-43.2-30.1-86.9-43.2-130.9c-8.3-28.1-14.4-56.8-22.1-85
	c-13.5-49.5-22.6-99.9-29.8-150.7c-1.7-11.8-5.6-23.2-6.6-35.3c-1.6-17.9-6-35.5-7-53.4c-1.3-22.6-6.4-44.9-5.7-67.6
	c0.2-5.9-0.2-12.1-1.7-17.8c-2.5-9.2-2.6-18.4-2.6-27.8L60.6,2038L60.6,2038z M2958,3081.3c31.8,2.5,61.2-2.4,90.4-10.1
	c25.9-6.8,51.2-15.5,74.4-28.6c100.1-56.4,161.6-140.7,181.4-254.4c5.5-31.7,5.9-63.4,2.2-95.5c-2.4-21.3-7.4-41.9-12.5-62.6
	l-76.3-314.6c-8.2-36.7-20.6-71.5-39.2-104.3c-32.4-57.2-77.6-101.3-134.7-133.2c-59.2-33-122.9-46.6-190.4-42.9
	c-41,2.2-80.2,12.3-117.8,28.6c-49.9,21.6-92,53.7-127.1,94.8c-30.1,35.3-52.5,75.3-66.8,119.6c-10.7,33.2-16.2,67.3-15.7,102.3
	c0.3,25.3,0.3,50.6,6.7,75.5c4.2,16.1,7.6,32.4,11.5,48.6l45.2,184.4l11.8,46.5c8,32.3,14.9,64.9,24,96.9
	c19.7,69.4,59.4,126,114.9,171.7c34.9,28.8,74.4,49.4,117.4,62.9c22.1,6.9,44.7,13.5,68.2,14.5
	C2936.9,3081.7,2948.2,3081.3,2958,3081.3L2958,3081.3z M711.4,2334c43.3,1.1,84.4-6.4,124-21.6c94.6-36.2,161.5-101.5,201.2-194.4
	c14.7-34.4,24.9-70.3,25.3-108.3c6.3-26,1.5-52-2.3-77.4c-6.2-41.7-20.6-81-41.4-118.1c-59.5-106.1-178.9-175.9-297.6-176.4
	c-50-0.2-98.1,7.5-144.1,27.5c-67.4,29.4-120.4,75.6-158.9,138.1c-32.8,53.3-50.8,111.1-51.6,174.1c-0.4,36.3,3.9,71.6,12.8,106.8
	l55.2,227.2l46.9,190.2l54.1,223.4c1.4,5.8,2.9,11.7,4.7,17.4c2.8,8.6,6.1,10.7,15,8.8c14.3-3.1,28.5-6.7,42.8-10.1l54.4-13.2
	c11.4-3,13-5.9,10.9-17.1c-1.2-6.5-2.7-13-4.3-19.5l-20.1-79.4l-41.7-172.9l-26.6-108.7c-1.7-7.3-7.3-16.6,0.4-22.4
	c6.3-4.8,13.9,1.7,20.5,4.1C630.2,2326.7,670.3,2335.4,711.4,2334L711.4,2334z M2542.7,2903.9c2.4-20-6.4-52.9-15.3-85.7
	c-4-14.7-9.5-29.2-16-43c-27.1-57.9-66-105.8-119.1-142.2c-41.9-28.7-87.5-48.5-137.3-57.1c-59.3-10.2-118.1-6.6-175.5,13.2
	c-4.4,1.5-8.9,2.9-13.4,3.8c-4.3,0.9-7.9-2.6-7.1-7.1c1-5.9,2.4-11.8,4-17.5l40.2-138.2l57.4-199.7c0.9-3.2,1.9-6.5,2-9.7
	c0.1-2.9-2.1-5.1-5-5.1c-3.3,0-6.6,0.5-9.8,1.3l-100.9,24.5c-26.7,6.4-24.9,6.6-31.8,29.7l-38.7,132.2l-54.6,188l-65.5,224.4
	c-9.5,33.4-15.6,67.5-14.4,102.5c0.5,14.6-0.1,29.5,2.2,43.9c4.3,26.9,9.9,53.6,19.5,79.4c12.8,34.7,30.7,66.7,53.6,95.4
	c28.9,36.2,63.5,66.1,104.3,88.9c33,18.5,67.9,31.1,104.6,38.2c38.8,7.5,78.1,7.6,117.3,1.8c65.6-9.7,124.3-35.6,174.3-78.8
	C2499.2,3116.5,2540.7,3026.7,2542.7,2903.9L2542.7,2903.9z M1440.3,3453.6c14.3,0.8,33.4-1.8,52.5-4.9
	c73.2-11.9,137.6-42.7,189.7-95.3c84.8-85.5,119.1-188.7,101.1-308.4c-2.2-14.5-5-28.8-9.5-42.9c-20.1-63.7-54-118.5-104.8-162.3
	c-43.7-37.7-93.3-63.7-149.8-76c-3.3-0.7-6.6-1-9.8-1.9c-8-2.2-11.2-6.3-9.6-14.8c2.5-13.1,5.6-26,9.3-38.8l85.7-295.6
	c2.8-9.6,5-19.3,7.3-29.1c1.3-5.9-1.7-8.4-8-7.1c-5.2,1.1-10.4,2.4-15.6,3.6l-235,56.9l-254.3,62.3c-5.8,1.4-11.7,2.7-17.4,4.7
	c-7.1,2.4-9.1,6.2-7.7,13.9c0.4,2.6,1.2,5.2,1.9,7.8l21.6,89.4c0.8,3.2,1.8,6.4,2.9,9.6c1.2,3.5,3.8,5.4,7.6,4.9
	c4-0.5,7.9-1.2,11.8-2.2l167-40.7l118.5-28.7c5.1-1.2,10.4-2,15.7-2.3c3-0.2,5.1,2.5,4.8,5.2c-0.4,4.6-1.3,9.2-2.6,13.7l-23.1,80.7
	l-63.3,216.7l-5.4,19.2c-1.3,5.2,1.1,7.7,6.4,6.5c17.5-4,35.2-7.6,52.5-12.4c68.3-19.1,131.2-5.3,188.1,34
	c57.6,39.8,89.2,96.3,93.5,166.5c5.2,83.7-27,150.8-94.2,200.6c-42.9,31.8-91.9,44.7-145.1,40.7c-84.5-6.2-146.8-47.1-187.3-121.3
	c-6.1-11.1-10.4-23-14.5-35c-3.2-9.5-5.9-11.1-14.6-9.1l-89.4,21.3c-1.3,0.3-2.6,0.8-3.8,1.2c-14.3,4.8-14.8,5.7-11.3,19.8
	c0.8,3.2,1.6,6.5,2.7,9.6c24,68.5,63.9,125.8,122.1,169.3C1288.4,3429,1357.9,3453,1440.3,3453.6L1440.3,3453.6z M2871,1105.4
	c-15.3,0.7-30.7,0.4-45.9,2.2c-63.6,7.5-121.1,30.7-172.1,69.5c-51.8,39.4-88.2,90.4-112.4,150.2c-13.3,33-20.5,67.6-22.5,103
	c-2.1,38,0,75.8,9.4,113.1c6.9,27.3,16.6,53.4,29.5,78.4c17,32.8,39.3,61.5,65.8,87.5c51.6,50.6,112.8,81.5,183.6,94.7
	c63.3,11.8,125,4.8,184.6-17.7c53-20,99.5-51,137.4-93.8c29-32.7,51.5-69.4,67.2-110.3c19.5-50.8,25.2-103.3,21.1-157.1
	c-0.7-8.6-2-17.2-3.7-25.7c-3.6-18.2-4.9-18.9-22.4-14.8l-91.2,22.5c-13.5,3.5-14.8,5.1-12.2,17.7c4.9,23.2,4,46.2,0,69.4
	c-13.9,79-58.4,133.9-130.3,167.9c-39.5,18.7-81.2,19.8-123.3,16.2c-24.1-2.1-24-6.9-12.8-25.5l265.6-442.1
	c11.5-19.1,14.2-19.1-7.1-34.9C3017.4,1130.3,2948.7,1104.8,2871,1105.4L2871,1105.4z M1469.9,1709.6c-0.4,25.4,0.5,48.6,5.5,71.6
	c13.8,63.1,40.7,119.6,84.6,167.4c54.6,59.5,121.8,96.4,201.2,110.2c22.9,4,46.1,8.1,69.5,5.8c26.5-2.6,52.9-5.5,78.8-12.5
	c58.5-15.7,109.8-44.1,153.4-86.1c45.1-43.5,76.9-95.1,94-155.5c11.1-39.3,18-79.1,13.1-120.2c-0.3-2.6-0.3-5.3-0.4-8
	c-1.9-31.5-8.8-62.1-19.9-91.5c-29-76.6-77.4-137.5-148.3-179.9c-73.8-44.1-153.2-60.2-238-46.7c-49.9,8-96.2,26.3-138.4,54.6
	c-67.8,45.5-113.7,107.5-139.6,184.6C1473.6,1638.5,1468.4,1674.6,1469.9,1709.6L1469.9,1709.6z M3643.3,1620.9
	c14.7,1.2,34.4-2.7,54.3-4.5c5.2-0.5,10.3-2.5,15.4-4.1c3.5-1.1,5.4-4,5-7.7c-0.4-4-1-7.9-2-11.8l-18.3-75.7
	c-1.7-7.1-3.8-14.2-6.1-21.1c-1.4-4.2-4.6-6.4-9.3-5.6l-15.8,2.4c-17.3,2.4-34.5,2.6-51.8-0.4c-23-4.1-45.6-9.4-66.9-19.5
	c-42.8-20.2-76.5-50.6-100.3-91.4c-14.2-24.3-22.5-50.8-28.7-78.4c-12.4-55.2-26.8-110-40.4-164.9c-5.1-20.7-4.1-22.7,16.3-27.7
	l157.3-37.9c8.4-2,16.8-4.4,25-7.1c6.4-2.1,8.1-5.6,7.1-12.3c-0.2-1.3-0.5-2.6-0.8-3.9l-22.5-93.2c-0.6-2.6-1.3-5.2-2.2-7.7
	c-2.5-6.6-5.5-8.5-12.1-7.4c-4.6,0.8-9.1,1.8-13.7,3l-60.1,15L3362,985.9c-3.9,0.9-7.8,1.6-11.8,2.1c-4.4,0.5-7.9-1.4-9.5-5.6
	c-1.2-3.1-2.2-6.3-2.9-9.5l-13.9-60.3c-3.4-14.2-7.3-28.4-11.1-42.5c-1.9-7.1-4.2-8.4-11.6-7.2c-2,0.3-3.9,0.8-5.9,1.3l-83.5,20.1
	c-26.1,6.6-25.3,4.8-18.8,32.1l36.9,151.4l32.5,131.9l31.3,130.1c5.2,20.6,10.2,41.3,17.4,61.5c21.5,59.8,56.8,110.2,105.7,150.2
	C3480.9,1593.4,3554.7,1620.6,3643.3,1620.9L3643.3,1620.9z M2488.5,1984.8c0-11.3,0.9-22.7-0.2-33.9c-1.2-11.9-3.7-23.7-6.4-35.3
	l-46.1-192.3l-57.6-236.8l-56.9-232.9c-3.2-12.7-5-14-18.3-10.9l-99,24.3c-7.1,1.8-8.8,4.7-7.2,11.7l19.8,83.6l61.9,252.2
	l75.5,310.6c6.6,29.2,10.1,58.8,5.5,89.1c-12.6,84.2-58.4,142.5-135.9,176.5c-7.3,3.2-14.9,5.9-22.2,9.1c-4,1.8-5.9,5.4-5.4,9.8
	c0.3,2.6,0.9,5.2,1.5,7.8l18.8,79.7c1.7,7.1,4.2,14,6.6,21c1.2,3.5,4,5,7.8,4.6c10.8-1.1,20.4-5.8,30.4-9.4
	c61.4-21.8,111.4-60,151.6-110.3C2463.6,2139.6,2488.5,2066.2,2488.5,1984.8L2488.5,1984.8z M1389.8,1581.8
	c-0.2-1.4-0.3-3.4-0.8-5.3l-24.2-98.9c-2.2-8.7-6.1-10.8-14.6-8.8c-2.6,0.6-5.1,1.5-7.7,2.3c-48.5,14.9-91.7,39.1-129,73.7
	c-10.7,10-20.5,20.9-31.1,31c-4.5,4.3-7.4,13-15.3,10.6c-6.5-2-5.5-9.9-7.1-15.6l-6.9-27.1c-5.3-20.7-5.4-20.7-25.1-16l-38.9,9.2
	l-50.4,12.6c-10.8,2.9-12.9,6.3-10.8,17.4c1.3,7.2,3.3,14.3,5,21.4l32.5,131.9l53.7,223.4l48,195.9l17.3,69.8
	c4.1,16.1,6.5,17.4,22.2,14.2c1.3-0.3,2.6-0.7,3.9-1l85.3-21.2c2.6-0.6,5.2-1.3,7.7-2.2c5.3-2,6.9-4.8,6.1-10.9
	c-0.7-4.6-1.7-9.2-2.8-13.7l-10.5-42.7l-57.6-236.8c-8-33-15.9-65.8-14.3-100.4c1-21.6,4.2-42.6,11.6-62.6
	c22.1-59.5,61.2-103.9,119.9-129.8c8.5-3.8,17.1-7.3,26.2-9.7C1388,1590.8,1390,1587.6,1389.8,1581.8L1389.8,1581.8z M2207.4,1145.6
	c56.9,1.2,89-50.6,89.3-86.6c0.3-40.4-34-87.4-85.3-88.5c-48.6-1-88.6,34.7-91.3,86.5C2117.8,1103.5,2160,1145.1,2207.4,1145.6z
	 M2958,2955.9c-81-1.8-144.7-39.4-189.3-109.9c-11.1-17.5-18.4-37-23.4-57.1L2665,2461c-6.4-27.2-13.3-54.3-12-82.7
	c2.7-56,21.3-105.4,60.5-146.1c43.7-45.4,97.6-69.5,160.4-70.2c90.9-1,182.2,55.9,212.7,154.7c7.8,25.4,13.6,51.5,19.9,77.3
	l47.5,194l23.8,99c8.1,34.4,6.4,68.7-2.6,102.8c-11.1,42.4-33.2,78.1-65.2,107.9c-28.4,26.6-61.7,43.8-99.6,52.3
	c-7.8,1.7-15.6,3.4-23.6,4.3C2978.4,2955.3,2969.7,2955.3,2958,2955.9L2958,2955.9z M717.5,1765.7c93.7-2,190.7,64.2,213.4,175.4
	c10.5,51.7,4.6,101-20,147.2c-30,56.3-76.4,94.4-138.1,110c-85.8,21.7-161.3,0.6-221.9-64.7c-58.2-62.7-74.6-156.1-40.3-234.7
	c31.1-71.4,86.2-113.1,161.4-129.6c7.1-1.6,14.4-2.9,21.7-3.5C701.5,1765.2,709.5,1765.7,717.5,1765.7L717.5,1765.7z M1968.6,2918.7
	c0.4-120.4,100.1-224,226-221.4c112.3,2.2,220.7,89.3,219.6,223.6c-1,130-105.4,222.9-226.1,221.3
	C2070.7,3140.6,1968.8,3048.5,1968.6,2918.7L1968.6,2918.7z M2644.7,1455.1c1.6-76.5,30.9-138,92.3-182.8
	c35.4-25.8,75.4-39.4,119.4-39.6c14.6-0.1,29.4,0.1,43.9,1.6c17.4,1.9,19.2,6.6,10,22l-125.9,208.9l-60.5,101.3l-11.5,18.7
	c-13,20.4-15.4,20.2-29.2-0.8c-12.9-19.7-22.8-40.6-29.4-63.2C2647.4,1499.4,2645.7,1476.8,2644.7,1455.1z M1596.8,1712.1
	c-1.6-112.9,84.6-221.1,224.8-225.7c131.4,6.6,221.9,109.4,221.7,227.9c-0.2,109.9-91.1,219.8-220.4,221.1
	C1697.1,1936.8,1595.1,1833.6,1596.8,1712.1z"/>
</svg>
