<?xml version="1.0" encoding="utf-8"?>
<!-- Generator: Adobe Illustrator 23.0.3, SVG Export Plug-In . SVG Version: 6.00 Build 0)  -->
<svg version="1.1" id="Calque_1" xmlns="http://www.w3.org/2000/svg" xmlns:xlink="http://www.w3.org/1999/xlink" x="0px" y="0px"
	 viewBox="0 0 2474 2475" style="enable-background:new 0 0 2474 2475;" xml:space="preserve">
<style type="text/css">
	.st0{fill:#FFFFFF;}
</style>
<g transform="translate(0.000000,2475.000000) scale(0.100000,-0.100000)">
	<path class="st0" d="M20080,19670c-175-42-393-96-510-124c-58-15-115-29-127-31c-13-3-23-12-23-20c0-9,25-118,56-243
		c183-749,233-954,294-1207c28-115,71-291,95-390s60-247,80-330c19-82,42-175,50-205s40-158,70-285c90-377,117-456,225-680
		c157-323,397-602,705-817c69-48,250-158,260-158c2,0,41-17,87-39c129-60,313-119,475-152c125-26,180-31,348-36c215-6,344,4,499,38
		c49,11,92,22,96,24c4,3-6,60-22,127c-16,68-44,186-62,263c-19,77-40,165-49,195s-23,90-32,133c-10,42-20,79-24,81c-3,3-36-3-71-12
		c-88-21-386-21-485,1c-172,37-330,97-460,175c-181,107-366,291-471,467c-29,49-36,62-88,176c-29,65-62,175-106,355
		c-17,71-49,203-71,294s-44,183-50,205c-14,52-70,282-112,461l-33,142l85,22c47,12,149,37,226,55c77,19,217,53,310,75
		c313,77,459,112,574,140c63,14,116,31,118,37c4,11-25,143-57,263c-35,130-120,486-120,501c0,9-6,23-12,32c-14,17-9,18-163-22
		c-22-6-125-31-230-56c-104-25-262-63-350-85c-245-60-538-130-561-135c-24-5-18-23-87,265c-19,80-42,170-50,200s-30,117-47,193
		c-26,108-36,137-49,136C20202,19698,20143,19685,20080,19670z"/>
	<path class="st0" d="M13244,19001c-291-83-466-375-404-677c35-171,176-330,358-402c59-23,81-26,187-26c177,0,270,35,392,147
		c203,189,237,497,82,728C13729,18964,13463,19064,13244,19001z"/>
	<path class="st0" d="M17365,18183c-433-30-793-148-1124-368c-672-446-1040-1244-952-2060c21-196,85-462,142-593
		c139-320,266-510,488-733c118-117,181-170,326-274c52-37,147-91,250-143c472-237,1011-291,1525-153c303,82,564,211,805,400
		c105,82,310,293,394,406c205,273,338,575,402,909c54,278,51,578-8,837c-11,51-19,69-32,69c-16-1-176-38-336-78
		c-144-36-258-64-350-86c-49-11-95-24-101-28c-8-5-5-33,8-95c17-75,19-114,15-258c-4-146-9-187-35-286c-84-326-276-601-549-786
		c-136-91-197-121-369-178c-189-63-458-76-671-34c-29,6-53,13-53,15c0,3,13,24,28,47c16,23,72,116,126,207c135,227,234,393,846,1410
		c715,1189,780,1298,780,1304c0,10-151,128-241,187c-162,108-384,215-546,264c-211,65-388,93-608,98
		C17459,18184,17387,18184,17365,18183z M17650,17339c46-5,89-13,96-17c8-5-49-109-183-332c-108-179-209-347-225-375
		c-16-27-50-84-75-125s-60-100-78-130s-116-194-219-364s-264-438-358-595s-174-290-178-294c-21-23-198,290-249,440
		c-39,116-65,287-65,438c-1,144,2,172,28,310c88,451,426,837,861,983c81,27,200,55,280,65C17351,17352,17570,17349,17650,17339z"/>
	<path class="st0" d="M13675,17263c-214-52-392-97-393-98c-5-4,33-177,54-250c8-27,37-144,65-260c27-115,65-273,84-350
		s54-225,79-330c25-104,55-224,66-265s29-115,40-165c11-49,29-124,40-165c18-69,48-189,161-665c23-93,47-190,55-215
		c7-25,27-108,44-184c17-77,33-143,36-147c2-4,20-75,39-156s53-222,75-313c146-601,167-689,184-810c47-320-51-703-247-969
		c-57-77-180-205-257-265c-125-99-307-195-443-231c-37-10-71-23-76-29c-5-7,30-170,88-406l97-395l34,3c42,3,251,74,339,114
		c283,129,447,243,662,457c118,118,171,181,274,326c151,212,295,564,338,825c32,190,36,238,32,440c-3,208-22,367-61,500
		c-9,30-27,102-40,160s-33,139-44,180s-41,161-66,265c-25,105-63,262-84,350c-22,88-60,246-85,350c-25,105-52,215-60,245
		c-9,30-29,111-45,180s-47,202-70,295c-23,94-58,235-77,315c-64,264-101,413-143,585c-23,94-56,233-74,310c-19,77-40,165-49,195
		c-8,30-38,154-67,275c-73,305-95,389-106,391C14069,17358,13890,17316,13675,17263z"/>
	<path class="st0" d="M10810,16603c-59-4-249-31-260-38c-3-2-58-16-121-30c-62-15-127-33-144-40c-16-8-52-22-80-31
		c-134-44-384-181-525-287c-81-60-238-197-270-234c-13-15-45-52-72-82c-262-288-461-715-524-1121c-31-205-24-563,16-750
		c63-293,181-579,332-804c360-536,942-891,1581-964c34-4,157-7,272-6c165,1,236,5,330,22c376,66,701,209,1000,441
		c97,75,309,290,381,386c238,316,391,683,439,1050c24,188,19,495-12,665c-15,83-73,301-98,365c-14,39-30,81-35,95
		c-14,44-92,201-138,279c-207,351-490,624-852,823C11656,16547,11265,16630,10810,16603z M11250,15745c169-35,346-109,488-203
		c132-87,293-245,366-358c17-27,33-51,36-54c19-17,106-206,135-294c48-148,67-266,66-432c0-172-19-291-72-444
		c-188-546-702-912-1280-911c-436,0-833,202-1100,561c-263,353-331,855-174,1274c74,197,167,340,319,491c115,115,194,173,331,245
		c100,52,286,114,385,129c41,6,86,13,100,15C10903,15774,11178,15761,11250,15745z"/>
	<path class="st0" d="M8074,15935c-170-50-351-128-498-213c-194-113-428-310-559-471l-60-73l-38,153c-22,85-44,180-50,212
		c-14,69,5,68-219,13c-80-19-210-50-290-70c-160-38-314-77-318-81c-1-1,11-55,28-120s42-165,55-224c14-58,44-180,66-271
		s56-228,74-305c19-77,41-167,49-200c9-33,38-154,66-270c28-115,68-282,90-370c21-88,57-236,79-330c23-93,48-195,56-225
		s32-129,54-220s60-249,85-352c26-104,66-272,91-375c25-104,54-222,65-263s31-122,44-180s30-130,39-160c8-30,29-116,47-191
		s35-141,39-147c5-8,38-4,116,17c61,16,209,52,330,81s249,60,285,70l65,17l-2,39c-1,22-24,131-52,244c-118,481-330,1354-387,1590
		c-19,80-41,170-49,200c-47,184-60,427-31,600c46,277,191,548,399,746c177,168,361,270,615,340c8,2,11,12,8,21
		c-5,16-113,460-170,697c-12,49-26,91-31,92C8159,15958,8119,15948,8074,15935z"/>
	<path class="st0" d="M3875,14876c-151-19-367-71-465-110c-343-138-561-277-791-506c-284-283-483-632-583-1025
		c-49-190-70-392-63-600c7-187,17-266,57-430c16-66,50-205,75-310c25-104,64-264,86-355s49-199,59-240c11-41,41-160,66-265
		c25-104,63-262,84-350c22-88,60-245,85-350c25-104,52-215,60-245c9-30,29-111,45-180s48-201,70-295c23-93,58-235,77-315
		c64-264,101-413,143-585c23-93,56-233,74-310c19-77,40-165,49-195s26-102,38-159c13-56,28-105,33-107c11-4,794,181,802,189
		c3,3-18,99-46,213c-73,298-151,619-205,839c-25,105-68,280-95,390s-67,277-90,370c-23,94-70,289-106,435c-82,338-83,344-80,347
		c1,1,20-6,42-18c90-46,364-128,484-144c25-3,72-10,105-15c339-54,790,14,1150,173c113,50,294,153,370,210c327,246,533,488,701,827
		c296,595,304,1264,23,1877c-102,222-243,419-443,618c-283,282-617,472-1001,570c-16,5-34,9-40,11c-5,2-57,12-115,24
		C4395,14887,4028,14896,3875,14876z M4414,14034c405-74,769-355,949-737c107-225,156-505,128-733c-74-588-488-1039-1071-1164
		c-277-60-603-19-859,108c-389,193-664,564-736,992c-21,125-17,391,8,505c86,390,337,717,692,898c161,83,293,121,525,151
		C4110,14061,4329,14050,4414,14034z"/>
	<path class="st0" d="M17360,12434c-331-27-687-139-960-303c-576-346-969-940-1055-1597c-17-133-20-382-5-522
		c14-131,32-209,231-1022c33-135,80-328,105-430c294-1209,296-1217,413-1448c204-401,526-730,923-945c519-280,1155-334,1721-146
		c148,50,239,90,387,172c222,123,481,351,655,578c164,212,315,527,381,796c43,175,54,257,61,454c9,288-4,375-154,984
		c-19,77-47,196-64,265c-16,69-38,159-49,200s-41,161-66,265c-25,105-65,273-90,375s-63,259-85,350c-76,313-121,479-157,575
		c-95,253-261,516-454,720c-329,348-799,593-1268,661C17727,12430,17449,12441,17360,12434z M17765,11580c93-17,263-76,356-123
		c143-74,230-136,345-251c117-117,184-208,253-342c65-129,86-195,170-541c44-181,107-440,141-578c94-383,326-1343,341-1410
		c18-79,18-417,1-500c-58-271-188-513-381-705c-175-176-374-287-622-350c-101-26-151-33-269-37c-174-6-283,6-427,47
		c-433,125-775,456-915,883c-28,85-45,155-127,502c-17,72-40,164-51,205s-40,161-65,265c-54,226-117,485-140,575
		c-9,36-31,128-50,205c-18,77-42,176-53,220s-30,121-42,170c-44,175-59,286-60,427c0,240,37,404,140,613c126,257,320,453,594,599
		c96,51,294,114,412,131C17426,11601,17665,11598,17765,11580z"/>
	<path class="st0" d="M13119,11336c-2-2-74-21-159-41s-216-52-290-70s-196-47-270-64c-194-45-183-38-207-129c-11-42-42-149-68-237
		c-45-155-60-205-160-550c-26-88-63-214-82-280c-62-215-100-345-186-640c-47-159-97-330-111-380c-30-105-89-307-141-485
		c-20-69-52-177-70-240s-54-187-80-275s-62-214-82-280c-91-314-106-413-107-705c-1-204,2-253,22-370c136-779,628-1392,1358-1691
		c106-43,302-97,449-124c132-24,468-29,615-10c848,112,1541,678,1814,1482c149,438,154,892,15,1346c-22,72-52,158-67,191
		c-33,75-130,266-146,286c-7,8-18,27-25,42c-8,15-46,70-85,122c-336,449-806,742-1361,852c-11,2-42,8-70,14c-80,17-436,24-555,11
		c-171-18-309-48-469-102c-63-21-116-37-118-36c-1,2,14,62,34,133s46,165,58,209c13,44,48,168,80,275c77,265,201,693,236,815
		c15,55,46,163,69,240c53,185,100,349,149,520c22,77,43,148,46,158c5,13,2,17-12,17C13132,11340,13121,11338,13119,11336z
		 M13555,8266c144-30,338-108,455-184c335-218,548-538,614-921c20-114,21-322,1-432c-57-329-236-640-480-834c-27-22-52-42-55-45
		c-17-17-129-84-197-118c-308-155-701-184-1032-76c-348,114-651,380-804,707c-15,32-27,60-27,63s-7,20-15,37c-8,18-29,88-46,157
		c-116,464,33,964,387,1300c50,47,124,108,165,136c152,103,369,191,540,219C13166,8292,13455,8287,13555,8266z"/>
	<path class="st0" d="M9540,10309c-63-16-182-46-265-65c-267-64-701-169-910-221c-77-19-196-47-265-64c-69-16-159-38-200-49
		s-169-43-285-71c-115-27-284-68-375-90c-91-21-187-46-215-54c-27-7-201-50-385-95c-184-44-342-84-351-88c-15-6-5-54,82-406
		c55-220,101-402,104-404c5-5,183,38,1298,310c384,93,700,168,702,166s-14-67-36-143c-23-77-48-165-56-195s-23-84-35-120
		c-11-36-33-110-49-165c-43-152-99-343-184-635c-42-146-92-317-110-380s-57-194-85-290c-29-96-54-182-57-191s-1-19,4-22
		c4-3,87,15,183,39c366,92,399,97,575,97c237-1,421-44,620-145c333-169,546-415,688-794c30-80,59-258,63-389c7-249-61-514-187-729
		c-121-205-319-399-521-510c-247-135-577-198-838-160c-327,48-575,170-801,394c-158,156-263,327-339,550c-18,52-33,96-34,97
		c-3,4-766-184-773-190c-21-22,78-304,171-487c33-66,88-164,95-170c3-3,32-44,64-92c152-228,424-481,677-628
		c423-248,877-344,1362-289c84,9,171,22,193,28c22,5,75,19,118,30c279,71,565,213,802,400c91,72,287,267,358,357
		c210,267,380,636,437,945c59,316,45,686-36,984c-146,540-478,986-955,1286c-104,65-321,169-414,198c-38,12-81,28-95,35
		s-76,22-139,32c-68,11-115,24-118,31c-7,18,136,542,242,888c13,44,29,100,35,125s24,88,40,140s48,160,70,240c23,80,53,183,67,230
		s38,130,53,185s57,203,94,329c36,125,66,232,66,237C9690,10345,9665,10341,9540,10309z"/>
</g>
</svg>
