<?xml version="1.0" standalone="no"?>
<!DOCTYPE svg PUBLIC "-//W3C//DTD SVG 20010904//EN"
 "http://www.w3.org/TR/2001/REC-SVG-20010904/DTD/svg10.dtd">
<svg version="1.0" xmlns="http://www.w3.org/2000/svg"
 width="2474.000000pt" height="2475.000000pt" viewBox="0 0 2474.000000 2475.000000"
 preserveAspectRatio="xMidYMid meet">

<g transform="translate(0.000000,2475.000000) scale(0.100000,-0.100000)"
fill="#000000" stroke="none">
<path d="M20080 19670 c-175 -42 -393 -96 -510 -124 -58 -15 -115 -29 -127
-31 -13 -3 -23 -12 -23 -20 0 -9 25 -118 56 -243 183 -749 233 -954 294 -1207
28 -115 71 -291 95 -390 24 -99 60 -247 80 -330 19 -82 42 -175 50 -205 8 -30
40 -158 70 -285 90 -377 117 -456 225 -680 157 -323 397 -602 705 -817 69 -48
250 -158 260 -158 2 0 41 -17 87 -39 129 -60 313 -119 475 -152 125 -26 180
-31 348 -36 215 -6 344 4 499 38 49 11 92 22 96 24 4 3 -6 60 -22 127 -16 68
-44 186 -62 263 -19 77 -40 165 -49 195 -9 30 -23 90 -32 133 -10 42 -20 79
-24 81 -3 3 -36 -3 -71 -12 -88 -21 -386 -21 -485 1 -172 37 -330 97 -460 175
-181 107 -366 291 -471 467 -29 49 -36 62 -88 176 -29 65 -62 175 -106 355
-17 71 -49 203 -71 294 -22 91 -44 183 -50 205 -14 52 -70 282 -112 461 l-33
142 85 22 c47 12 149 37 226 55 77 19 217 53 310 75 313 77 459 112 574 140
63 14 116 31 118 37 4 11 -25 143 -57 263 -35 130 -120 486 -120 501 0 9 -6
23 -12 32 -14 17 -9 18 -163 -22 -22 -6 -125 -31 -230 -56 -104 -25 -262 -63
-350 -85 -245 -60 -538 -130 -561 -135 -24 -5 -18 -23 -87 265 -19 80 -42 170
-50 200 -8 30 -30 117 -47 193 -26 108 -36 137 -49 136 -9 -1 -68 -14 -131
-29z"/>
<path d="M13244 19001 c-291 -83 -466 -375 -404 -677 35 -171 176 -330 358
-402 59 -23 81 -26 187 -26 177 0 270 35 392 147 203 189 237 497 82 728 -130
193 -396 293 -615 230z"/>
<path d="M17365 18183 c-433 -30 -793 -148 -1124 -368 -672 -446 -1040 -1244
-952 -2060 21 -196 85 -462 142 -593 139 -320 266 -510 488 -733 118 -117 181
-170 326 -274 52 -37 147 -91 250 -143 472 -237 1011 -291 1525 -153 303 82
564 211 805 400 105 82 310 293 394 406 205 273 338 575 402 909 54 278 51
578 -8 837 -11 51 -19 69 -32 69 -16 -1 -176 -38 -336 -78 -144 -36 -258 -64
-350 -86 -49 -11 -95 -24 -101 -28 -8 -5 -5 -33 8 -95 17 -75 19 -114 15 -258
-4 -146 -9 -187 -35 -286 -84 -326 -276 -601 -549 -786 -136 -91 -197 -121
-369 -178 -189 -63 -458 -76 -671 -34 -29 6 -53 13 -53 15 0 3 13 24 28 47 16
23 72 116 126 207 135 227 234 393 846 1410 715 1189 780 1298 780 1304 0 10
-151 128 -241 187 -162 108 -384 215 -546 264 -211 65 -388 93 -608 98 -66 1
-138 1 -160 0z m285 -844 c46 -5 89 -13 96 -17 8 -5 -49 -109 -183 -332 -108
-179 -209 -347 -225 -375 -16 -27 -50 -84 -75 -125 -25 -41 -60 -100 -78 -130
-18 -30 -116 -194 -219 -364 -103 -170 -264 -438 -358 -595 -94 -157 -174
-290 -178 -294 -21 -23 -198 290 -249 440 -39 116 -65 287 -65 438 -1 144 2
172 28 310 88 451 426 837 861 983 81 27 200 55 280 65 66 9 285 6 365 -4z"/>
<path d="M13675 17263 c-214 -52 -392 -97 -393 -98 -5 -4 33 -177 54 -250 8
-27 37 -144 65 -260 27 -115 65 -273 84 -350 19 -77 54 -225 79 -330 25 -104
55 -224 66 -265 11 -41 29 -115 40 -165 11 -49 29 -124 40 -165 18 -69 48
-189 161 -665 23 -93 47 -190 55 -215 7 -25 27 -108 44 -184 17 -77 33 -143
36 -147 2 -4 20 -75 39 -156 19 -81 53 -222 75 -313 146 -601 167 -689 184
-810 47 -320 -51 -703 -247 -969 -57 -77 -180 -205 -257 -265 -125 -99 -307
-195 -443 -231 -37 -10 -71 -23 -76 -29 -5 -7 30 -170 88 -406 l97 -395 34 3
c42 3 251 74 339 114 283 129 447 243 662 457 118 118 171 181 274 326 151
212 295 564 338 825 32 190 36 238 32 440 -3 208 -22 367 -61 500 -9 30 -27
102 -40 160 -13 58 -33 139 -44 180 -11 41 -41 161 -66 265 -25 105 -63 262
-84 350 -22 88 -60 246 -85 350 -25 105 -52 215 -60 245 -9 30 -29 111 -45
180 -16 69 -47 202 -70 295 -23 94 -58 235 -77 315 -64 264 -101 413 -143 585
-23 94 -56 233 -74 310 -19 77 -40 165 -49 195 -8 30 -38 154 -67 275 -73 305
-95 389 -106 391 -5 2 -184 -40 -399 -93z"/>
<path d="M10810 16603 c-59 -4 -249 -31 -260 -38 -3 -2 -58 -16 -121 -30 -62
-15 -127 -33 -144 -40 -16 -8 -52 -22 -80 -31 -134 -44 -384 -181 -525 -287
-81 -60 -238 -197 -270 -234 -13 -15 -45 -52 -72 -82 -262 -288 -461 -715
-524 -1121 -31 -205 -24 -563 16 -750 63 -293 181 -579 332 -804 360 -536 942
-891 1581 -964 34 -4 157 -7 272 -6 165 1 236 5 330 22 376 66 701 209 1000
441 97 75 309 290 381 386 238 316 391 683 439 1050 24 188 19 495 -12 665
-15 83 -73 301 -98 365 -14 39 -30 81 -35 95 -14 44 -92 201 -138 279 -207
351 -490 624 -852 823 -374 205 -765 288 -1220 261z m440 -858 c169 -35 346
-109 488 -203 132 -87 293 -245 366 -358 17 -27 33 -51 36 -54 19 -17 106
-206 135 -294 48 -148 67 -266 66 -432 0 -172 -19 -291 -72 -444 -188 -546
-702 -912 -1280 -911 -436 0 -833 202 -1100 561 -263 353 -331 855 -174 1274
74 197 167 340 319 491 115 115 194 173 331 245 100 52 286 114 385 129 41 6
86 13 100 15 53 10 328 -3 400 -19z"/>
<path d="M8074 15935 c-170 -50 -351 -128 -498 -213 -194 -113 -428 -310 -559
-471 l-60 -73 -38 153 c-22 85 -44 180 -50 212 -14 69 5 68 -219 13 -80 -19
-210 -50 -290 -70 -160 -38 -314 -77 -318 -81 -1 -1 11 -55 28 -120 17 -65 42
-165 55 -224 14 -58 44 -180 66 -271 22 -91 56 -228 74 -305 19 -77 41 -167
49 -200 9 -33 38 -154 66 -270 28 -115 68 -282 90 -370 21 -88 57 -236 79
-330 23 -93 48 -195 56 -225 8 -30 32 -129 54 -220 22 -91 60 -249 85 -352 26
-104 66 -272 91 -375 25 -104 54 -222 65 -263 11 -41 31 -122 44 -180 13 -58
30 -130 39 -160 8 -30 29 -116 47 -191 18 -75 35 -141 39 -147 5 -8 38 -4 116
17 61 16 209 52 330 81 121 29 249 60 285 70 l65 17 -2 39 c-1 22 -24 131 -52
244 -118 481 -330 1354 -387 1590 -19 80 -41 170 -49 200 -47 184 -60 427 -31
600 46 277 191 548 399 746 177 168 361 270 615 340 8 2 11 12 8 21 -5 16
-113 460 -170 697 -12 49 -26 91 -31 92 -6 2 -46 -8 -91 -21z"/>
<path d="M3875 14876 c-151 -19 -367 -71 -465 -110 -343 -138 -561 -277 -791
-506 -284 -283 -483 -632 -583 -1025 -49 -190 -70 -392 -63 -600 7 -187 17
-266 57 -430 16 -66 50 -205 75 -310 25 -104 64 -264 86 -355 22 -91 49 -199
59 -240 11 -41 41 -160 66 -265 25 -104 63 -262 84 -350 22 -88 60 -245 85
-350 25 -104 52 -215 60 -245 9 -30 29 -111 45 -180 16 -69 48 -201 70 -295
23 -93 58 -235 77 -315 64 -264 101 -413 143 -585 23 -93 56 -233 74 -310 19
-77 40 -165 49 -195 9 -30 26 -102 38 -159 13 -56 28 -105 33 -107 11 -4 794
181 802 189 3 3 -18 99 -46 213 -73 298 -151 619 -205 839 -25 105 -68 280
-95 390 -27 110 -67 277 -90 370 -23 94 -70 289 -106 435 -82 338 -83 344 -80
347 1 1 20 -6 42 -18 90 -46 364 -128 484 -144 25 -3 72 -10 105 -15 339 -54
790 14 1150 173 113 50 294 153 370 210 327 246 533 488 701 827 296 595 304
1264 23 1877 -102 222 -243 419 -443 618 -283 282 -617 472 -1001 570 -16 5
-34 9 -40 11 -5 2 -57 12 -115 24 -135 27 -502 36 -655 16z m539 -842 c405
-74 769 -355 949 -737 107 -225 156 -505 128 -733 -74 -588 -488 -1039 -1071
-1164 -277 -60 -603 -19 -859 108 -389 193 -664 564 -736 992 -21 125 -17 391
8 505 86 390 337 717 692 898 161 83 293 121 525 151 60 7 279 -4 364 -20z"/>
<path d="M17360 12434 c-331 -27 -687 -139 -960 -303 -576 -346 -969 -940
-1055 -1597 -17 -133 -20 -382 -5 -522 14 -131 32 -209 231 -1022 33 -135 80
-328 105 -430 294 -1209 296 -1217 413 -1448 204 -401 526 -730 923 -945 519
-280 1155 -334 1721 -146 148 50 239 90 387 172 222 123 481 351 655 578 164
212 315 527 381 796 43 175 54 257 61 454 9 288 -4 375 -154 984 -19 77 -47
196 -64 265 -16 69 -38 159 -49 200 -11 41 -41 161 -66 265 -25 105 -65 273
-90 375 -25 102 -63 259 -85 350 -76 313 -121 479 -157 575 -95 253 -261 516
-454 720 -329 348 -799 593 -1268 661 -103 14 -381 25 -470 18z m405 -854 c93
-17 263 -76 356 -123 143 -74 230 -136 345 -251 117 -117 184 -208 253 -342
65 -129 86 -195 170 -541 44 -181 107 -440 141 -578 94 -383 326 -1343 341
-1410 18 -79 18 -417 1 -500 -58 -271 -188 -513 -381 -705 -175 -176 -374
-287 -622 -350 -101 -26 -151 -33 -269 -37 -174 -6 -283 6 -427 47 -433 125
-775 456 -915 883 -28 85 -45 155 -127 502 -17 72 -40 164 -51 205 -11 41 -40
161 -65 265 -54 226 -117 485 -140 575 -9 36 -31 128 -50 205 -18 77 -42 176
-53 220 -11 44 -30 121 -42 170 -44 175 -59 286 -60 427 0 240 37 404 140 613
126 257 320 453 594 599 96 51 294 114 412 131 110 16 349 13 449 -5z"/>
<path d="M13119 11336 c-2 -2 -74 -21 -159 -41 -85 -20 -216 -52 -290 -70 -74
-18 -196 -47 -270 -64 -194 -45 -183 -38 -207 -129 -11 -42 -42 -149 -68 -237
-45 -155 -60 -205 -160 -550 -26 -88 -63 -214 -82 -280 -62 -215 -100 -345
-186 -640 -47 -159 -97 -330 -111 -380 -30 -105 -89 -307 -141 -485 -20 -69
-52 -177 -70 -240 -18 -63 -54 -187 -80 -275 -26 -88 -62 -214 -82 -280 -91
-314 -106 -413 -107 -705 -1 -204 2 -253 22 -370 136 -779 628 -1392 1358
-1691 106 -43 302 -97 449 -124 132 -24 468 -29 615 -10 848 112 1541 678
1814 1482 149 438 154 892 15 1346 -22 72 -52 158 -67 191 -33 75 -130 266
-146 286 -7 8 -18 27 -25 42 -8 15 -46 70 -85 122 -336 449 -806 742 -1361
852 -11 2 -42 8 -70 14 -80 17 -436 24 -555 11 -171 -18 -309 -48 -469 -102
-63 -21 -116 -37 -118 -36 -1 2 14 62 34 133 20 71 46 165 58 209 13 44 48
168 80 275 77 265 201 693 236 815 15 55 46 163 69 240 53 185 100 349 149
520 22 77 43 148 46 158 5 13 2 17 -12 17 -11 0 -22 -2 -24 -4z m436 -3070
c144 -30 338 -108 455 -184 335 -218 548 -538 614 -921 20 -114 21 -322 1
-432 -57 -329 -236 -640 -480 -834 -27 -22 -52 -42 -55 -45 -17 -17 -129 -84
-197 -118 -308 -155 -701 -184 -1032 -76 -348 114 -651 380 -804 707 -15 32
-27 60 -27 63 0 3 -7 20 -15 37 -8 18 -29 88 -46 157 -116 464 33 964 387
1300 50 47 124 108 165 136 152 103 369 191 540 219 105 17 394 12 494 -9z"/>
<path d="M9540 10309 c-63 -16 -182 -46 -265 -65 -267 -64 -701 -169 -910
-221 -77 -19 -196 -47 -265 -64 -69 -16 -159 -38 -200 -49 -41 -11 -169 -43
-285 -71 -115 -27 -284 -68 -375 -90 -91 -21 -187 -46 -215 -54 -27 -7 -201
-50 -385 -95 -184 -44 -342 -84 -351 -88 -15 -6 -5 -54 82 -406 55 -220 101
-402 104 -404 5 -5 183 38 1298 310 384 93 700 168 702 166 2 -2 -14 -67 -36
-143 -23 -77 -48 -165 -56 -195 -8 -30 -23 -84 -35 -120 -11 -36 -33 -110 -49
-165 -43 -152 -99 -343 -184 -635 -42 -146 -92 -317 -110 -380 -18 -63 -57
-194 -85 -290 -29 -96 -54 -182 -57 -191 -3 -9 -1 -19 4 -22 4 -3 87 15 183
39 366 92 399 97 575 97 237 -1 421 -44 620 -145 333 -169 546 -415 688 -794
30 -80 59 -258 63 -389 7 -249 -61 -514 -187 -729 -121 -205 -319 -399 -521
-510 -247 -135 -577 -198 -838 -160 -327 48 -575 170 -801 394 -158 156 -263
327 -339 550 -18 52 -33 96 -34 97 -3 4 -766 -184 -773 -190 -21 -22 78 -304
171 -487 33 -66 88 -164 95 -170 3 -3 32 -44 64 -92 152 -228 424 -481 677
-628 423 -248 877 -344 1362 -289 84 9 171 22 193 28 22 5 75 19 118 30 279
71 565 213 802 400 91 72 287 267 358 357 210 267 380 636 437 945 59 316 45
686 -36 984 -146 540 -478 986 -955 1286 -104 65 -321 169 -414 198 -38 12
-81 28 -95 35 -14 7 -76 22 -139 32 -68 11 -115 24 -118 31 -7 18 136 542 242
888 13 44 29 100 35 125 6 25 24 88 40 140 16 52 48 160 70 240 23 80 53 183
67 230 14 47 38 130 53 185 15 55 57 203 94 329 36 125 66 232 66 237 0 14
-25 10 -150 -22z"/>
</g>
</svg>
