<svg xmlns="http://www.w3.org/2000/svg" baseProfile="tiny" viewBox="0 0 1010 1010"><path fill="#e99d4d" d="M469 6h77l74.1 12.6c13.5 2.7 26.9 6.5 40 10.9 14.1 4.8 27.9 10.5 41.7 16.3 12.6 5.3 25.1 11.1 37.4 17.2 7.7 3.8 15 8.5 22.4 13.1 11.6 7.2 23.5 14 34.4 22.2 16.9 12.6 33.8 25.4 49.3 39.7 15.5 14.2 29.8 29.8 43.6 45.7 10.9 12.4 20.8 25.6 30.3 39.1 14.6 20.9 27.3 43.1 38.2 66.2 5.1 10.8 9.5 22 13.9 33 3.8 9.5 8.1 19 10.8 28.9 6.7 24.2 14.4 48.3 17.8 73.3l4 29.8 2.2 14.9v78c-.4 1-1.2 2-1.3 3-2.3 26.6-6.8 52.8-13.4 78.8-8.5 33.5-20.2 65.7-35.4 96.6-6.1 12.4-12.6 24.6-20 36.2-11.9 18.6-24 37.2-37.4 54.8-20.3 26.7-43.8 50.5-69.6 72.1-21.1 17.8-43.3 34-67.2 47.7-14.9 8.5-30.3 16.2-45.8 23.8-8.8 4.3-18 7.7-27.1 11.4s-18.1 7.9-27.6 10.4c-24.1 6.5-47.9 14.3-72.8 17.7l-30.3 4.2-15.2 2.3h-78l-27.5-4.3-50.6-9.5c-5.3-1-10.4-2.6-14.8-3.8 1.1-2.2 2.6-3.9 2.8-5.7.9-6.7 1.4-13.5 2-20.2l28-301.1 8.2-91.5 8.5-86.1c1.4-11.9 3.9-23.7 7.4-35.2 5.7-19 13.8-37.1 29-50.4 8-7 7.6-13.4 4-21.5-.1-.3-.4-.5-.3-.3-50.7 16.5-102.2 29.2-154.2 40.9l3.5 13.4c10.6-.6 20.8-1.9 30.9-1.7 21.3.4 36.3 11.3 45.1 30.4 7.8 17.1 10.2 35.6 11.1 54.2 1.8 37.3-2.7 74.3-6.2 111.3l-7.8 82.5-5.1 56.1-6.1 63.9-3 28.7c-2.1-1.7-3.7-2.4-4.6-3.7l-12.7-17.6-37.7-50.6-50.6-68.4-35.4-48-26.4-35.5-34-45.9c-14.5-20.2-29.8-39.9-42.8-61-10.4-17-9.8-33.5 12.6-43.4 9.4-4.2 19-8.1 28.8-12.3l-3.8-13.6c-2.2.5-4 .7-5.7 1.2l-33.7 11.1c-11.1 3.3-22.5 6-33.7 9L6 500v-35c.3-.8.8-1.6 1-2.5 2.5-17.7 4.3-35.6 7.8-53.2 3.4-17 8.4-33.6 13-50.3 6.9-25.2 16.9-49.2 28.4-72.5 6.3-12.7 13.3-25 20.6-37.2 6.9-11.5 14.2-22.7 21.8-33.7 21.3-31 46.6-58.6 74.6-83.6 13.3-11.9 27.3-22.9 41.8-33.3 13.6-9.8 27.8-18.9 42.5-26.9 18.9-10.2 38.4-19.3 57.9-28.2 11.5-5.2 23.3-10 35.3-13.4 24-6.7 47.9-14.3 72.8-17.7l30.3-4.3L469 6zm90.2 418.2c2.2.5 3.4 1.1 4.5 1 4.6-.3 8.6.7 10.6 5.4 1.9 4.7 4 9.4 5.5 14.3 2.9 10.1 5.5 20.4 8.4 31.2-4.6-1.2-8.6-3.2-12.4-2.9-6.4.5-12.9 1.9-19 3.9-11.3 3.8-18.4 12.9-22.2 23.2-4.1 11.2-3.6 23.4.3 35l4.9 14.4c4.2 10.9 10.9 20 21.6 25.3 7.6 3.7 15.5 3.8 24 2.2 9.6-1.7 18.1-7.8 21.1-17 .5-1.5 1.4-2.8 2.1-4.2.4.1.8.2 1.1.3l3.7 13.1 36.9-9.8c.8-.2 1.3-1.5 1.9-2.3-1.2-.5-2.3-1.5-3.5-1.4-5.9.3-10.9-2.9-12.4-8.4l-36.6-136.7-40.5 13.4zM745 458.9c.6 12 3.3 23.5 8.2 34.4 8.3 18.7 20.6 26.7 40.7 26.4 8-.1 16.3-2.3 23.9-5.2 8.6-3.3 16-8.8 21.2-17.1 8-12.6 6.6-26.1 3.8-39.4-1.8-8.4-5.3-16.8-9.5-24.4-5.5-10-14.2-16.7-25.8-18.8-10.9-2-21.2-.3-31.7 3.2-18.1 6-30.6 21-30.8 40.9zm-14.8 12.8c-1.8-4.8-3.2-9.2-5.1-13.3-5.2-10.9-16.2-18.8-28.8-17.7-6.2.5-12.7 1.6-18.4 4-6.1 2.5-12.3 6-16.9 10.5-10.7 10.6-14.4 23.8-12.2 38.9 2.1 14.9 6 28.7 16.8 40.1 10.1 10.7 29.9 16 43.7 10.6 10.8-4.3 19.9-10.8 25-21.8 2.6-5.6 4-11.4 3.4-17.7-1.4.7-2.3 1.6-2.7 2.7-2.8 7.4-7.3 13.2-14.4 17-8.8 4.8-19.4 3.8-26.9-2.3-11.4-9.3-14.3-22.6-17.9-36.2l54.4-14.8zM483.8 602.4c.4.4.8.9 1.1 1.3l51.7-13.9.3-1.6c-1.4-.5-2.8-1.5-4-1.4-6.9.8-10.9-1.5-12.6-7.9l-16.5-62.1-6.9-25.1-40.1 12.3c1.8 1.3 2.7 2.4 3.7 2.5 9 .9 12.4 3.4 14.5 11.2l18.3 68.3c1.7 6.2-.6 10.2-6.8 13.2-1.1.6-1.8 2.2-2.7 3.2zm-28.5-139.3c.6 4.2 2 9.2 8 12.1 7.3 3.6 13.9 1.3 20-1.9 5-2.6 7.8-7.7 7.2-13.5-.7-7.7-4.1-11.6-11.1-13.1-3.1-.6-6.5-.3-9.7.1-7.6.9-14 7.7-14.4 16.3z"/><g fill="#ea9e4f"><path d="M13.9 596.1c3.3 3.7 6.8 7.2 9.8 11L57.8 652l36.6 48.8 35.4 46 27.7 36.8 38.1 50.1 58.3 76.5c11.5 15.1 22.8 30.4 33.6 46.3-9.1-4.8-18.4-9.2-27.2-14.6-14.8-9-29.4-18.3-43.7-28-10.8-7.3-21.5-14.9-31.4-23.4-12.6-10.8-24.8-22.1-36.3-34-12.7-13.1-25.3-26.4-36.3-40.9C98.8 797.5 86 778.5 74.2 759c-10-16.5-18.4-33.9-26.4-51.4-5.8-12.5-10.5-25.5-14.6-38.6-6.3-20-11.8-40.4-17.4-60.6-1.1-4.1-1.3-8.4-1.9-12.6.1.2 0 .3 0 .3z"/><path d="M14 596c-.2-.2-.5-.3-.7-.5.2-.1.4-.1.7-.2 0 .3-.1.5-.1.8l.1-.1zm544.5-96.9c.9-3.3 2.1-8.6 4-13.7 2.8-7.5 15.5-11.2 23.6-7 1.8.9 3.4 3.3 3.9 5.3 5.6 20.1 11.6 40.2 16.3 60.6 3 12.9-3.5 21.4-17.1 23.1-6.1.8-10.5-4.1-13.5-8.8-3.4-5.3-5.9-11.3-8.4-17.1-2-4.7-3.6-9.6-4.9-14.5-1.1-4.2-1.8-8.6-2.4-13-.7-4.3-.9-8.6-1.5-14.9zM770.9 440c.7-6.4 1.3-12.3 5.6-17.6 4.1-5 13.7-3.6 17.5-.2 9.1 8.1 13.2 18.6 16.3 29.8l5.6 20.3c2.8 11.2 4.5 22.6.7 34-2.8 8.5-13 11.8-20.5 5.6-6.5-5.4-10.4-12.7-13.2-20.4-3.4-9.1-6.4-18.5-8.6-28-1.8-7.7-2.3-15.6-3.4-23.5z"/></g><path fill="#ea9f51" d="M674.8 483.5c-1.2-11.4-4.9-22.2 1.5-32.5 4.8-7.8 12.7-8 18.7-.8 5.9 7.1 8.7 15.6 10.8 24.8-2.5.8-4.9 1.6-7.2 2.2l-23.8 6.3z"/></svg>