<?xml version="1.0" encoding="utf-8"?>
<!-- Generator: Adobe Illustrator 23.0.3, SVG Export Plug-In . SVG Version: 6.00 Build 0)  -->
<svg version="1.1" id="Calque_1" xmlns="http://www.w3.org/2000/svg" xmlns:xlink="http://www.w3.org/1999/xlink" x="0px" y="0px"
	 viewBox="0 0 1010 1010" style="enable-background:new 0 0 1010 1010;" xml:space="preserve">
<style type="text/css">
	.st0{fill:#A6CD8A;}
	.st1{fill:#048B34;}
</style>
<path class="st0" d="M1006,469v75l-1,4.6c-2.4,17.5-3.8,35.3-7.4,52.5c-4.5,21.2-10.2,42.1-16.7,62.8
	c-10.8,34.5-25.6,67.4-45.1,97.9c-11.8,18.5-23.7,37.2-37.3,54.4c-14.5,18.2-30.4,35.3-46.9,51.8c-12.7,12.7-26.7,24.4-41.1,35.3
	c-14.8,11.3-30.5,21.5-46.3,31.4c-19.3,12.1-39.5,22.5-60.7,30.9c-14.8,5.9-29.5,12.5-44.8,16.8c-23.2,6.6-46.8,11.8-70.4,17
	c-9.8,2.2-19.8,2.9-29.8,4.2c-6.8,0.9-13.7,1.6-20.5,2.4h-70l-31.3-4.1c-11.3-1.6-22.8-2.7-33.9-5.3c-16-3.8-31.8-8.7-47.7-13.3
	c-8.6-2.6-17.1-5.7-25.6-8.5c2.2-1.7,4.5-2,6.6-3c1.2-0.6,2.6-2,2.8-3.2c0.7-3.6,0.9-7.2,1.1-10.8l4-69.9l7.8-133.9l7.2-123
	l2.1-40.5l2.1-37.7c0.2-3.9,0.8-7.7,1.2-11.5c0.4-0.1,0.9-0.3,1.3-0.4L602,900.6c1.4-0.3,2.7-0.6,4-1c8.1-2.5,16.1-5.2,24.3-7.4
	c9.3-2.4,18.6-4.5,28-6.4c4-0.8,5.9-2.7,5.8-7c-0.1-7.6,0.3-15.2,0.5-22.8l2.4-59.5l2.5-70.3l3.3-79.2l4.2-119.6
	c0.2-6.1-0.1-12.2,0.2-18.3l1.8-34.5l1.8-45.4l2.3-55.6c1.5-30.7,0.7-61.5,7.8-91.7c6.8-29,18.9-54.6,43-73.6l-4.5-16.3
	c-2.5,0.5-4.9,0.8-7,1.6c-6.8,2.4-13.4,5.6-20.4,7.5l-102.8,26.5l-37.7,9.2c-9.8,2.4-9.7,2.5-7.3,12.4c1.6,6.5,2.3,7.2,8.9,5.7
	c11.4-2.8,22.9-3.4,34.5-1.7c13.3,1.9,25,6.9,34.4,16.9c9.9,10.6,15,23.6,19.2,36.9c2.6,8.3,3.9,17,5,25.7
	c1.7,13.2,3.7,26.5,3.7,39.7c-0.1,34.2-1.2,68.4-2.2,102.6c-0.5,16.6-1.6,33.1-2.4,49.6l-4,90.7l-3.4,88.2c-0.1,2-1.1,3.9-1.9,6.6
	l-22.6-33.4l-42.5-65.9l-45.4-69l-32.7-50.9l-33.7-51.6l-40.8-62.9c-9.1-14.5-18.6-28.7-23.1-45.7c-4.3-16.3,1.5-26.6,14.2-33.1
	c11.7-5.9,24.1-10.6,36.9-16.1l-4.2-15.5c-84.3,25.5-168.6,48-253.8,68c0.6,2.6,1.2,4.6,1.7,6.7c2.3,9.3,2.3,9.4,11.4,9.3
	c20.2-0.2,34.3,10.6,45.5,25.8c7.7,10.4,14.5,21.5,21.6,32.3l65.9,99.9c1.6,2.4,2.3,5.9,2.2,8.9l-6.2,90.1l-4.8,71.9l-7.8,116
	c-0.1,1.2-0.6,2.3-1.2,4.4c-2.1-2.2-3.8-3.6-4.9-5.3l-22.3-33.8l-46.8-69L204.5,620l-48.8-72.5l-49.5-72.2
	c-8.3-12.4-16.3-25.1-22.8-38.4c-4.1-8.4-6.7-18.2-7.4-27.5c-1-12.5,6-22.4,18.9-29c1.5-0.8,3.9-2.6,3.8-3.6
	c-0.8-5-2.4-9.8-3.7-14.9L21.4,384c0.3-2.3,0.3-3.2,0.5-4.1c2.5-8.8,4.7-17.6,7.6-26.2C41,317.1,56,282.3,76.4,249.9
	c9.9-15.7,19.9-31.3,30.8-46.3c19.7-27,42.6-51.1,67.7-73.1c12.7-11.1,26-21.7,39.7-31.5c13.3-9.5,27-18.6,41.3-26.5
	c17-9.4,34.6-17.8,52.4-25.7c14.9-6.6,30.1-12.6,45.7-17.3c19-5.7,38.5-10.2,57.9-14.5c13.8-3,27.9-4.7,41.9-6.8
	c6.4-1,12.9-1.4,19.3-2.1h71l13.4,2c19.3,3.2,38.7,5.8,57.8,9.9c16.9,3.6,33.7,8.5,50.2,13.8c12.4,4,24.4,9.2,36.4,14.2
	c11.5,4.8,23,9.5,34.1,15.1c10,5,19.4,11.2,29.1,16.8c4.2,2.4,8.5,4.6,12.4,7.3l34.1,24.6c21.3,15.3,40.6,32.9,58.1,52.3
	c13.1,14.4,25.8,29.2,37.7,44.6c9.9,12.9,18.6,26.7,27.3,40.5c5.9,9.4,11.2,19.1,16.1,29.1c6.3,12.8,12.3,25.8,17.8,39
	c5,12,10,24,13.6,36.4c6.8,23.9,14.3,47.7,17.6,72.5l4.7,34.8C1004.8,462.3,1005.4,465.6,1006,469L1006,469z M864.1,579.1
	c5.9-4.6,10.2-9.2,15.5-11.9c5.5-2.8,12.7-6.5,17.9-5.1c15.2,3.9,29,1.8,42.4-4.9s22.6-17.5,26.9-32.2c4.7-16,3-32-0.8-47.8
	c-1.9-7.9-4.9-15.7-8.2-23.2c-5.2-11.8-12.9-21.7-24.1-28.6c-21.6-13.2-53.6-1.5-61.7,22.5c-0.5,1.5-1.3,2.8-2,4.2h-1.5l-22.4-83
	l-28.1,9.7c-6.2,2-12.6,3.3-18.8,5.2c-1.5,0.5-2.7,2.1-4.1,3.2c1.6,0.6,3.2,1.7,4.7,1.6c5.6-0.5,9.9,1.4,12.7,6
	c2.2,3.6,4.1,7.6,5.2,11.6L852.4,536c3.3,12.3,5.9,24.9,8.9,37.2C862,575.5,863.3,577.4,864.1,579.1L864.1,579.1z M815.9,503.7
	l-9.6-21.2c-8.1-16.4-21.8-24.4-39.7-23.2c-8.5,0.6-17.2,3.4-25.2,6.7c-20.9,8.5-32,25-34.6,47c-2.3,19.9,2.5,38.6,11.2,56.4
	c5.7,11.6,13.8,21.3,25.3,27.1c14,7,28.7,7.1,44,2.9c23.3-6.3,36-27.2,38.5-48c0.2-1.3-1-2.8-1.5-4.1c-1.1,1-2.6,1.8-3.1,3.1
	c-2.9,8-7.4,14.9-14.3,19.9c-13.6,9.8-29.9,10.8-42.7-1.8c-12.5-12.3-16.6-28.4-20.3-45.4L815.9,503.7L815.9,503.7z"/>
<g>
	<path class="st0" d="M230.7,923.3c-5.9-3.6-12.1-6.8-17.6-10.9c-10.7-7.9-21.6-15.8-31.5-24.7c-14.1-12.7-27.6-26.1-41-39.5
		c-17.7-17.7-33.2-37.4-47-58.2c-12.5-18.8-23.4-38.6-34.3-58.4c-6.4-11.6-11.7-23.9-16.9-36.1c-3.6-8.5-6.6-17.2-9.2-26
		c-5.1-16.6-9.7-33.4-14.5-50.1c-0.4-1.2-0.5-2.5,0.2-4.3l7.5,10.4L79.2,702l97.7,140.7l49.3,71.6c1.9,2.7,3.6,5.5,5.3,8.2
		L230.7,923.3z"/>
	<path class="st1" d="M231.5,922.5l0.9,1.1l-0.5,0.5c-0.4-0.3-0.8-0.6-1.2-0.8L231.5,922.5z"/>
	<path class="st1" d="M232.4,923.6c0,0.4,0,0.7,0.1,1.1l-0.6-0.6L232.4,923.6z"/>
</g>
<path class="st0" d="M935.8,527.1c-0.9,5.8-1.6,11.4-2.8,16.8c-2.9,13.7-16,18.5-28.4,16.7c-5.5-0.8-8.4-3.4-9.9-9.2l-22.3-83.8
	c-3.5-12.5,3.2-27,16.3-32.2c5.4-2.1,14.5,0.2,18.5,5.5c4.2,5.6,8.7,11.4,11.2,17.9c4.9,12.7,9.1,25.8,12.5,39.1
	C933.6,507.4,934.3,517.4,935.8,527.1z"/>
<path class="st0" d="M783.4,508.2l-41.1,11.1c-2.5-14.5-5.6-28.3-0.6-42.4c2.1-5.9,6.2-9.5,12-10.6c5.7-1.1,10.6,1.6,13.6,6.4
	c3.9,6.2,7.3,12.8,10.3,19.5C779.9,497.2,781.4,502.6,783.4,508.2L783.4,508.2z"/>
</svg>
