<?xml version="1.0" encoding="utf-8"?>
<!-- Generator: Adobe Illustrator 23.0.3, SVG Export Plug-In . SVG Version: 6.00 Build 0)  -->
<svg version="1.1" id="Calque_1" xmlns="http://www.w3.org/2000/svg" xmlns:xlink="http://www.w3.org/1999/xlink" x="0px" y="0px"
	 viewBox="0 0 1010 1010" style="enable-background:new 0 0 1010 1010;" xml:space="preserve">
<style type="text/css">
	.st0{fill:#E6AA6E;}
</style>
<path class="st0" d="M469,6h77l74.1,12.6c13.5,2.7,26.9,6.5,40,10.9c14.1,4.8,27.9,10.5,41.7,16.3c12.6,5.3,25.1,11.1,37.4,17.2
	c7.7,3.8,15,8.5,22.4,13.1c11.6,7.2,23.5,14,34.4,22.2c16.9,12.6,33.8,25.4,49.3,39.7c15.5,14.2,29.8,29.8,43.6,45.7
	c10.9,12.4,20.8,25.6,30.3,39.1c14.6,20.9,27.3,43.1,38.2,66.2c5.1,10.8,9.5,22,13.9,33c3.8,9.5,8.1,19,10.8,28.9
	c6.7,24.2,14.4,48.3,17.8,73.3l4,29.8l2.2,14.9v78c-0.4,1-1.2,2-1.3,3c-2.3,26.6-6.8,52.8-13.4,78.8c-8.5,33.5-20.2,65.7-35.4,96.6
	c-6.1,12.4-12.6,24.6-20,36.2c-11.9,18.6-24,37.2-37.4,54.8c-20.3,26.7-43.8,50.5-69.6,72.1c-21.1,17.8-43.3,34-67.2,47.7
	c-14.9,8.5-30.3,16.2-45.8,23.8c-8.8,4.3-18,7.7-27.1,11.4s-18.1,7.9-27.6,10.4c-24.1,6.5-47.9,14.3-72.8,17.7l-30.3,4.2l-15.2,2.3
	h-78l-27.5-4.3l-50.6-9.5c-5.3-1-10.4-2.6-14.8-3.8c1.1-2.2,2.6-3.9,2.8-5.7c0.9-6.7,1.4-13.5,2-20.2l28-301.1l8.2-91.5l8.5-86.1
	c1.4-11.9,3.9-23.7,7.4-35.2c5.7-19,13.8-37.1,29-50.4c8-7,7.6-13.4,4-21.5c-0.1-0.3-0.4-0.5-0.3-0.3
	c-50.7,16.5-102.2,29.2-154.2,40.9l3.5,13.4c10.6-0.6,20.8-1.9,30.9-1.7c21.3,0.4,36.3,11.3,45.1,30.4c7.8,17.1,10.2,35.6,11.1,54.2
	c1.8,37.3-2.7,74.3-6.2,111.3l-7.8,82.5l-5.1,56.1l-6.1,63.9l-3,28.7c-2.1-1.7-3.7-2.4-4.6-3.7l-12.7-17.6l-37.7-50.6l-50.6-68.4
	l-35.4-48l-26.4-35.5l-34-45.9c-14.5-20.2-29.8-39.9-42.8-61c-10.4-17-9.8-33.5,12.6-43.4c9.4-4.2,19-8.1,28.8-12.3l-3.8-13.6
	c-2.2,0.5-4,0.7-5.7,1.2l-33.7,11.1c-11.1,3.3-22.5,6-33.7,9L6,500v-35c0.3-0.8,0.8-1.6,1-2.5c2.5-17.7,4.3-35.6,7.8-53.2
	c3.4-17,8.4-33.6,13-50.3c6.9-25.2,16.9-49.2,28.4-72.5c6.3-12.7,13.3-25,20.6-37.2c6.9-11.5,14.2-22.7,21.8-33.7
	c21.3-31,46.6-58.6,74.6-83.6c13.3-11.9,27.3-22.9,41.8-33.3c13.6-9.8,27.8-18.9,42.5-26.9c18.9-10.2,38.4-19.3,57.9-28.2
	c11.5-5.2,23.3-10,35.3-13.4c24-6.7,47.9-14.3,72.8-17.7l30.3-4.3L469,6z M559.2,424.2c2.2,0.5,3.4,1.1,4.5,1
	c4.6-0.3,8.6,0.7,10.6,5.4c1.9,4.7,4,9.4,5.5,14.3c2.9,10.1,5.5,20.4,8.4,31.2c-4.6-1.2-8.6-3.2-12.4-2.9c-6.4,0.5-12.9,1.9-19,3.9
	c-11.3,3.8-18.4,12.9-22.2,23.2c-4.1,11.2-3.6,23.4,0.3,35l4.9,14.4c4.2,10.9,10.9,20,21.6,25.3c7.6,3.7,15.5,3.8,24,2.2
	c9.6-1.7,18.1-7.8,21.1-17c0.5-1.5,1.4-2.8,2.1-4.2c0.4,0.1,0.8,0.2,1.1,0.3l3.7,13.1l36.9-9.8c0.8-0.2,1.3-1.5,1.9-2.3
	c-1.2-0.5-2.3-1.5-3.5-1.4c-5.9,0.3-10.9-2.9-12.4-8.4l-36.6-136.7L559.2,424.2L559.2,424.2z M745,458.9c0.6,12,3.3,23.5,8.2,34.4
	c8.3,18.7,20.6,26.7,40.7,26.4c8-0.1,16.3-2.3,23.9-5.2c8.6-3.3,16-8.8,21.2-17.1c8-12.6,6.6-26.1,3.8-39.4
	c-1.8-8.4-5.3-16.8-9.5-24.4c-5.5-10-14.2-16.7-25.8-18.8c-10.9-2-21.2-0.3-31.7,3.2C757.7,424,745.2,439,745,458.9L745,458.9z
	 M730.2,471.7c-1.8-4.8-3.2-9.2-5.1-13.3c-5.2-10.9-16.2-18.8-28.8-17.7c-6.2,0.5-12.7,1.6-18.4,4c-6.1,2.5-12.3,6-16.9,10.5
	c-10.7,10.6-14.4,23.8-12.2,38.9c2.1,14.9,6,28.7,16.8,40.1c10.1,10.7,29.9,16,43.7,10.6c10.8-4.3,19.9-10.8,25-21.8
	c2.6-5.6,4-11.4,3.4-17.7c-1.4,0.7-2.3,1.6-2.7,2.7c-2.8,7.4-7.3,13.2-14.4,17c-8.8,4.8-19.4,3.8-26.9-2.3
	c-11.4-9.3-14.3-22.6-17.9-36.2L730.2,471.7L730.2,471.7z M483.8,602.4c0.4,0.4,0.8,0.9,1.1,1.3l51.7-13.9l0.3-1.6
	c-1.4-0.5-2.8-1.5-4-1.4c-6.9,0.8-10.9-1.5-12.6-7.9l-16.5-62.1l-6.9-25.1L456.8,504c1.8,1.3,2.7,2.4,3.7,2.5
	c9,0.9,12.4,3.4,14.5,11.2l18.3,68.3c1.7,6.2-0.6,10.2-6.8,13.2C485.4,599.8,484.7,601.4,483.8,602.4L483.8,602.4z M455.3,463.1
	c0.6,4.2,2,9.2,8,12.1c7.3,3.6,13.9,1.3,20-1.9c5-2.6,7.8-7.7,7.2-13.5c-0.7-7.7-4.1-11.6-11.1-13.1c-3.1-0.6-6.5-0.3-9.7,0.1
	C462.1,447.7,455.7,454.5,455.3,463.1z"/>
<g>
	<path class="st0" d="M14.6,596.1c3.3,3.7,6.8,7.2,9.8,11L58.5,652l36.6,48.8l35.4,46l27.7,36.8l38.1,50.1l58.3,76.5
		c11.5,15.1,22.8,30.4,33.6,46.3c-9.1-4.8-18.4-9.2-27.2-14.6c-14.8-9-29.4-18.3-43.7-28c-10.8-7.3-21.5-14.9-31.4-23.4
		c-12.6-10.8-24.8-22.1-36.3-34c-12.7-13.1-25.3-26.4-36.3-40.9c-13.8-18.1-26.6-37.1-38.4-56.6c-10-16.5-18.4-33.9-26.4-51.4
		C42.7,695.1,38,682.1,33.9,669c-6.3-20-11.8-40.4-17.4-60.6c-1.1-4.1-1.3-8.4-1.9-12.6C14.7,596,14.6,596.1,14.6,596.1L14.6,596.1z
		"/>
	<path class="st0" d="M14.7,596c-0.2-0.2-0.5-0.3-0.7-0.5c0.2-0.1,0.4-0.1,0.7-0.2c0,0.3-0.1,0.5-0.1,0.8L14.7,596z M559.2,499.1
		c0.9-3.3,2.1-8.6,4-13.7c2.8-7.5,15.5-11.2,23.6-7c1.8,0.9,3.4,3.3,3.9,5.3c5.6,20.1,11.6,40.2,16.3,60.6
		c3,12.9-3.5,21.4-17.1,23.1c-6.1,0.8-10.5-4.1-13.5-8.8c-3.4-5.3-5.9-11.3-8.4-17.1c-2-4.7-3.6-9.6-4.9-14.5
		c-1.1-4.2-1.8-8.6-2.4-13C560,509.7,559.8,505.4,559.2,499.1L559.2,499.1z M771.6,440c0.7-6.4,1.3-12.3,5.6-17.6
		c4.1-5,13.7-3.6,17.5-0.2c9.1,8.1,13.2,18.6,16.3,29.8l5.6,20.3c2.8,11.2,4.5,22.6,0.7,34c-2.8,8.5-13,11.8-20.5,5.6
		c-6.5-5.4-10.4-12.7-13.2-20.4c-3.4-9.1-6.4-18.5-8.6-28C773.2,455.8,772.7,447.9,771.6,440L771.6,440z"/>
</g>
<path class="st0" d="M675.5,483.5c-1.2-11.4-4.9-22.2,1.5-32.5c4.8-7.8,12.7-8,18.7-0.8c5.9,7.1,8.7,15.6,10.8,24.8
	c-2.5,0.8-4.9,1.6-7.2,2.2L675.5,483.5z"/>
</svg>
